DBRep_DrawableShape

CASCADE Topology V3, (c) Open Cascade
Locations 0
Curve2ds 32
1 0 5.9000000000000004 1 0 
1 -6.2831853071795862 5.9000000000000004 1 0 
1 0 5.9000000000000004 1 0 
1 -6.2831853071795862 5.9000000000000004 1 0 
7 0 0  3 25 23  9.3033702888970584 -3.4888374145225498e-06  9.2118495318753162 0.00067939043424993385  9.0288080178318353 0.0037465538118426974  8.7542457467666139 0.012754907857965245  8.4796834757013855 0.025590342364577072  8.2051212046361641 0.041266059299084959  7.9305589335709392 0.058614529249748366  7.6559966625057179 0.076334328327624004  7.381434391440493 0.093098515984560842  7.1068721203752716 0.10765112211002359  6.8323098493100431 0.11890201588823006  6.5577475782448218 0.12600836031033921  6.2831853071795969 0.12843780702178856  6.0086230361143738 0.12600836031033927  5.7340607650491506 0.11890201588822998  5.4594984939839186 0.10765112211002389  5.1849362229187044 0.093098515984559677  4.9103739518534741 0.076334328327628403  4.635811680788251 0.058614529249752974  4.3612494097230332 0.041266059299083759  4.0866871386578083 0.025590342364577346  3.8121248675925834 0.012754907857965193  3.5375625965273585 0.0037465538118427039  3.354521082483874 0.00067939043424991596  3.2630003254621336 -3.4888374145225498e-06 
 3.2630003254621136 4 3.5375625965273376 1 3.8121248675925612 1 4.0866871386577852 1 4.3612494097230092 1 4.6358116807882332 1 4.9103739518534564 1 5.1849362229186804 1 5.4594984939839044 1 5.7340607650491284 1 6.0086230361143524 1 6.2831853071795756 1 6.5577475782448005 1 6.8323098493100236 1 7.1068721203752476 1 7.3814343914404716 1 7.6559966625056948 1 7.9305589335709197 1 8.2051212046361428 1 8.4796834757013659 1 8.7542457467665908 1 9.028808017831814 1 9.3033702888970389 4
1 1.4435878514557849 1 1 0 
1 3.1415926535897931 1 1 0 
1 3.1415926535897949 1 1 0 
1 1.4435878514557097 1 1 0 
7 0 0  1 2 2  3.0206308422349721 2.8421709430404007e-14  3.2625544649446176 2.8421709430404007e-14 
 1.0383404205893676e-15 2 1 2
1 9.3033702888970584 0 0 1 
1 3.0201849817174722 0 0 1 
1 3.1415926535897931 23.628000000000007 1 0 
1 -3.1415926535897931 23.628000000000007 1 0 
1 0 0 1 0 
1 6.2831853071795862 0 0 1 
1 0 0 0 1 
1 0 0 1 0 
1 6.2831853071795862 0 0 1 
1 0 0 0 1 
1 1.443587851455749 0 0 1 
1 1.4435878514557097 0 1 0 
1 3.1415926535897931 0 0 1 
1 3.1415926535897931 0 0 1 
1 3.1415926535897949 0 1 0 
1 4.8395974557238368 0 0 1 
1 4.8395974557237853 0 0 1 
1 3.1415926535897931 0 0 1 
1 3.1415926535897931 0 1 0 
1 3.1415926535897931 0 0 1 
1 1.4435878514558003 0 0 1 
1 1.4435878514557849 0 1 0 
Curves 83
2 5 -2.5 15 0 0 1 1 0 -0 -0 1 0 0.5
2 2.5 -2.5 15 0 0 1 1 0 -0 -0 1 0 0.5
1 5.5 -2 15 -1 0 0 
1 5.5 -2 15 -1 0 0 
1 5.5 -2 15 -1 0 0 
1 2 -1 15 0 1 0 
1 6.93889390390723e-15 0 15 1 0 0 
1 -5 -5 15 0 1 0 
1 6.93889390390723e-15 -5 15 1 0 0 
1 15 -5 15 0 1 0 
1 6.93889390390723e-15 -3 15 -1 0 0 
1 10.463226925387699 -5 15 0 1 0 
3 9.959141028208581 -2.5 15 0 0 1 -1 0 0 0 -1 0 0.50408589717914198 0.5
1 10.463226925387699 -5 15 0 1 0 
1 6.93889390390723e-15 -2 15 -1 0 0 
1 15 -5 15 0 1 0 
1 6.93889390390723e-15 0 15 1 0 0 
1 5.5 -1 15 0 1 0 
1 -5 0 0 -1.7347234759767999e-16 0 -1 
1 -5 -5 -15 0 1 0 
1 -5 -5 0 -1.7347234759767999e-16 0 -1 
1 3.4694469519536099e-15 0 -15 1 0 0 
1 15 -5 -15 0 1 0 
1 3.4694469519536099e-15 -5 -15 1 0 0 
1 15 0 0 -1.7347234759767999e-16 0 -1 
1 15 -2 16.743080594265901 -1.7347234759767999e-16 0 -1 
1 15 -2.5 14.418347121157399 0 -1 0 
1 15 -3 0 1.7347234759767999e-16 0 1 
1 15 -5 0 -1.7347234759767999e-16 0 -1 
1 8.0762258674757899 -5 0.368032574553954 0.12686567164179097 0 0.99191990672577857 
1 6.2276321993591397 -5 -9.9986788576135908 0.99191990672577857 0 -0.12686567164179097 
1 6.8246639179837798 -5 -1.53515533338845 -0.12686567164179097 0 -0.99191990672577857 
2 8.1863954978621898 -5 9.9000000000000004 0 -1 0 0.991919906725787 0 -0.12686567164172599 0.12686567164172599 0 0.991919906725787 0.100000000000002
1 4.9981860512304905 -5 10 1 0 2.4943284337778301e-16 
2 1.81360450213781 -5 9.9000000000000004 0 -1 0 0 0 1 -1 0 0 0.10000000000000001
1 3.1609169444554901 -5 -1.42241695901808 -0.12686567164179097 0 0.99191990672577857 
1 3.3246222923540301 -5 -10.0559451088989 0.99191990672577857 0 0.12686567164179097 
1 1.9288827952234999 -5 0.32808966357889102 0.12686567164179097 0 -0.99191990672577857 
2 1.4727909957243401 -5 10.200000000000001 0 -1 0 -1.89735380184963e-15 0 1 -1 -0 -1.89735380184963e-15 0.80000000000000004
1 4.8526479178576807 -5 11 -1 0 -2.4943284337778301e-16 
2 8.5272090042756599 -5 10.200000000000001 0 -1 0 0.99191990672577857 0 -0.12686567164179194 0.12686567164179194 0 0.99191990672577857 0.80000000000000004
1 2 0 14.636029765733799 0 0 -1 
1 5.5 1.7347234759768e-15 14.272059531467599 -1 0 0 
1 5.5 0 14.636029765733799 0 0 -1 
7 0 0  3 4 2  10.4631665743998 -2.4392223769074204 14.9995288868381  10.4631665743998 -2.4797407923024699 14.9995288868381  10.4631665743998 -2.5202592076975301 14.9995288868381  10.4631665743998 -2.5607776230925801 14.9995288868381 
 0 4 1 4
7 0 0  1 2 2  10.459516418036188 -2.4394451814942957 14.999999999999996  7.4572334026957297 -2.4394451814942957 -8.436485350075678 
 -3.4888374145225498e-06 2 23.628000000000007 2
2 6.9649367810720797 -2.5 -8.3734206983784212 -0.12706460860134997 0 -0.99189444259002979 0.99189444259002979 0 -0.12706460860134997 0 -1 -0 0.5
1 10.6874356085812 -3 16.750222578009602 -0.12706460860134994 0 -0.99189444259002968 
1 10.4631665743998 -2.5130513822659903 14.9995288868381 0 -1 0 
1 10.4631665743998 -2.5130513822659903 14.9995288868381 0 -1 0 
1 10.6874356085812 -2 16.750222578009602 -0.12706460860134994 0 -0.99189444259002968 
1 10.518918479374999 -2 14.992386903094399 0.99189444259002968 0 -0.12706460860134994 
1 10.518918479374999 -3 14.992386903094399 0.99189444259002968 0 -0.12706460860134994 
2 2.5 -2.5 9.0999999999999996 0 0 1 1 0 -0 -0 1 0 0.5
7 0 0  1 2 2  3 -2.5 9.0999999999999996  3 -2.5 15 
 0 2 5.9000000000000004 2
2 5 -2.5 9.0999999999999996 0 0 1 1 0 -0 -0 1 0 0.5
7 0 0  1 2 2  5.5 -2.5 9.0999999999999996  5.5 -2.5 15 
 0 2 5.9000000000000004 2
1 2 -1 14.636029765733799 0 -0.93969262078590854 0.34202014332566816 
1 5.5 -1 14.636029765733799 0 -0.93969262078590854 0.34202014332566816 
1 9.3207449296562803 -4 10.0985074626866 0 -1 0 
1 8.0762258674757899 -4 0.368032574553954 0.12686567164179097 0 0.99191990672577857 
1 6.7419199067257898 -4 -10.0644557968299 0 -1 0 
2 8.5272090042756599 -4 10.200000000000001 0 -1 0 0.99191990672577857 0 -0.12686567164179194 0.12686567164179194 0 0.99191990672577857 0.80000000000000004
1 8.5272090042756599 -4 11 0 -1 0 
1 1.4727909957243401 -4 11 0 -1 0 
1 4.8526479178576807 -4 11 -1 0 -2.4943284337778301e-16 
2 1.4727909957243401 -4 10.200000000000001 0 -1 0 -1.89735380184963e-15 0 1 -1 -0 -1.89735380184963e-15 0.80000000000000004
1 0.67925507034371502 -4 10.0985074626866 0 -1 0 
1 3.25808009327422 -4 -10.06445579683 0 -1 0 
1 1.9288827952234999 -4 0.32808966357889102 0.12686567164179097 0 -0.99191990672577857 
1 4.25 -4 -9.9375901251881711 0 -1 0 
1 3.3246222923540301 -4 -10.0559451088989 0.99191990672577857 0 0.12686567164179097 
1 1.71441251146523 -4 9.8873134328358301 0 -1 0 
1 3.1609169444554901 -4 -1.42241695901808 -0.12686567164179097 0 0.99191990672577857 
1 1.81360450213781 -4 10 0 -1 0 
2 1.81360450213781 -4 9.9000000000000004 0 -1 0 0 0 1 -1 0 0 0.10000000000000001
1 8.1863954978621898 -4 10 0 -1 0 
1 4.9981860512304905 -4 10 1 0 2.4943284337778301e-16 
1 8.2855874885347696 -4 9.8873134328358301 0 -1 0 
2 8.1863954978621898 -4 9.9000000000000004 0 -1 0 0.991919906725787 0 -0.12686567164172599 0.12686567164172599 0 0.991919906725787 0.100000000000002
1 5.75 -4 -9.9375901251881498 0 -1 0 
1 6.8246639179837798 -4 -1.53515533338845 -0.12686567164179097 0 -0.99191990672577857 
1 6.2276321993591397 -4 -9.9986788576135908 0.99191990672577857 0 -0.12686567164179097 
Polygon3D 0
PolygonOnTriangulations 0
Surfaces 33
1 6.93889390390723e-15 -5 15 0 0 1 1 0 -0 -0 1 0 
10 0 6.2831853071795862 0 5.9000000000000004
2 5 -2.5 9.0999999999999996 0 0 1 1 0 -0 -0 1 0 0.5
10 0 6.2831853071795862 0 5.9000000000000004
2 2.5 -2.5 9.0999999999999996 0 0 1 1 0 -0 -0 1 0 0.5
1 5.5 -1 14.636029765733799 0 -0.34202014332566821 -0.93969262078590865 0 0.93969262078590865 -0.34202014332566821 1 0 0 
1 2 -1 14.636029765733799 1 0 0 -0 1 0 0 -0 1 
1 3.4694469519536099e-15 0 0 0 -1 0 1 0 0 -0 0 1 
1 -5 -5 0 1 0 -1.7347234759767999e-16 -1.7347234759767999e-16 0 -1 0 1 0 
1 3.4694469519536099e-15 -5 0 0 -1 0 1 0 0 -0 0 1 
1 15 -5 0 1 0 -1.7347234759767999e-16 -1.7347234759767999e-16 0 -1 0 1 0 
1 10.7431875135564 -3 16.743080594265901 0 1 0 0 -0 1 1 0 -0 
1 10.6874356085812 -2.5130513822659903 16.750222578009602 0.99189444259002979 0 -0.12706460860134997 -0.12706460860134997 0 -0.99189444259002979 0 1 0 
10 3.0201849817174722 9.3033702888970584 -3.4888374145225498e-06 23.628000000000007
2 9.9672193531047899 -2.5 15.0630611911388 -0.12706460860134997 0 -0.99189444259002979 -0.99189444259002979 0 0.12706460860134997 0 1 0 0.5
1 10.6874356085812 -2.5130513822659903 16.750222578009602 0.99189444259002979 0 -0.12706460860134997 -0.12706460860134997 0 -0.99189444259002979 0 1 0 
1 10.7431875135564 -2 16.743080594265901 0 1 0 0 -0 1 1 0 -0 
1 5.5 -1 14.636029765733799 1 0 0 -0 1 0 0 -0 1 
1 3.4694469519536099e-15 -5 -15 0 0 1 1 0 -0 -0 1 0 
1 12.1989818489324 -2.5 14.777165821785799 -0.12706460860134997 0 -0.99189444259002979 0.99189444259002979 0 -0.12706460860134997 0 -1 -0 
1 8.0762258674757899 -4 0.368032574553954 0.99191990672577868 0 -0.12686567164179097 -0.12686567164179097 0 -0.99191990672577868 0 1 0 
1 6.2276321993591397 -4 -9.9986788576135908 -0.12686567164179097 0 -0.99191990672577868 -0.99191990672577868 0 0.12686567164179097 0 1 0 
1 6.8246639179837798 -4 -1.53515533338845 -0.99191990672577868 0 0.12686567164179097 0.12686567164179097 0 0.99191990672577868 0 1 -0 
2 8.1863954978621898 -4 9.9000000000000004 0 -1 0 0 0 -1 1 0 0 0.100000000000002
1 4.9981860512304905 -4 10 2.4943284337778301e-16 0 -1 -1 0 -2.4943284337778301e-16 0 1 0 
2 1.81360450213781 -4 9.9000000000000004 0 -1 0 0 0 -1 1 0 0 0.10000000000000001
1 3.1609169444554901 -4 -1.42241695901808 0.99191990672577868 0 0.12686567164179097 0.12686567164179097 0 -0.99191990672577868 -0 1 0 
1 3.3246222923540301 -4 -10.0559451088989 0.12686567164179097 0 -0.99191990672577868 -0.99191990672577868 0 -0.12686567164179097 0 1 0 
1 1.9288827952234999 -4 0.32808966357889102 -0.99191990672577868 0 -0.12686567164179097 -0.12686567164179097 0 0.99191990672577868 0 1 0 
2 1.4727909957243401 -4 10.200000000000001 0 -1 0 0 0 -1 1 0 0 0.80000000000000004
1 4.8526479178576807 -4 11 -2.4943284337778301e-16 0 1 1 0 2.4943284337778301e-16 0 1 -0 
2 8.5272090042756599 -4 10.200000000000001 0 -1 0 0 0 -1 1 0 0 0.80000000000000004
1 9.1966992768996505 -2.5 -8.65931606773146 -0.12706460860134997 0 -0.99189444259002979 0.99189444259002979 0 -0.12706460860134997 0 -1 -0 
1 -3.4694469519536099e-15 -2.5 9.0999999999999996 0 0 1 1 0 -0 -0 1 0 
1 -3.4694469519536099e-15 -2.5 9.0999999999999996 0 0 1 1 0 -0 -0 1 0 
1 5 -4 0 0 -1 0 1 0 0 -0 0 1 
Triangulations 0

TShapes 213
Ve
1e-05
5.5 -2.5 15
0 0

0101101
*
Ve
1e-07
5 -2 15
0 0

0101101
*
Ed
 1e-07 1 1 0
1  1 0 1.5707963267949 6.28318530717959
2  1 2 0 1.5707963267949 6.28318530717959
4 C0 1 0 2 0
0

0101000
-213 0 +212 0 *
Ed
 1e-07 1 1 0
1  1 0 6.28318530717959 7.85398163397448
2  2 2 0 6.28318530717959 7.85398163397448
4 C0 1 0 2 0
0

0101000
-212 0 +213 0 *
Wi

0101100
-211 0 -210 0 *
Ve
1e-05
3 -2.5 15
0 0

0101101
*
Ve
1e-07
2.5 -2 15
0 0

0101101
*
Ed
 1e-07 1 1 0
1  2 0 1.5707963267949 6.28318530717959
2  3 3 0 1.5707963267949 6.28318530717959
4 C0 1 0 3 0
0

0101000
-208 0 +207 0 *
Ed
 1e-07 1 1 0
1  2 0 6.28318530717959 7.85398163397448
2  4 3 0 6.28318530717959 7.85398163397448
4 C0 1 0 3 0
0

0101000
-207 0 +208 0 *
Wi

0101100
-206 0 -205 0 *
Ve
1e-07
5.5 -2 15
0 0

0101101
*
Ed
 1e-07 1 1 0
1  3 0 0 0.5
4 C0 1 0 4 0
0

0101000
+203 0 -212 0 *
Ed
 1e-07 1 1 0
1  4 0 0.5 3
4 C0 1 0 4 0
0

0101000
+212 0 -207 0 *
Ve
1e-07
2 -2 15
0 0

0101101
*
Ed
 1e-07 1 1 0
1  5 0 3 3.5
4 C0 1 0 4 0
0

0101000
+207 0 -200 0 *
Ve
1e-07
2 0 15
0 0

0101101
*
Ed
 1e-07 1 1 0
1  6 0 -1 1
4 C0 1 0 5 0
0

0101000
+200 0 -198 0 *
Ve
1e-07
-5 0 15
0 0

0101101
*
Ed
 1e-07 1 1 0
1  7 0 -5.00000000000001 1.99999999999999
4 C0 1 0 6 0
0

0101000
+196 0 -198 0 *
Ve
1e-07
-5 -5 15
0 0

0101101
*
Ed
 1e-07 1 1 0
1  8 0 0 5
4 C0 1 0 7 0
0

0101000
+194 0 -196 0 *
Ve
1e-07
15 -5 15
0 0

0101101
*
Ed
 1e-07 1 1 0
1  9 0 -5.00000000000001 15
4 C0 1 0 8 0
0

0101000
+194 0 -192 0 *
Ve
1e-07
15 -3 15
0 0

0101101
*
Ed
 1e-07 1 1 0
1  10 0 0 2
4 C0 1 0 9 0
0

0101000
+192 0 -190 0 *
Ve
1e-07
10.4632269253877 -3 15
0 0

0101101
*
Ed
 1e-07 1 1 0
1  11 0 -15 -10.4632269253877
4 C0 1 0 10 0
0

0101000
+190 0 -188 0 *
Ve
0.00368041111743606
10.4613277676217 -2.56077762309259 14.9997644434191
0 0

0101101
*
Ed
 1e-07 1 1 0
1  12 0 2 2.43922237690741
4 C0 1 0 11 0
0

0101000
+188 0 -186 0 *
Ve
0.00368041111743606
10.4613277676217 -2.43922237690742 14.9997644434191
0 0

0101101
*
Ed
 1e-07 1 1 0
1  13 0 3.26300032546211 9.30337028889704
2  5 12 0 3.26300032546211 9.30337028889704
4 C0 1 0 12 0
0

0101000
-186 0 +184 0 *
Ve
1e-07
10.4632269253877 -2 15
0 0

0101101
*
Ed
 1e-07 1 1 0
1  14 0 2.56077762309258 3
4 C0 1 0 13 0
0

0101000
+184 0 -182 0 *
Ve
1e-07
15 -2 15
0 0

0101101
*
Ed
 1e-07 1 1 0
1  15 0 -15 -10.4632269253877
4 C0 1 0 14 0
0

0101000
+180 0 -182 0 *
Ve
1e-07
15 0 15
0 0

0101101
*
Ed
 1e-07 1 1 0
1  16 0 3 5
4 C0 1 0 9 0
0

0101000
+180 0 -178 0 *
Ve
1e-07
5.5 0 15
0 0

0101101
*
Ed
 1e-07 1 1 0
1  17 0 5.49999999999999 15
4 C0 1 0 6 0
0

0101000
+176 0 -178 0 *
Ed
 1e-07 1 1 0
1  18 0 -1 1
4 C0 1 0 15 0
0

0101000
+203 0 -176 0 *
Wi

0101100
+202 0 +201 0 +199 0 +197 0 -195 0 -193 0 +191 0 +189 0 +187 0 +185 0 
-183 0 +181 0 -179 0 +177 0 -175 0 -174 0 *
Fa
0  1e-07 1 0

0101000
+209 0 +204 0 +173 0 *
Ve
1e-07
-5 0 -15
0 0

0101101
*
Ed
 1e-07 1 1 0
1  19 0 -15 15
4 C0 7 0 6 0
0

0101000
+196 0 -171 0 *
Ve
1e-07
-5 -5 -15
0 0

0101101
*
Ed
 1e-07 1 1 0
1  20 0 0 5
4 C0 7 0 16 0
0

0101000
+169 0 -171 0 *
Ed
 1e-07 1 1 0
1  21 0 -15 15
4 C0 7 0 8 0
0

0101000
+194 0 -169 0 *
Wi

0101100
+170 0 -168 0 -167 0 +193 0 *
Fa
0  1e-07 7 0

0111000
-166 0 *
Ve
1e-07
15 0 -15
0 0

0101101
*
Ed
 1e-07 1 1 0
1  22 0 -5 15
4 C0 16 0 6 0
0

0101000
+171 0 -164 0 *
Ve
1e-07
15 -5 -15
0 0

0101101
*
Ed
 1e-07 1 1 0
1  23 0 0 5
4 C0 16 0 9 0
0

0101000
+162 0 -164 0 *
Ed
 1e-07 1 1 0
1  24 0 -5 15
4 C0 16 0 8 0
0

0101000
+169 0 -162 0 *
Wi

0101100
+163 0 -161 0 -160 0 +168 0 *
Fa
0  1e-07 16 0

0111000
-159 0 *
Ed
 1e-07 1 1 0
1  25 0 -15 15
4 C0 9 0 6 0
0

0101000
+178 0 -164 0 *
Ve
1e-07
15 -2 14.4183471211574
0 0

0101101
*
Ed
 1e-07 1 1 0
1  26 0 1.7430805942659 2.3247334731085
4 C0 9 0 14 0
0

0101000
+180 0 -156 0 *
Ve
1e-07
15 -3 14.4183471211574
0 0

0101101
*
Ed
 1e-07 1 1 0
1  27 0 -0.5 0.5
4 C0 9 0 17 0
0

0101000
+156 0 -154 0 *
Ed
 1e-07 1 1 0
1  28 0 14.4183471211574 15
4 C0 9 0 10 0
0

0101000
+154 0 -190 0 *
Ed
 1e-07 1 1 0
1  29 0 -15 15
4 C0 9 0 8 0
0

0101000
+192 0 -162 0 *
Wi

0101100
-157 0 -177 0 +155 0 +153 0 +152 0 -189 0 +151 0 +161 0 *
Fa
0  1e-07 9 0

0111000
+150 0 *
Ve
1e-07
6.74191990672579 -5 -10.0644557968299
0 0

0101101
*
Ve
1e-07
9.32074492965628 -5 10.0985074626866
0 0

0101101
*
Ed
 1e-07 1 1 0
1  30 0 -10.517470514147 9.80973849012861
4 C0 8 0 18 0
0

0101000
+148 0 -147 0 *
Ve
1e-07
5.75 -5 -9.93759012518814
0 0

0101101
*
Ed
 1e-07 1 1 0
1  31 0 -0.481522949706447 0.518477050293561
4 C0 8 0 19 0
0

0101000
+145 0 -148 0 *
Ve
1e-07
8.28558748853477 -5 9.88731343283583
0 0

0101101
*
Ed
 1e-07 1 1 0
1  32 0 -11.5155152031666 8.4708802946956
4 C0 8 0 20 0
0

0101000
+143 0 -145 0 *
Ve
1e-07
8.18639549786219 -5 10
0 0

0101101
*
Ed
 1e-07 1 1 0
1  33 0 0 1.69800480213402
2  6 21 0 0 1.69800480213402
4 C0 8 0 21 0
0

0101000
+143 0 -141 0 *
Ve
1e-07
1.81360450213781 -5 10
0 0

0101101
*
Ed
 1e-07 1 1 0
1  34 0 -3.18458154909268 3.1882094466317
4 C0 8 0 22 0
0

0101000
+139 0 -141 0 *
Ve
1e-07
1.71441251146523 -5 9.88731343283583
0 0

0101101
*
Ed
 1e-07 1 1 0
1  35 0 0 1.69800480213399
2  7 23 0 0 1.69800480213399
4 C0 8 0 23 0
0

0101000
+139 0 -137 0 *
Ve
1e-07
4.25 -5 -9.93759012518817
0 0

0101101
*
Ed
 1e-07 1 1 0
1  36 0 -8.58453702605664 11.4018584718056
4 C0 8 0 24 0
0

0101000
+135 0 -137 0 *
Ve
1e-07
3.25808009327422 -5 -10.06445579683
0 0

0101101
*
Ed
 1e-07 1 1 0
1  37 0 -0.0670842460450861 0.93291575395492
4 C0 8 0 25 0
0

0101000
+133 0 -135 0 *
Ve
1e-07
0.679255070343715 -5 10.0985074626866
0 0

0101101
*
Ed
 1e-07 1 1 0
1  38 0 -9.85000677258188 10.4772022316939
4 C0 8 0 26 0
0

0101000
+131 0 -133 0 *
Ve
1e-07
1.47279099572434 -5 11
0 0

0101101
*
Ed
 1e-07 1 1 0
1  39 0 0 1.69800480213404
2  8 27 0 0 1.69800480213404
4 C0 8 0 27 0
0

0101000
+129 0 -131 0 *
Ve
1e-07
8.52720900427566 -5 11
0 0

0101101
*
Ed
 1e-07 1 1 0
1  40 0 -3.67456108641798 3.37985692213334
4 C0 8 0 28 0
0

0101000
+127 0 -129 0 *
Ed
 1e-07 1 1 0
1  41 0 0 1.69800480213408
2  9 29 0 0 1.69800480213408
4 C0 8 0 29 0
0

0101000
+147 0 -127 0 *
Wi

0101100
-146 0 -144 0 -142 0 +140 0 -138 0 +136 0 -134 0 -132 0 -130 0 -128 0 
-126 0 -125 0 *
Wi

0101100
-191 0 +167 0 +160 0 -151 0 *
Fa
0  1e-07 8 0

0111000
+124 0 +123 0 *
Ve
1e-07
2 1.7347234759768e-15 14.2720595314676
0 0

0101101
*
Ed
 1e-07 1 1 0
1  42 0 -0.363970234266201 0.363970234266199
4 C0 6 0 5 0
0

0101000
+198 0 -121 0 *
Ve
1e-07
5.5 0 14.2720595314676
0 0

0101101
*
Ed
 1e-07 1 1 0
1  43 0 0 3.5
4 C0 6 0 4 0
0

0101000
+119 0 -121 0 *
Ed
 1e-07 1 1 0
1  44 0 -0.363970234266201 0.363970234266199
4 C0 6 0 15 0
0

0101000
+176 0 -119 0 *
Wi

0101100
+195 0 +120 0 -118 0 -117 0 +175 0 +157 0 -163 0 -170 0 *
Fa
0  1e-07 6 0

0111000
-116 0 *
Ed
 0.00368041111743606 1 1 0
1  45 0 1.03834042058937e-15 1
2  10 12 0 1.03834042058937e-15 1
4 C0 12 0 17 0
0

0101000
+184 0 -186 0 *
Ve
1e-05
7.45723340269573 -2.4394451814943 -8.43648535007568
0 0

0101101
*
Ed
 1e-05 1 1 0
1  46 0 -3.48883741452255e-06 23.628
3  11 12CN 12 0 -3.48883741452255e-06 23.628
0

0101000
+184 0 -113 0 *
Ve
1e-07
7.4608840023671 -2.5 -8.43695300267909
0 0

0101101
*
Ed
 1e-07 1 1 0
1  47 0 0 6.16177763530727
2  13 12 0 0 6.16177763530727
4 C0 12 0 30 0
0

0101000
-113 0 +111 0 *
Ed
 1e-07 1 1 0
1  47 0 6.16177763530727 6.28318530717959
2  14 12 0 6.16177763530727 6.28318530717959
4 C0 12 0 30 0
0

0101000
-111 0 +113 0 *
Wi

0101100
+114 0 -183 0 +112 0 -110 0 -109 0 -112 0 *
Fa
0  1e-07 12 0

0111000
+108 0 *
Wi

0101100
-110 0 -109 0 *
Fa
0  1e-07 30 0

0111000
-106 0 *
Ve
1e-07
10.4631665743998 -3 14.9995288868381
0 0

0101101
*
Ed
 1e-07 1 1 0
1  48 0 1.76452503699832 1.7650000000001
4 C0 11 0 10 0
0

0101000
+188 0 -104 0 *
Ed
 1e-07 1 1 0
1  49 0 0.0477262408265995 0.48694861773401
4 C0 11 0 17 0
0

0101000
+186 0 -104 0 *
Wi

0101100
+103 0 -102 0 -185 0 *
Fa
0  1e-07 11 0

0111000
+101 0 *
Ve
1e-07
10.4631665743998 -2 14.9995288868381
0 0

0101101
*
Ed
 1e-07 1 1 0
1  50 0 -0.51305138226599 -0.07382900535857
4 C0 13 0 17 0
0

0101000
+99 0 -184 0 *
Ed
 1e-07 1 1 0
1  51 0 1.76452503699832 1.7650000000001
4 C0 13 0 14 0
0

0101000
+182 0 -99 0 *
Wi

0101100
-98 0 -97 0 -181 0 *
Fa
0  1e-07 13 0

0111000
+96 0 *
Ed
 1e-07 1 1 0
1  52 0 -0.0562074980777384 4.51769999731425
4 C0 14 0 17 0
0

0101000
+99 0 -156 0 *
Wi

0101100
+179 0 +97 0 +94 0 -155 0 *
Fa
0  1e-07 14 0

0111000
-93 0 *
Ed
 1e-07 1 1 0
1  53 0 -0.0562074980777384 4.51769999731425
4 C0 10 0 17 0
0

0101000
+104 0 -154 0 *
Wi

0101100
-152 0 -91 0 -103 0 -187 0 *
Fa
0  1e-07 10 0

0111000
+90 0 *
Wi

0101100
+98 0 +114 0 +102 0 +91 0 -153 0 -94 0 *
Fa
0  1e-07 17 0

0111000
-88 0 *
Ve
1e-05
3 -2.5 9.1
0 0

0101101
*
Ed
 1e-07 1 1 0
1  54 0 0 6.28318530717959
2  15 3 0 0 6.28318530717959
4 C0 3 0 31 0
0

0101000
+86 0 -86 0 *
Ed
 1e-05 1 1 0
1  55 0 0 5.9
3  16 17CN 3 0 0 5.9
0

0101000
+86 0 -208 0 *
Wi

0101100
+85 0 +84 0 -206 0 -205 0 -84 0 *
Fa
0  1e-07 3 0

0111000
+83 0 *
Wi

0101100
+85 0 *
Fa
0  1e-07 31 0

0111000
+81 0 *
Ve
1e-05
5.5 -2.5 9.1
0 0

0101101
*
Ed
 1e-07 1 1 0
1  56 0 0 6.28318530717959
2  18 2 0 0 6.28318530717959
4 C0 2 0 32 0
0

0101000
+79 0 -79 0 *
Ed
 1e-05 1 1 0
1  57 0 0 5.9
3  19 20CN 2 0 0 5.9
0

0101000
+79 0 -213 0 *
Wi

0101100
+78 0 +77 0 -211 0 -210 0 -77 0 *
Fa
0  1e-07 2 0

0111000
+76 0 *
Wi

0101100
+78 0 *
Fa
0  1e-07 32 0

0111000
+74 0 *
Ed
 1e-07 1 1 0
1  58 0 -1.06417777247591 1.06417777247591
4 C0 4 0 5 0
0

0101000
+121 0 -200 0 *
Ed
 1e-07 1 1 0
1  59 0 -1.06417777247591 1.06417777247591
4 C0 4 0 15 0
0

0101000
+119 0 -203 0 *
Wi

0101100
+72 0 -199 0 -201 0 -202 0 -71 0 +118 0 *
Fa
0  1e-07 4 0

0111000
-70 0 *
Wi

0101100
+174 0 +117 0 +71 0 *
Fa
0  1e-07 15 0

0111000
-68 0 *
Wi

0101100
-197 0 -72 0 -120 0 *
Fa
0  1e-07 5 0

0111000
+66 0 *
Ve
1e-07
9.32074492965628 -4 10.0985074626866
0 0

0101101
*
Ed
 1e-07 1 1 0
1  60 0 0 1
2  21 29 0 0 1
4 G1 18 0 29 0
0

0101000
+64 0 -147 0 *
Ve
1e-07
6.74191990672579 -4 -10.0644557968299
0 0

0101101
*
Ed
 1e-07 1 1 0
1  61 0 -10.517470514147 9.80973849012861
4 C0 18 0 33 0
0

0101000
+62 0 -64 0 *
Ed
 1e-07 1 1 0
1  62 0 0 1
4 C0 18 0 19 0
0

0101000
+62 0 -148 0 *
Wi

0101100
+146 0 -63 0 -61 0 +60 0 *
Fa
0  1e-07 18 0

0111000
-59 0 *
Ve
1e-07
8.52720900427566 -4 11
0 0

0101101
*
Ed
 1e-07 1 1 0
1  63 0 0 1.69800480213408
2  22 29 0 0 1.69800480213408
4 C0 29 0 33 0
0

0101000
+64 0 -57 0 *
Ed
 1e-07 1 1 0
1  64 0 0 1
2  23 29 0 0 1
4 G1 29 0 28 0
0

0101000
+57 0 -127 0 *
Wi

0101100
-63 0 +56 0 +55 0 -125 0 *
Fa
0  1e-07 29 0

0111000
+54 0 *
Ve
1e-07
1.47279099572434 -4 11
0 0

0101101
*
Ed
 1e-07 1 1 0
1  65 0 0 1
2  24 27 0 0 1
4 G1 28 0 27 0
0

0101000
+52 0 -129 0 *
Ed
 1e-07 1 1 0
1  66 0 -3.67456108641798 3.37985692213334
4 C0 28 0 33 0
0

0101000
+57 0 -52 0 *
Wi

0101100
+126 0 -51 0 -50 0 +55 0 *
Fa
0  1e-07 28 0

0111000
-49 0 *
Ve
1e-07
0.679255070343715 -4 10.0985074626866
0 0

0101101
*
Ed
 1e-07 1 1 0
1  67 0 0 1.69800480213404
2  25 27 0 0 1.69800480213404
4 C0 27 0 33 0
0

0101000
+52 0 -47 0 *
Ed
 1e-07 1 1 0
1  68 0 0 1
2  26 27 0 0 1
4 G1 27 0 26 0
0

0101000
+47 0 -131 0 *
Wi

0101100
-51 0 +46 0 +45 0 -128 0 *
Fa
0  1e-07 27 0

0111000
+44 0 *
Ve
1e-07
3.25808009327422 -4 -10.06445579683
0 0

0101101
*
Ed
 1e-07 1 1 0
1  69 0 0 1
4 C0 26 0 25 0
0

0101000
+42 0 -133 0 *
Ed
 1e-07 1 1 0
1  70 0 -9.85000677258188 10.4772022316939
4 C0 26 0 33 0
0

0101000
+47 0 -42 0 *
Wi

0101100
+130 0 -41 0 -40 0 +45 0 *
Fa
0  1e-07 26 0

0111000
-39 0 *
Ve
1e-07
4.25 -4 -9.93759012518817
0 0

0101101
*
Ed
 1e-07 1 1 0
1  71 0 0 1
4 C0 25 0 24 0
0

0101000
+37 0 -135 0 *
Ed
 1e-07 1 1 0
1  72 0 -0.0670842460450861 0.93291575395492
4 C0 25 0 33 0
0

0101000
+42 0 -37 0 *
Wi

0101100
+132 0 -36 0 -35 0 +41 0 *
Fa
0  1e-07 25 0

0111000
-34 0 *
Ve
1e-07
1.71441251146523 -4 9.88731343283583
0 0

0101101
*
Ed
 1e-07 1 1 0
1  73 0 0 1
2  27 23 0 0 1
4 G1 24 0 23 0
0

0101000
+32 0 -137 0 *
Ed
 1e-07 1 1 0
1  74 0 -8.58453702605664 11.4018584718056
4 C0 24 0 33 0
0

0101000
+37 0 -32 0 *
Wi

0101100
+134 0 -31 0 -30 0 +36 0 *
Fa
0  1e-07 24 0

0111000
-29 0 *
Ve
1e-07
1.81360450213781 -4 10
0 0

0101101
*
Ed
 1e-07 1 1 0
1  75 0 0 1
2  28 23 0 0 1
4 G1 23 0 22 0
0

0101000
+27 0 -139 0 *
Ed
 1e-07 1 1 0
1  76 0 0 1.69800480213399
2  29 23 0 0 1.69800480213399
4 C0 23 0 33 0
0

0101000
+27 0 -32 0 *
Wi

0101100
-136 0 -26 0 +25 0 +31 0 *
Fa
0  1e-07 23 0

0111000
+24 0 *
Ve
1e-07
8.18639549786219 -4 10
0 0

0101101
*
Ed
 1e-07 1 1 0
1  77 0 0 1
2  30 21 0 0 1
4 G1 22 0 21 0
0

0101000
+22 0 -141 0 *
Ed
 1e-07 1 1 0
1  78 0 -3.18458154909268 3.1882094466317
4 C0 22 0 33 0
0

0101000
+27 0 -22 0 *
Wi

0101100
+138 0 -21 0 -20 0 +26 0 *
Fa
0  1e-07 22 0

0111000
-19 0 *
Ve
1e-07
8.28558748853477 -4 9.88731343283583
0 0

0101101
*
Ed
 1e-07 1 1 0
1  79 0 0 1
2  31 21 0 0 1
4 G1 21 0 20 0
0

0101000
+17 0 -143 0 *
Ed
 1e-07 1 1 0
1  80 0 0 1.69800480213402
2  32 21 0 0 1.69800480213402
4 C0 21 0 33 0
0

0101000
+17 0 -22 0 *
Wi

0101100
-140 0 -16 0 +15 0 +21 0 *
Fa
0  1e-07 21 0

0111000
+14 0 *
Ve
1e-07
5.75 -4 -9.93759012518815
0 0

0101101
*
Ed
 1e-07 1 1 0
1  81 0 0 1
4 C0 20 0 19 0
0

0101000
+12 0 -145 0 *
Ed
 1e-07 1 1 0
1  82 0 -11.5155152031666 8.4708802946956
4 C0 20 0 33 0
0

0101000
+17 0 -12 0 *
Wi

0101100
+142 0 -11 0 -10 0 +16 0 *
Fa
0  1e-07 20 0

0111000
-9 0 *
Ed
 1e-07 1 1 0
1  83 0 -0.481522949706446 0.518477050293561
4 C0 19 0 33 0
0

0101000
+12 0 -62 0 *
Wi

0101100
+144 0 -60 0 -7 0 +11 0 *
Fa
0  1e-07 19 0

0111000
-6 0 *
Wi

0101100
+61 0 +56 0 +50 0 +46 0 +40 0 +35 0 +30 0 -25 0 +20 0 -15 0 
+10 0 +7 0 *
Fa
0  1e-07 33 0

0111000
+4 0 *
Sh

0101100
+172 0 -165 0 -158 0 +149 0 +122 0 -115 0 -107 0 -105 0 +100 0 +95 0 
-92 0 +89 0 -87 0 -82 0 +80 0 -75 0 +73 0 -69 0 -67 0 +65 0 
-58 0 -53 0 -48 0 -43 0 -38 0 -33 0 -28 0 +23 0 -18 0 +13 0 
-8 0 -5 0 +3 0 *
So

0100000
+2 0 *

+1 0 