DBRep_DrawableShape

CASCADE Topology V3, (c) Open Cascade
Locations 3
1
3.06161699786839e-16              -1 3.06161699786839e-16         -57.225 
9.37349864163661e-32 -3.06161699786839e-16              -1            7.89 
              1 3.06161699786839e-16 -4.37905770101505e-46 -2.09999999993764 
1
              1               0               0               0 
              0               1               0               0 
              0               0               1               0 
2  1 1 2 1 0
Curve2ds 40
1 6.2831853071795862 -6.0174087934683484e-14 0 1 
1 0 -6.0174087934683484e-14 0 1 
1 1.5707963267948966 8.1748843805407034e-16 0 1 
1 9.4247779607693793 0.0020000000000134207 -1 -1.9523324234530097e-15 
1 3.1415926535897931 6.0396132539608516e-14 -6.7286243916676429e-16 1 
1 4.7123889803846897 8.1748843805407034e-16 0 1 
1 4.7123889803846897 -3.5527136788005009e-15 0 1 
1 -4.4408920985006262e-16 5.5519999999999925 1 1.9523324234530105e-15 
1 0.78539816339745983 0 0 1 
1 2.3561944901923444 0 -1 0 
1 2.3561944901923333 0 0 1 
1 2.3561944901923444 1.47 -1 0 
1 5.4977871437821362 0 0 1 
1 5.4977871437821362 1.47 -1 0 
1 3.9269908169872441 0 0 1 
1 5.4977871437821362 0 -1 0 
1 2.3561944901923191 0 0 1 
1 2.3561944901923435 1.47 -1 0 
1 0.78539816339745039 0 0 1 
1 2.3561944901923435 0 -1 0 
1 3.9269908169872298 0 0 1 
1 5.497787143782138 0 -1 0 
1 5.4977871437821495 0 0 1 
1 5.497787143782138 1.47 -1 0 
1 9.4247779607693793 0 -1 0 
1 9.4247779607693793 0 0 1 
1 3.1415926535897931 0 0 1 
1 9.4247779607693793 1.47 -1 0 
1 9.4247779607693793 0 -1 0 
1 9.4247779607693793 0 0 1 
1 3.1415926535897931 0 0 1 
1 9.4247779607693793 1.47 -1 0 
1 3.8025250565665925 0 0 1 
7 0 0  3 25 23  6.2831853071795862 0.9972836162153238  6.2593853628342071 0.99728576259965318  6.2117854741434533 0.99559060399760491  6.1403856411073265 0.98799072789439679  6.0689858080711865 0.97536486892113117  5.9975859750350651 0.95777939444456739  5.9261861419989232 0.93532337237399055  5.8547863089627983 0.90811137911777429  5.7833864759266671 0.87628204172456459  5.711986642890535 0.83999756566023809  5.6405868098544039 0.79944284549531075  5.5691869768182709 0.7548245395387464  5.4977871437821388 0.70637001224872509  5.4263873107460077 0.65432617684473038  5.3549874777098756 0.59895823676329862  5.283587644673748 0.54054833435708938  5.2121878116376106 0.47939411303329138  5.1407879786014847 0.41580720093140877  5.0693881455653482 0.35011162146506569  4.9979883125292206 0.28264214766306911  4.9265884794930868 0.21374257575511577  4.8551886464569538 0.14376404972541793  4.7837888134208244 0.073062986609705352  4.7361889247300697 0.02568787902332343  4.7123889803846932 0.0020000000000184315 
 0 4 0.071399833036131663 1 0.14279966607226333 1 0.21419949910839498 1 0.28559933214452665 1 0.35699916518065833 1 0.42839899821678995 1 0.49979883125292163 1 0.5711986642890533 1 0.64259849732518493 1 0.71399833036131666 1 0.78539816339744828 1 0.8567979964335799 1 0.92819782946971163 1 0.99959766250584325 1 1.070997495541975 1 1.1423973285781066 1 1.2137971616142382 1 1.2851969946503699 1 1.3565968276865017 1 1.4279966607226333 1 1.4993964937587649 1 1.5707963267948966 4
7 0 0  3 25 23  1.570796326794893 0.0020000000000184315  1.5469963824495161 0.025687879023323094  1.4993964937587623 0.073062986609704908  1.4279966607226313 0.14376404972541834  1.3565968276864979 0.21374257575511574  1.2851969946503672 0.28264214766306683  1.2137971616142367 0.35011162146506586  1.1423973285781022 0.41580720093140899  1.0709974955419717 0.47939411303329144  0.99959766250584003 0.54054833435708693  0.92819782946970975 0.5989582367632994  0.8567979964335789 0.65432617684472971  0.78539816339744817 0.70637001224872564  0.71399833036131377 0.75482453953874451  0.64259849732518282 0.79944284549530842  0.57119866428905153 0.83999756566023831  0.49979883125292002 0.87628204172456448  0.42839899821678762 0.90811137911777406  0.35699916518066127 0.93532337237399066  0.28559933214452388 0.95777939444456728  0.21419949910839264 0.97536486892113106  0.14279966607226138 0.98799072789439679  0.071399833036132232 0.99559060399760513  0.023799944345377987 0.9972857625996534  0 0.9972836162153238 
 4.7123889803846897 4 4.7837888134208217 1 4.8551886464569529 1 4.926588479493085 1 4.9979883125292162 1 5.0693881455653482 1 5.1407879786014794 1 5.2121878116376115 1 5.2835876446737426 1 5.3549874777098747 1 5.4263873107460068 1 5.497787143782138 1 5.5691869768182691 1 5.6405868098544012 1 5.7119866428905333 1 5.7833864759266644 1 5.8547863089627965 1 5.9261861419989277 1 5.9975859750350597 1 6.0689858080711918 1 6.140385641107323 1 6.2117854741434542 1 6.2831853071795862 4
1 0 7.1054273576010019e-15 1 -2.2617277734851675e-15 
1 0 6.6000000000000796 1 -2.2617277734851407e-15 
1 5.6222529042027869 3.5527136788005009e-15 0 1 
1 0 7.4432111760493864 1 2.2617277734851656e-15 
1 1.0658141036401503e-14 7.4432111760494006 1 -2.2617277734851829e-15 
Curves 127
1 -28.949999999999999 -10.8556294989375 -3.6101323663332003 -2.2820828834460699e-18 -0.99254615164132198 0.121869343405148 
1 -5.3304862615881801 -11.845479514307 -3.4885940668363302 -1 -3.06161699786839e-16 -8.9815158941355601e-32 
1 -24.899999999999999 -10.8556294989375 -3.6101323663331901 -2.2820828834460699e-18 -0.99254615164132198 0.121869343405148 
1 -24.525000000000002 -18.243360107579001 -2.7030331074822098 1 -2.2650725836909301e-18 2.7811594260169998e-19 
1 -24.150000000000002 -11.494046276418 -3.5317446426372099 3.0387961690339198e-16 -0.99254615164132198 0.121869343405148 
1 -5.3304862615881801 -22.809072405129101 -2.1424341278185199 1 2.2820828834462798e-18 3.7311725328826e-17 
1 -26.700000000000003 -22.809072405129101 -2.1424341278185199 3.0387961690339198e-16 -0.99254615164132198 0.121869343405148 
1 -5.3304862615881801 -29.359877005961799 -1.3380964613445501 1 2.2820828834462798e-18 3.7311725328826e-17 
1 -29.699999999999999 -11.494046276418 -3.5317446426372099 3.0387961690339198e-16 -0.99254615164132198 0.121869343405148 
1 -29.324999999999999 -18.243360107579001 -2.7030331074822098 1 -2.2650725836909301e-18 2.7811594260169998e-19 
1 -24.150000000000002 -10.7642274913837 -2.8657227526022098 -2.2820828834460699e-18 -0.99254615164132198 0.121869343405148 
1 -24.150000000000002 -8.6325000000000003 -1.6335794793504399 2.6514380968122689e-16 -0.86602540378443871 -0.49999999999999983 
1 -24.150000000000002 -6 -6.1932032302755102 -1.5308084989341896e-16 0.49999999999999983 -0.86602540378443871 
1 -24.150000000000002 -9.3675000000000015 0.55473893210634495 4.16976064437124e-32 1.2766210065849601e-47 1 
1 -24.150000000000002 -9.032202158064301 1.47 3.0616169978683802e-16 -1 0 
2 -24.150000000000002 -16.9986930650076 5.4600456469945104 1 3.0616169978683802e-16 -4.16976064437124e-32 -3.0616169978683802e-16 1 0 4.16976064437124e-32 1.2766210065849598e-47 1 6.5
1 -24.150000000000002 -22.379924470323502 1.47 3.0616169978683802e-16 -1 0 
1 -24.150000000000002 -22.629924470323502 0.39330435754710902 -4.16976064437124e-32 -1.2766210065849601e-47 -1 
1 -24.150000000000002 -23.450714498157101 -7.3681896162100893 3.7311725328826e-17 -0.121869343405148 -0.99254615164132198 
1 -24.150000000000002 -18.197659103802 -2.3308283006167101 3.8004314419571998e-34 0.121869343405148 0.99254615164132198 
1 -26.700000000000003 -22.629924470323502 -0.68339128490578294 3.0387961690339198e-16 -0.99254615164132198 0.121869343405148 
1 -24.148 -22.629924470323502 -0.68339128490578294 -1 -3.0616169978683802e-16 0 
1 -28.949999999999999 -22.629924470323502 -0.68339128490578205 3.0387961690339198e-16 -0.99254615164132198 0.121869343405148 
1 -5.3304862615881801 -29.1807290711562 0.120946381568194 1 2.2820828834462798e-18 3.7311725328826e-17 
1 -5.3304862615881898 3 0 1 0 0 
1 -29.699999999999999 3 1.47 0 0 -1 
1 -5.3304862615881898 3 1.47 1 0 0 
1 -14.699999999999999 3 1.47 0 0 -1 
1 -29.699999999999999 -5.1128847577293399 0.398471328218441 2.6514380968122689e-16 -0.86602540378443871 -0.49999999999999983 
1 -29.699999999999999 -10.7642274913837 -2.8657227526022098 -2.2820828834460699e-18 -0.99254615164132198 0.121869343405148 
1 -29.699999999999999 -18.197659103802 -2.3308283006167199 -9.5010786048929995e-35 -0.121869343405148 -0.99254615164132198 
1 -29.699999999999999 -29.1807290711562 0.120946381568193 3.7311725328826e-17 -0.121869343405148 -0.99254615164132198 
1 -29.699999999999999 -22.721326477877302 -1.4278008986367698 3.0387961690339198e-16 -0.99254615164132198 0.121869343405148 
1 -29.699999999999999 -22.629924470323502 -0.68339128490578394 3.7311725328826e-17 -0.121869343405148 -0.99254615164132198 
1 -29.699999999999999 -22.629924470323502 0.39330435754710902 0 0 -1 
1 -29.699999999999999 -22.379924470323502 1.47 3.0616169978683802e-16 -1 0 
2 -29.699999999999999 -16.9986930650076 5.4600456469945104 -1 -3.0616169978683802e-16 0 3.0616169978683802e-16 -1 0 0 0 1 6.5
1 -29.699999999999999 0.35480997757985999 1.47 3.06161699786839e-16 -1 0 
1 -29.699999999999999 0.35480997757985999 0 3.06161699786839e-16 -1 0 
1 -5.3304862615881898 -3 1.47 1 0 0 
1 -23.699999999999999 -3 0.73499999999999999 0 0 -1 
1 -5.3304862615881898 -3 0 1 0 0 
1 -14.699999999999999 -3 1.47 0 0 -1 
1 -14.699999999999999 -4.0756495306268299 0 6.1232339957367697e-17 -1 0 
1 -14.699999999999999 -4.5 1.47 0 0 -1 
1 -14.699999999999999 -4.0756495306268299 1.47 6.1232339957367697e-17 -1 0 
1 -5.3085032807663106 -4.5 0 1 0 0 
1 -4.5 -4.5 1.47 0 0 -1 
1 -5.3085032807663106 -4.5 1.47 1 0 0 
1 -2.02622673511505 -2.02622673511505 0 0.70710678118654702 0.70710678118654802 0 
1 -3.4242640687119201 -3.4242640687119299 1.47 0 0 -1 
1 -2.02622673511505 -2.02622673511505 1.47 0.70710678118654702 0.70710678118654802 0 
2 -3 -3.8485281374238598 1.47 0 0 1 0.70710678118654702 0.70710678118654802 -0 -0.70710678118654802 0.70710678118654702 0 0.59999999999999998
1 -2.5757359312880799 -3.4242640687119299 1.47 0 0 -1 
2 -3 -3.8485281374238598 0 0 0 1 0.70710678118654702 0.70710678118654802 -0 -0.70710678118654802 0.70710678118654702 0 0.59999999999999998
1 -0.52622673511505302 -5.47377326488495 0 0.70710678118654802 -0.70710678118654702 0 
1 -1.7121320343559701 -4.2878679656440406 1.47 0 0 -1 
1 -0.52622673511505302 -5.47377326488495 1.47 0.70710678118654802 -0.70710678118654702 0 
2 -1.5 -4.0757359312880697 0 0 0 1 -0.70710678118654702 -0.70710678118654802 0 0.70710678118654802 -0.70710678118654702 0 0.29999999999999999
1 -1.2878679656440302 -4.2878679656440406 1.47 0 0 -1 
2 -1.5 -4.0757359312880697 1.47 0 0 1 -0.70710678118654702 -0.70710678118654802 0 0.70710678118654802 -0.70710678118654702 0 0.29999999999999999
1 0.97377326488494698 -2.02622673511505 0 0.70710678118654702 0.70710678118654802 0 
1 0 -3 1.47 0 0 -1 
1 0.97377326488494698 -2.02622673511505 1.47 0.70710678118654702 0.70710678118654802 0 
1 11.25 -3 0 1 0 0 
1 30.900000000000002 -3 1.47 0 0 -1 
1 11.25 -3 1.47 1 0 0 
1 30.900000000000002 0 0 3.06161699786839e-16 -1 0 
1 30.900000000000002 1.5 1.47 0 0 -1 
1 30.900000000000002 0 1.47 3.06161699786839e-16 -1 0 
1 27.8262267351151 1.5 0 1 0 0 
1 23.400000000000002 1.5 1.47 0 0 -1 
1 27.8262267351151 1.5 1.47 1 0 0 
1 23.400000000000002 2.32715702592396 0 1.22464679914735e-16 -1 0 
1 23.400000000000002 3 1.47 0 0 -1 
1 23.400000000000002 2.32715702592396 1.47 1.22464679914735e-16 -1 0 
1 14.25 3 0 1 0 0 
1 0 3 1.47 0 0 -1 
1 14.25 3 1.47 1 0 0 
1 0.97377326488494897 2.0262267351150598 0 0.70710678118654802 -0.70710678118654702 0 
1 -1.2878679656440399 4.2878679656440406 1.47 0 0 -1 
1 0.97377326488494897 2.0262267351150598 1.47 0.70710678118654802 -0.70710678118654702 0 
2 -1.5 4.0757359312880697 0 0 0 1 0.70710678118654702 0.70710678118654802 -0 -0.70710678118654802 0.70710678118654702 0 0.29999999999999999
1 -1.7121320343559701 4.2878679656440406 1.47 0 0 -1 
2 -1.5 4.0757359312880697 1.47 0 0 1 0.70710678118654702 0.70710678118654802 -0 -0.70710678118654802 0.70710678118654702 0 0.29999999999999999
1 -0.52622673511505402 5.47377326488495 0 0.70710678118654702 0.70710678118654802 0 
1 -2.5757359312880701 3.4242640687119299 1.47 0 0 -1 
1 -0.52622673511505402 5.47377326488495 1.47 0.70710678118654702 0.70710678118654802 0 
2 -3 3.84852813742385 1.47 0 0 1 -0.70710678118654757 -0.70710678118654757 0 0.70710678118654757 -0.70710678118654757 0 0.59999999999999998
1 -3.4242640687119299 3.4242640687119299 1.47 0 0 -1 
2 -3 3.84852813742385 0 0 0 1 -0.70710678118654757 -0.70710678118654757 0 0.70710678118654757 -0.70710678118654757 0 0.59999999999999998
1 -2.06230250199091 2.06230250199091 0 0.70710678118654746 -0.70710678118654746 0 
1 -4.5 4.5 1.47 0 0 -1 
1 -2.06230250199091 2.06230250199091 1.47 0.70710678118654746 -0.70710678118654746 0 
1 -5.3085032807663106 4.5 0 1 0 0 
1 -14.699999999999999 4.5 1.47 0 0 -1 
1 -5.3085032807663106 4.5 1.47 1 0 0 
2 14.4 -1.83697019872099e-17 1.47 0 0 1 1 0 -0 -0 1 0 1.2
7 0 0  1 2 2  15.6 1.2858791391047247e-16 1.47  15.6 1.2858791391047247e-16 0 
 0 2 1.47 2
2 14.4 -1.83697019872099e-17 0 0 0 1 1 0 -0 -0 1 0 1.2
1 -14.699999999999999 3.9791392497718401 0 -1.8369701987210299e-16 1 0 
1 -14.699999999999999 3.9791392497718401 1.47 -1.8369701987210299e-16 1 0 
2 -26.700000000000003 0 1.47 0 0 1 1 0 -0 -0 1 0 1.2
7 0 0  1 2 2  -25.500000000000004 1.4695761589768238e-16 1.47  -25.500000000000004 1.4695761589768238e-16 0 
 0 2 1.47 2
2 -26.700000000000003 0 0 0 0 1 1 0 -0 -0 1 0 1.2
1 -23.698 -9.3675000000000015 1.47 -1 -3.0616169978683802e-16 4.16976064437124e-32 
1 -23.699999999999999 -3 1.47 3.0616169978683802e-16 -1 -2.1684043449710101e-16 
1 -24.148 -11.867461659691699 1.47 -1 -3.0616169978683802e-16 0 
1 -23.699999999999999 -3 0 3.0616169978683802e-16 -1 -2.1684043449710101e-16 
1 -5.3304862615881898 -5.8030573435631299 -6.0781617229851801e-16 -1 -3.06161699786839e-16 -7.5151982607724796e-32 
1 -23.699999999999999 -9.3675000000000015 0.55473893210634495 0 0 1 
1 -23.699999999999999 -9 -0.9970508075688731 -1.5308084989341896e-16 0.49999999999999983 -0.86602540378443871 
1 -23.699999999999999 -5.1128847577293399 0.39847132821844 2.6514380968122689e-16 -0.86602540378443871 -0.49999999999999983 
3 -28.949999999999999 -10.766212583687 -2.8654790139154001 -1.5308084989341898e-16 0.49999999999999989 -0.86602540378443882 -1.1821217178359496e-16 -0.86602540378443882 -0.49999999999999989 -1 2.5834318854413788e-17 1.9167799073241067e-16 1.2462301058418601 0.75
1 -5.3304862615881898 -8.6325000000000003 -1.6335794793504399 1 4.1017890105611499e-17 -1.5308084989341901e-16 
3 -24.899999999999999 -10.766212583687 -2.8654790139154001 -1.5308084989341898e-16 0.49999999999999989 -0.86602540378443882 -1.1821217178359496e-16 -0.86602540378443882 -0.49999999999999989 -1 2.5834318854413788e-17 1.9167799073241067e-16 1.2462301058418601 0.75
1 -5.3304862615881898 -9.3675000000000015 -0.36052213578731296 1 4.1017890105611499e-17 -1.5308084989341901e-16 
2 -28.949999999999999 -22.721326477877302 -1.4278008986367698 -2.2820828834460699e-18 -0.99254615164132198 0.121869343405148 0 -0.121869343405148 -0.99254615164132198 1 -2.2650725836909282e-18 2.7811594260169945e-19 0.75
1 -5.3304862615881801 -22.629924470323502 -0.68339128490578205 1 2.2820828834462798e-18 3.7311725328826e-17 
1 -26.700000000000003 -21.525005123754202 8.3154546485255487 3.7311725328826099e-17 -0.121869343405148 -0.99254615164132198 
1 -5.3304862615881801 -22.629924470323502 -0.68339128490578205 1 2.2820828834462798e-18 3.7311725328826e-17 
1 -26.700000000000003 -28.075809724587003 9.119792314999529 3.7311725328826099e-17 -0.121869343405148 -0.99254615164132198 
2 -28.949999999999999 -29.2721310787101 -0.62346323216279698 -2.2820828834460699e-18 -0.99254615164132198 0.121869343405148 0 -0.121869343405148 -0.99254615164132198 1 -2.2650725836909282e-18 2.7811594260169945e-19 0.75
1 -24.148 -22.629924470323502 1.47 -1 -3.0616169978683802e-16 0 
1 -24.148 -22.129924470323502 1.47 -1 -3.0616169978683802e-16 0 
2 -24.899999999999999 -18.151958100025197 -1.9586234937512101 -2.2820828834460699e-18 -0.99254615164132198 0.121869343405148 0 -0.121869343405148 -0.99254615164132198 1 -2.2650725836909282e-18 2.7811594260169945e-19 0.75
2 -28.949999999999999 -18.151958100025197 -1.9586234937512201 -2.2820828834460699e-18 -0.99254615164132198 0.121869343405148 0 -0.121869343405148 -0.99254615164132198 1 -2.2650725836909282e-18 2.7811594260169945e-19 0.75
Polygon3D 0
PolygonOnTriangulations 0
Surfaces 45
1 -5.3304862615881801 -11.494046276418 -3.5317446426372099 3.7311725328826e-17 -0.121869343405148 -0.99254615164132198 0 0.99254615164132198 -0.121869343405148 1 4.5471554671372543e-18 3.7033609386224287e-17 
2 -28.949999999999999 -10.7642274913837 -2.8657227526022098 -2.2820828834460699e-18 -0.99254615164132198 0.121869343405148 0 -0.121869343405148 -0.99254615164132198 1 -2.2650725836909282e-18 2.7811594260169945e-19 0.75
1 -5.3304862615881898 -5.1128847577293399 0.398471328218437 -1.5308084989341898e-16 0.49999999999999989 -0.86602540378443882 0 0.86602540378443882 0.49999999999999989 1 7.6540424946709468e-17 -1.3257190484061322e-16 
2 -24.899999999999999 -10.7642274913837 -2.8657227526022098 -2.2820828834460699e-18 -0.99254615164132198 0.121869343405148 0 -0.121869343405148 -0.99254615164132198 1 -2.2650725836909282e-18 2.7811594260169945e-19 0.75
1 -26.925000000000001 -18.197659103802 -2.3308283006167199 -2.2820828834460699e-18 -0.99254615164132198 0.121869343405148 1 -2.2650725836909282e-18 2.7811594260169974e-19 -2.8888949165808538e-34 0.121869343405148 0.99254615164132198 
1 -24.150000000000002 -6 -6.1932032302755102 1 3.0616169978683802e-16 -4.16976064437124e-32 -3.0616169978683802e-16 1 0 4.16976064437124e-32 1.2766210065849598e-47 1 
1 -26.700000000000003 -22.719498437726301 -1.4129127063621501 -2.2820828834460699e-18 -0.99254615164132198 0.121869343405148 1 2.0937945547859333e-17 1.89251533780522e-16 -1.9039257522224512e-16 0.121869343405148 0.99254615164132198 
1 -26.700000000000003 -21.525005123754202 8.3154546485255487 1 3.06161699786839e-16 -3.2828351324782399e-32 -3.06161699786839e-16 1 0 3.2828351324782399e-32 1.0050783842794907e-47 1 
1 -26.925000000000001 -29.270303038559 -0.60857503988817996 -2.2820828834460699e-18 -0.99254615164132198 0.121869343405148 1 -2.2650725836909282e-18 2.7811594260169974e-19 -2.8888949165808538e-34 0.121869343405148 0.99254615164132198 
1 -29.699999999999999 0.35480997757985999 1.47 1 3.0616169978683802e-16 0 -3.0616169978683802e-16 1 0 0 -0 1 
1 -26.925000000000001 -18.197659103802 -2.3308283006167199 -2.2820828834460699e-18 -0.99254615164132198 0.121869343405148 1 -2.2650725836909282e-18 2.7811594260169974e-19 -2.8888949165808538e-34 0.121869343405148 0.99254615164132198 
1 -22.199999999999999 -9 -0.99705080756887499 -4.1017890105611394e-17 -0.86602540378443882 -0.49999999999999989 1 4.1017890105611641e-17 -1.5308084989341894e-16 1.5308084989341901e-16 -0.49999999999999989 0.86602540378443882 
1 -23.698 -9.3675000000000015 0.55473893210634495 3.0616169978683802e-16 -1 0 1 3.0616169978683802e-16 0 -0 0 1 
1 -0.15000000000000399 0 1.47 0 0 1 1 0 -0 -0 1 0 
2 -24.148 -16.9986930650076 5.4600456469945104 -1 -3.0616169978683802e-16 0 3.0616169978683802e-16 -1 0 0 0 1 6.5
1 -24.148 -22.379924470323502 1.47 0 0 -1 -1 0 0 0 1 0 
1 -24.148 -22.629924470323502 0.39330435754710902 -3.0616169978683802e-16 1 0 -1 -3.0616169978683802e-16 0 0 0 1 
1 -5.3304862615881801 -11.3148983416124 -2.0727017997244701 -3.7311725328826e-17 0.121869343405148 0.99254615164132198 0 -0.99254615164132198 0.121869343405148 1 4.5471554671372543e-18 3.7033609386224287e-17 
2 -28.949999999999999 -22.721326477877302 -1.4278008986367698 3.0387961690339198e-16 -0.99254615164132198 0.121869343405148 0 -0.121869343405148 -0.99254615164132198 1 3.016145443197009e-16 -3.7033609386224293e-17 0.75
1 -5.3304862615881898 3 1.47 0 1 0 0 -0 1 1 0 -0 
1 -0.15000000000000399 0 0 0 0 1 1 0 -0 -0 1 0 
1 -14.699999999999999 3.9791392497718401 1.47 -1 -1.8369701987210299e-16 0 1.8369701987210299e-16 -1 0 0 0 1 
1 -26.700000000000003 -22.719498437726301 -1.4129127063621501 -2.2820828834460699e-18 -0.99254615164132198 0.121869343405148 1 2.0937945547859333e-17 1.89251533780522e-16 -1.9039257522224512e-16 0.121869343405148 0.99254615164132198 
1 -5.3304862615881898 -3 1.47 0 1 0 0 -0 1 1 0 -0 
1 -23.699999999999999 -3 0.73499999999999999 1 3.0616169978683802e-16 0 -3.0616169978683802e-16 1 0 0 -0 1 
1 -14.699999999999999 -4.0756495306268299 1.47 1 6.1232339957367697e-17 0 -6.1232339957367697e-17 1 0 0 -0 1 
1 -5.3085032807663106 -4.5 1.47 0 1 0 0 -0 1 1 0 -0 
1 -2.02622673511505 -2.02622673511505 1.47 -0.70710678118654802 0.70710678118654702 0 -0.70710678118654702 -0.70710678118654802 0 0 0 1 
2 -3 -3.8485281374238598 1.47 0 0 -1 -1 0 0 0 1 0 0.59999999999999998
1 -0.52622673511505302 -5.47377326488495 1.47 0.70710678118654702 0.70710678118654802 0 -0.70710678118654802 0.70710678118654702 0 0 -0 1 
2 -1.5 -4.0757359312880697 1.47 0 0 -1 -1 0 0 0 1 0 0.29999999999999999
1 0.97377326488494698 -2.02622673511505 1.47 -0.70710678118654802 0.70710678118654702 0 -0.70710678118654702 -0.70710678118654802 0 0 0 1 
1 11.25 -3 1.47 0 1 0 0 -0 1 1 0 -0 
1 30.900000000000002 0 1.47 1 3.0616169978683802e-16 0 -3.0616169978683802e-16 1 0 0 -0 1 
1 27.8262267351151 1.5 1.47 0 1 0 0 -0 1 1 0 -0 
1 23.400000000000002 2.32715702592396 1.47 1 1.22464679914735e-16 0 -1.22464679914735e-16 1 0 0 -0 1 
1 14.25 3 1.47 0 1 0 0 -0 1 1 0 -0 
1 0.97377326488494897 2.0262267351150598 1.47 0.70710678118654702 0.70710678118654802 0 -0.70710678118654802 0.70710678118654702 0 0 -0 1 
2 -1.5 4.0757359312880697 1.47 0 0 -1 -1 0 0 0 1 0 0.29999999999999999
1 -0.52622673511505402 5.47377326488495 1.47 -0.70710678118654802 0.70710678118654702 0 -0.70710678118654702 -0.70710678118654802 0 0 0 1 
2 -3 3.84852813742385 1.47 0 0 -1 -1 0 0 0 1 0 0.59999999999999998
1 -2.06230250199091 2.06230250199091 1.47 0.70710678118654702 0.70710678118654802 0 -0.70710678118654802 0.70710678118654702 0 0 -0 1 
1 -5.3085032807663106 4.5 1.47 0 1 0 0 -0 1 1 0 -0 
10 3.1415926535897931 9.4247779607693793 0 1.47
2 14.4 -1.83697019872099e-17 1.47 0 0 -1 -1 0 0 0 1 0 1.2
10 3.1415926535897931 9.4247779607693793 0 1.47
2 -26.700000000000003 0 1.47 0 0 -1 -1 0 0 0 1 0 1.2
Triangulations 0

TShapes 307
Ve
1e-07
-28.95 -11.845479514307 -3.48859406683633
0 0

0101101
*
Ve
1e-07
-28.95 -18.243360107579 -2.70303310748221
0 0

0101101
*
Ed
 1e-07 1 1 0
1  1 0 0.997283616215362 7.44321117604939
2  1 2 0 0.997283616215362 7.44321117604939
4 G1 1 0 2 0
0

0101000
+307 0 -306 0 *
Ve
1e-07
-24.9 -11.845479514307 -3.48859406683632
0 0

0101101
*
Ed
 1e-07 1 1 0
1  2 0 19.5695137384118 23.6195137384118
4 C0 1 0 3 0
0

0101000
+304 0 -307 0 *
Ve
1e-07
-24.9 -18.243360107579 -2.70303310748221
0 0

0101101
*
Ed
 1e-07 1 1 0
1  3 0 0.997283616215362 7.44321117604939
2  2 4 0 0.997283616215362 7.44321117604939
4 G1 1 0 4 0
0

0101000
+304 0 -302 0 *
Ve
1e-07
-24.15 -18.243360107579 -2.70303310748221
0 0

0101101
*
Ed
 1e-07 1 1 0
1  4 0 -0.374999999999996 0.375
4 C0 1 0 5 0
0

0101000
+302 0 -300 0 *
Ve
1e-07
-24.15 -22.8090724051291 -2.14243412781852
0 0

0101101
*
Ed
 1e-07 1 1 0
1  5 0 6.80000000000001 11.4
4 C0 1 0 6 0
0

0101000
+300 0 -298 0 *
Ve
1e-07
-26.7 -22.8090724051291 -2.14243412781852
0 0

0101101
*
Ed
 1e-07 1 1 0
1  6 0 -21.3695137384118 -18.8195137384118
4 C0 1 0 7 0
0

0101000
+296 0 -298 0 *
Ve
1e-07
-26.7 -29.3598770059618 -1.33809646134455
0 0

0101101
*
Ed
 1e-07 1 1 0
1  7 0 0 6.59999999999997
4 C0 1 0 8 0
0

0101000
+296 0 -294 0 *
Ve
1e-07
-29.7 -29.3598770059618 -1.33809646134455
0 0

0101101
*
Ed
 1e-07 1 1 0
1  8 0 -24.3695137384118 -21.3695137384118
4 C0 1 0 9 0
0

0101000
+292 0 -294 0 *
Ve
1e-07
-29.7 -18.243360107579 -2.70303310748221
0 0

0101101
*
Ed
 1e-07 1 1 0
1  9 0 6.80000000000001 18
4 C0 1 0 10 0
0

0101000
+290 0 -292 0 *
Ed
 1e-07 1 1 0
1  10 0 -0.375 0.375
4 C0 1 0 11 0
0

0101000
+290 0 -306 0 *
Wi

0101100
-305 0 -303 0 +301 0 +299 0 +297 0 -295 0 +293 0 -291 0 -289 0 +288 0 
*
Fa
0  1e-07 1 0

0111000
+287 0 *
Ve
1e-07
-24.15 -10.766212583687 -2.8654790139154
0 0

0101101
*
Ve
1e-07
-24.15 -18.1519581000252 -1.95862349375121
0 0

0101101
*
Ed
 1e-07 1 1 0
1  11 0 0.00200000000001761 7.44321117604939
2  3 4 0 0.00200000000001761 7.44321117604939
4 G1 6 0 4 0
0

0101000
+285 0 -284 0 *
Ve
1e-07
-24.15 -8.6325 -1.63357947935044
0 0

0101101
*
Ed
 1e-07 1 1 0
1  12 0 0 2.46379906912995
4 C0 6 0 3 0
0

0101000
+282 0 -285 0 *
Ve
1e-07
-24.15 -9.3675 -0.36052213578731
0 0

0101101
*
Ed
 1e-07 1 1 0
1  13 0 -6.73500000000001 -5.265
4 C0 6 0 12 0
0

0101000
+280 0 -282 0 *
Ve
1e-07
-24.15 -9.3675 1.47
0 0

0101101
*
Ed
 1e-07 1 1 0
1  14 0 -0.915261067893655 0.915261067893655
4 C0 6 0 13 0
0

0101000
+280 0 -278 0 *
Ve
1e-07
-24.15 -11.8674616596917 1.47
0 0

0101101
*
Ed
 1e-07 1 1 0
1  15 0 0.3352978419357 2.8352595016274
4 C0 6 0 14 0
0

0101000
+278 0 -276 0 *
Ve
1e-07
-24.15 -22.1299244703235 1.47
0 0

0101101
*
Ed
 1e-07 1 1 0
1  16 0 3.80252505656659 5.62225290420279
2  4 15 0 3.80252505656659 5.62225290420279
4 C0 6 0 15 0
0

0101000
+274 0 -276 0 *
Ve
1e-07
-24.15 -22.6299244703235 1.47
0 0

0101101
*
Ed
 1e-07 1 1 0
1  17 0 -0.25 0.25
4 C0 6 0 16 0
0

0101000
+274 0 -272 0 *
Ve
1e-07
-24.15 -22.6299244703235 -0.683391284905783
0 0

0101101
*
Ed
 1e-07 1 1 0
1  18 0 -1.07669564245289 1.07669564245289
4 C0 6 0 17 0
0

0101000
+272 0 -270 0 *
Ed
 1e-07 1 1 0
1  19 0 -6.73499999999999 -5.265
4 C0 6 0 7 0
0

0101000
+270 0 -298 0 *
Ed
 1e-07 1 1 0
1  20 0 -0.375000000000013 0.374999999999989
4 C0 6 0 5 0
0

0101000
+300 0 -284 0 *
Wi

0101100
-283 0 -281 0 -279 0 +277 0 +275 0 -273 0 +271 0 +269 0 +268 0 -297 0 
+267 0 *
Fa
0  1e-07 6 0

0111000
+266 0 *
Ve
1e-07
-26.7 -22.6299244703235 -0.683391284905783
0 0

0101101
*
Ve
1e-07
-26.7 -29.1807290711562 0.120946381568193
0 0

0101101
*
Ed
 1e-07 1 1 0
1  21 0 0 6.59999999999997
4 C0 18 0 8 0
0

0101000
+264 0 -263 0 *
Ve
1e-07
-28.95 -22.6299244703235 -0.683391284905782
0 0

0101101
*
Ed
 1e-07 1 1 0
1  22 0 2.552 4.802
4 C0 18 0 17 0
0

0101000
+264 0 -261 0 *
Ve
1e-07
-28.95 -29.1807290711562 0.120946381568193
0 0

0101101
*
Ed
 1e-07 1 1 0
1  23 0 0 6.59999999999997
2  5 19 0 0 6.59999999999997
4 G1 18 0 19 0
0

0101000
+261 0 -259 0 *
Ed
 1e-07 1 1 0
1  24 0 -23.6195137384118 -21.3695137384118
4 C0 18 0 9 0
0

0101000
+259 0 -263 0 *
Wi

0101100
-262 0 +260 0 +258 0 +257 0 *
Fa
0  1e-07 18 0

0111000
+256 0 *
Ve
1e-07
-29.7 3 0
0 0

0101101
*
Ve
1e-07
-14.7 3 0
0 0

0101101
*
Ed
 1e-07 1 1 0
1  25 0 -24.3695137384118 -9.36951373841181
4 C0 20 0 21 0
0

0101000
+254 0 -253 0 *
Ve
1e-07
-29.7 3 1.47
0 0

0101101
*
Ed
 1e-07 1 1 0
1  26 0 0 1.47
4 C0 20 0 10 0
0

0101000
+251 0 -254 0 *
Ve
1e-07
-14.7 3 1.47
0 0

0101101
*
Ed
 1e-07 1 1 0
1  27 0 -24.3695137384118 -9.36951373841181
4 C0 20 0 14 0
0

0101000
+251 0 -249 0 *
Ed
 1e-07 1 1 0
1  28 0 0 1.47
4 C0 20 0 22 0
0

0101000
+249 0 -253 0 *
Wi

0101100
-252 0 -250 0 +248 0 +247 0 *
Fa
0  1e-07 20 0

0111000
+246 0 *
Ve
1e-07
-29.7 -5.80305734356313 -8.63461718768242e-16
0 0

0101101
*
Ve
1e-07
-29.7 -10.766212583687 -2.8654790139154
0 0

0101101
*
Ed
 1e-07 1 1 0
1  29 0 0.796942656436879 6.52790068426771
4 C0 10 0 3 0
0

0101000
+244 0 -243 0 *
Ve
1e-07
-29.7 -18.1519581000252 -1.95862349375122
0 0

0101101
*
Ed
 1e-07 1 1 0
1  30 0 0.00200000000001761 7.44321117604939
2  6 2 0 0.00200000000001761 7.44321117604939
4 G1 10 0 2 0
0

0101000
+243 0 -241 0 *
Ed
 1e-07 1 1 0
1  31 0 -0.374999999999988 0.375000000000003
4 C0 10 0 11 0
0

0101000
+241 0 -290 0 *
Ve
1e-07
-29.7 -29.2721310787101 -0.623463232162798
0 0

0101101
*
Ed
 1e-07 1 1 0
1  32 0 0.750000000000004 1.47
4 C0 10 0 9 0
0

0101000
+238 0 -292 0 *
Ve
1e-07
-29.7 -22.7213264778773 -1.42780089863677
0 0

0101101
*
Ed
 1e-07 1 1 0
1  33 0 0 6.60000000000007
2  7 19 0 0 6.60000000000007
4 G1 10 0 19 0
0

0101000
+236 0 -238 0 *
Ve
1e-07
-29.7 -22.6299244703235 -0.683391284905783
0 0

0101101
*
Ed
 1e-07 1 1 0
1  34 0 -9.91752831499759e-16 0.749999999999987
4 C0 10 0 23 0
0

0101000
+234 0 -236 0 *
Ve
1e-07
-29.7 -22.6299244703235 1.47
0 0

0101101
*
Ed
 1e-07 1 1 0
1  35 0 -1.07669564245289 1.07669564245289
4 C0 10 0 17 0
0

0101000
+232 0 -234 0 *
Ve
1e-07
-29.7 -22.1299244703235 1.47
0 0

0101101
*
Ed
 1e-07 1 1 0
1  36 0 -0.25 0.25
4 C0 10 0 16 0
0

0101000
+230 0 -232 0 *
Ve
1e-07
-29.7 -11.8674616596917 1.47
0 0

0101101
*
Ed
 1e-07 1 1 0
1  37 0 3.80252505656659 5.62225290420279
2  8 15 0 3.80252505656659 5.62225290420279
4 C0 10 0 15 0
0

0101000
+228 0 -230 0 *
Ed
 1e-07 1 1 0
1  38 0 -2.64519002242014 12.2222716372716
4 C0 10 0 14 0
0

0101000
+251 0 -228 0 *
Ed
 1e-07 1 1 0
1  39 0 -2.64519002242014 6.15786732114299
4 C0 10 0 21 0
0

0101000
+254 0 -244 0 *
Wi

0101100
+242 0 +240 0 +239 0 +289 0 -237 0 -235 0 -233 0 -231 0 -229 0 -227 0 
-226 0 +250 0 +225 0 *
Fa
0  1e-07 10 0

0111000
-224 0 *
Ve
1e-07
-23.7 -3 1.47
0 0

0101101
*
Ve
1e-07
-14.7 -3 1.47
0 0

0101101
*
Ed
 1e-07 1 1 0
1  40 0 -18.3695137384118 -9.36951373841181
4 C0 24 0 14 0
0

0101000
+222 0 -221 0 *
Ve
1e-07
-23.7 -3 0
0 0

0101101
*
Ed
 1e-07 1 1 0
1  41 0 -0.735 0.735
4 C0 24 0 25 0
0

0101000
+222 0 -219 0 *
Ve
1e-07
-14.7 -3 0
0 0

0101101
*
Ed
 1e-07 1 1 0
1  42 0 -18.3695137384118 -9.36951373841181
4 C0 24 0 21 0
0

0101000
+219 0 -217 0 *
Ed
 1e-07 1 1 0
1  43 0 0 1.47
4 C0 24 0 26 0
0

0101000
+221 0 -217 0 *
Wi

0101100
-220 0 +218 0 +216 0 -215 0 *
Fa
0  1e-07 24 0

0111000
-214 0 *
Ve
1e-07
-14.7 -4.5 0
0 0

0101101
*
Ed
 1e-07 1 1 0
1  44 0 -1.07564953062683 0.42435046937317
4 C0 26 0 21 0
0

0101000
+217 0 -212 0 *
Ve
1e-07
-14.7 -4.5 1.47
0 0

0101101
*
Ed
 1e-07 1 1 0
1  45 0 0 1.47
4 C0 26 0 27 0
0

0101000
+210 0 -212 0 *
Ed
 1e-07 1 1 0
1  46 0 -1.07564953062683 0.42435046937317
4 C0 26 0 14 0
0

0101000
+221 0 -210 0 *
Wi

0101100
+211 0 -209 0 -208 0 +215 0 *
Fa
0  1e-07 26 0

0111000
-207 0 *
Ve
1e-07
-4.5 -4.5 0
0 0

0101101
*
Ed
 1e-07 1 1 0
1  47 0 -9.39149671923369 0.808503280766311
4 C0 27 0 21 0
0

0101000
+212 0 -205 0 *
Ve
1e-07
-4.5 -4.5 1.47
0 0

0101101
*
Ed
 1e-07 1 1 0
1  48 0 0 1.47
4 C0 27 0 28 0
0

0101000
+203 0 -205 0 *
Ed
 1e-07 1 1 0
1  49 0 -9.39149671923369 0.808503280766311
4 C0 27 0 14 0
0

0101000
+210 0 -203 0 *
Wi

0101100
+204 0 -202 0 -201 0 +209 0 *
Fa
0  1e-07 27 0

0111000
-200 0 *
Ve
1e-07
-3.42426406871192 -3.42426406871193 0
0 0

0101101
*
Ed
 1e-07 1 1 0
1  50 0 -3.49844370143627 -1.97712335787662
4 C0 28 0 21 0
0

0101000
+205 0 -198 0 *
Ve
1e-07
-3.42426406871192 -3.42426406871193 1.47
0 0

0101101
*
Ed
 1e-07 1 1 0
1  51 0 0 1.47
2  9 29 0 0 1.47
4 G1 28 0 29 0
0

0101000
+196 0 -198 0 *
Ed
 1e-07 1 1 0
1  52 0 -3.49844370143627 -1.97712335787662
4 C0 28 0 14 0
0

0101000
+203 0 -196 0 *
Wi

0101100
+197 0 -195 0 -194 0 +202 0 *
Fa
0  1e-07 28 0

0111000
-193 0 *
Ve
1e-07
-2.57573593128808 -3.42426406871193 1.47
0 0

0101101
*
Ed
 1e-07 1 1 0
1  53 0 0 1.57079632679488
2  10 29 0 0 1.57079632679488
4 C0 29 0 14 0
0

0101000
+191 0 -196 0 *
Ve
1e-07
-2.57573593128808 -3.42426406871193 0
0 0

0101101
*
Ed
 1e-07 1 1 0
1  54 0 0 1.47
2  11 29 0 0 1.47
4 G1 29 0 30 0
0

0101000
+191 0 -189 0 *
Ed
 1e-07 1 1 0
1  55 0 0 1.57079632679488
2  12 29 0 0 1.57079632679488
4 C0 29 0 21 0
0

0101000
+189 0 -198 0 *
Wi

0101100
-195 0 -190 0 +188 0 +187 0 *
Fa
0  1e-07 29 0

0111000
+186 0 *
Ve
1e-07
-1.71213203435597 -4.28786796564404 0
0 0

0101101
*
Ed
 1e-07 1 1 0
1  56 0 -2.89844370143627 -1.67712335787662
4 C0 30 0 21 0
0

0101000
+189 0 -184 0 *
Ve
1e-07
-1.71213203435597 -4.28786796564404 1.47
0 0

0101101
*
Ed
 1e-07 1 1 0
1  57 0 0 1.47
2  13 31 0 0 1.47
4 G1 30 0 31 0
0

0101000
+182 0 -184 0 *
Ed
 1e-07 1 1 0
1  58 0 -2.89844370143627 -1.67712335787662
4 C0 30 0 14 0
0

0101000
+191 0 -182 0 *
Wi

0101100
+183 0 -181 0 -180 0 +188 0 *
Fa
0  1e-07 30 0

0111000
-179 0 *
Ve
1e-07
-1.28786796564403 -4.28786796564404 0
0 0

0101101
*
Ed
 1e-07 1 1 0
1  59 0 0 1.57079632679489
2  14 31 0 0 1.57079632679489
4 C0 31 0 21 0
0

0101000
+184 0 -177 0 *
Ve
1e-07
-1.28786796564403 -4.28786796564404 1.47
0 0

0101101
*
Ed
 1e-07 1 1 0
1  60 0 0 1.47
2  15 31 0 0 1.47
4 G1 31 0 32 0
0

0101000
+175 0 -177 0 *
Ed
 1e-07 1 1 0
1  61 0 0 1.57079632679489
2  16 31 0 0 1.57079632679489
4 C0 31 0 14 0
0

0101000
+182 0 -175 0 *
Wi

0101100
+176 0 -174 0 -173 0 +181 0 *
Fa
0  1e-07 31 0

0111000
+172 0 *
Ve
1e-07
0 -3 0
0 0

0101101
*
Ed
 1e-07 1 1 0
1  62 0 -3.19844370143626 -1.37712335787662
4 C0 32 0 21 0
0

0101000
+177 0 -170 0 *
Ve
1e-07
0 -3 1.47
0 0

0101101
*
Ed
 1e-07 1 1 0
1  63 0 0 1.47
4 C0 32 0 33 0
0

0101000
+168 0 -170 0 *
Ed
 1e-07 1 1 0
1  64 0 -3.19844370143626 -1.37712335787662
4 C0 32 0 14 0
0

0101000
+175 0 -168 0 *
Wi

0101100
+169 0 -167 0 -166 0 +174 0 *
Fa
0  1e-07 32 0

0111000
-165 0 *
Ve
1e-07
30.9 -3 0
0 0

0101101
*
Ed
 1e-07 1 1 0
1  65 0 -11.25 19.65
4 C0 33 0 21 0
0

0101000
+170 0 -163 0 *
Ve
1e-07
30.9 -3 1.47
0 0

0101101
*
Ed
 1e-07 1 1 0
1  66 0 0 1.47
4 C0 33 0 34 0
0

0101000
+161 0 -163 0 *
Ed
 1e-07 1 1 0
1  67 0 -11.25 19.65
4 C0 33 0 14 0
0

0101000
+168 0 -161 0 *
Wi

0101100
+162 0 -160 0 -159 0 +167 0 *
Fa
0  1e-07 33 0

0111000
-158 0 *
Ve
1e-07
30.9 1.5 0
0 0

0101101
*
Ed
 1e-07 1 1 0
1  68 0 -1.5 3
4 C0 34 0 21 0
0

0101000
+156 0 -163 0 *
Ve
1e-07
30.9 1.5 1.47
0 0

0101101
*
Ed
 1e-07 1 1 0
1  69 0 0 1.47
4 C0 34 0 35 0
0

0101000
+154 0 -156 0 *
Ed
 1e-07 1 1 0
1  70 0 -1.5 3
4 C0 34 0 14 0
0

0101000
+154 0 -161 0 *
Wi

0101100
-155 0 -153 0 +152 0 +160 0 *
Fa
0  1e-07 34 0

0111000
+151 0 *
Ve
1e-07
23.4 1.5 0
0 0

0101101
*
Ed
 1e-07 1 1 0
1  71 0 -4.4262267351151 3.0737732648849
4 C0 35 0 21 0
0

0101000
+149 0 -156 0 *
Ve
1e-07
23.4 1.5 1.47
0 0

0101101
*
Ed
 1e-07 1 1 0
1  72 0 0 1.47
4 C0 35 0 36 0
0

0101000
+147 0 -149 0 *
Ed
 1e-07 1 1 0
1  73 0 -4.4262267351151 3.0737732648849
4 C0 35 0 14 0
0

0101000
+147 0 -154 0 *
Wi

0101100
-148 0 -146 0 +145 0 +153 0 *
Fa
0  1e-07 35 0

0111000
+144 0 *
Ve
1e-07
23.4 3 0
0 0

0101101
*
Ed
 1e-07 1 1 0
1  74 0 -0.67284297407604 0.82715702592396
4 C0 36 0 21 0
0

0101000
+142 0 -149 0 *
Ve
1e-07
23.4 3 1.47
0 0

0101101
*
Ed
 1e-07 1 1 0
1  75 0 0 1.47
4 C0 36 0 37 0
0

0101000
+140 0 -142 0 *
Ed
 1e-07 1 1 0
1  76 0 -0.67284297407604 0.82715702592396
4 C0 36 0 14 0
0

0101000
+140 0 -147 0 *
Wi

0101100
-141 0 -139 0 +138 0 +146 0 *
Fa
0  1e-07 36 0

0111000
+137 0 *
Ve
1e-07
0 3 0
0 0

0101101
*
Ed
 1e-07 1 1 0
1  77 0 -14.25 9.15
4 C0 37 0 21 0
0

0101000
+135 0 -142 0 *
Ve
1e-07
0 3 1.47
0 0

0101101
*
Ed
 1e-07 1 1 0
1  78 0 0 1.47
4 C0 37 0 38 0
0

0101000
+133 0 -135 0 *
Ed
 1e-07 1 1 0
1  79 0 -14.25 9.15
4 C0 37 0 14 0
0

0101000
+133 0 -140 0 *
Wi

0101100
-134 0 -132 0 +131 0 +139 0 *
Fa
0  1e-07 37 0

0111000
+130 0 *
Ve
1e-07
-1.28786796564404 4.28786796564404 0
0 0

0101101
*
Ed
 1e-07 1 1 0
1  80 0 -3.19844370143627 -1.37712335787662
4 C0 38 0 21 0
0

0101000
+128 0 -135 0 *
Ve
1e-07
-1.28786796564404 4.28786796564404 1.47
0 0

0101101
*
Ed
 1e-07 1 1 0
1  81 0 0 1.47
2  17 39 0 0 1.47
4 G1 38 0 39 0
0

0101000
+126 0 -128 0 *
Ed
 1e-07 1 1 0
1  82 0 -3.19844370143627 -1.37712335787662
4 C0 38 0 14 0
0

0101000
+126 0 -133 0 *
Wi

0101100
-127 0 -125 0 +124 0 +132 0 *
Fa
0  1e-07 38 0

0111000
+123 0 *
Ve
1e-07
-1.71213203435597 4.28786796564404 0
0 0

0101101
*
Ed
 1e-07 1 1 0
1  83 0 0 1.57079632679489
2  18 39 0 0 1.57079632679489
4 C0 39 0 21 0
0

0101000
+128 0 -121 0 *
Ve
1e-07
-1.71213203435597 4.28786796564404 1.47
0 0

0101101
*
Ed
 1e-07 1 1 0
1  84 0 0 1.47
2  19 39 0 0 1.47
4 G1 39 0 40 0
0

0101000
+119 0 -121 0 *
Ed
 1e-07 1 1 0
1  85 0 0 1.57079632679489
2  20 39 0 0 1.57079632679489
4 C0 39 0 14 0
0

0101000
+126 0 -119 0 *
Wi

0101100
+120 0 -118 0 -117 0 +125 0 *
Fa
0  1e-07 39 0

0111000
+116 0 *
Ve
1e-07
-2.57573593128807 3.42426406871193 0
0 0

0101101
*
Ed
 1e-07 1 1 0
1  86 0 -2.89844370143626 -1.67712335787662
4 C0 40 0 21 0
0

0101000
+114 0 -121 0 *
Ve
1e-07
-2.57573593128807 3.42426406871193 1.47
0 0

0101101
*
Ed
 1e-07 1 1 0
1  87 0 0 1.47
2  21 41 0 0 1.47
4 G1 40 0 41 0
0

0101000
+112 0 -114 0 *
Ed
 1e-07 1 1 0
1  88 0 -2.89844370143626 -1.67712335787662
4 C0 40 0 14 0
0

0101000
+112 0 -119 0 *
Wi

0101100
-113 0 -111 0 +110 0 +118 0 *
Fa
0  1e-07 40 0

0111000
+109 0 *
Ve
1e-07
-3.42426406871193 3.42426406871193 1.47
0 0

0101101
*
Ed
 1e-07 1 1 0
1  89 0 0 1.57079632679491
2  22 41 0 0 1.57079632679491
4 C0 41 0 14 0
0

0101000
+107 0 -112 0 *
Ve
1e-07
-3.42426406871193 3.42426406871193 0
0 0

0101101
*
Ed
 1e-07 1 1 0
1  90 0 0 1.47
2  23 41 0 0 1.47
4 G1 41 0 42 0
0

0101000
+107 0 -105 0 *
Ed
 1e-07 1 1 0
1  91 0 0 1.57079632679491
2  24 41 0 0 1.57079632679491
4 C0 41 0 21 0
0

0101000
+105 0 -114 0 *
Wi

0101100
-111 0 -106 0 +104 0 +103 0 *
Fa
0  1e-07 41 0

0111000
+102 0 *
Ve
1e-07
-4.5 4.5 0
0 0

0101101
*
Ed
 1e-07 1 1 0
1  92 0 -3.44742486264742 -1.92610451908778
4 C0 42 0 21 0
0

0101000
+100 0 -105 0 *
Ve
1e-07
-4.5 4.5 1.47
0 0

0101101
*
Ed
 1e-07 1 1 0
1  93 0 0 1.47
4 C0 42 0 43 0
0

0101000
+98 0 -100 0 *
Ed
 1e-07 1 1 0
1  94 0 -3.44742486264742 -1.92610451908778
4 C0 42 0 14 0
0

0101000
+98 0 -107 0 *
Wi

0101100
-99 0 -97 0 +96 0 +104 0 *
Fa
0  1e-07 42 0

0111000
+95 0 *
Ve
1e-07
-14.7 4.5 0
0 0

0101101
*
Ed
 1e-07 1 1 0
1  95 0 -9.39149671923369 0.808503280766311
4 C0 43 0 21 0
0

0101000
+93 0 -100 0 *
Ve
1e-07
-14.7 4.5 1.47
0 0

0101101
*
Ed
 1e-07 1 1 0
1  96 0 0 1.47
4 C0 43 0 22 0
0

0101000
+91 0 -93 0 *
Ed
 1e-07 1 1 0
1  97 0 -9.39149671923369 0.808503280766311
4 C0 43 0 14 0
0

0101000
+91 0 -98 0 *
Wi

0101100
-92 0 -90 0 +89 0 +97 0 *
Fa
0  1e-07 43 0

0111000
+88 0 *
Ve
1e-05
15.6 -1.83697019872099e-17 1.47
0 0

0101101
*
Ed
 1e-07 1 1 0
1  98 0 0 6.28318530717959
2  25 44 0 0 6.28318530717959
4 C0 44 0 14 0
0

0101000
-86 0 +86 0 *
Ve
1e-05
15.6 -1.83697019872099e-17 0
0 0

0101101
*
Ed
 1e-05 1 1 0
1  99 0 0 1.47
3  26 27CN 44 0 0 1.47
0

0101000
+86 0 -84 0 *
Ed
 1e-07 1 1 0
1  100 0 0 6.28318530717959
2  28 44 0 0 6.28318530717959
4 C0 44 0 21 0
0

0101000
+84 0 -84 0 *
Wi

0101100
-85 0 +83 0 +82 0 -83 0 *
Fa
0  1e-07 44 0

0111000
+81 0 *
Ed
 1e-07 1 1 0
1  101 0 -0.97913924977184 0.52086075022816
4 C0 22 0 21 0
0

0101000
+253 0 -93 0 *
Ed
 1e-07 1 1 0
1  102 0 -0.97913924977184 0.52086075022816
4 C0 22 0 14 0
0

0101000
+249 0 -91 0 *
Wi

0101100
-79 0 -247 0 +78 0 +90 0 *
Fa
0  1e-07 22 0

0111000
+77 0 *
Ve
1e-05
-25.5 0 1.47
0 0

0101101
*
Ed
 1e-07 1 1 0
1  103 0 0 6.28318530717959
2  29 45 0 0 6.28318530717959
4 C0 45 0 14 0
0

0101000
-75 0 +75 0 *
Ve
1e-05
-25.5 0 0
0 0

0101101
*
Ed
 1e-05 1 1 0
1  104 0 0 1.47
3  30 31CN 45 0 0 1.47
0

0101000
+75 0 -73 0 *
Ed
 1e-07 1 1 0
1  105 0 0 6.28318530717959
2  32 45 0 0 6.28318530717959
4 C0 45 0 21 0
0

0101000
+73 0 -73 0 *
Wi

0101100
-74 0 +72 0 +71 0 -72 0 *
Fa
0  1e-07 45 0

0111000
+70 0 *
Ve
1e-07
-23.7 -9.3675 1.47
0 0

0101101
*
Ed
 1e-07 1 1 0
1  106 0 0.00199999999999889 0.452000000000002
4 C0 14 0 13 0
0

0101000
+68 0 -278 0 *
Ed
 1e-07 1 1 0
1  107 0 0 6.3675
4 C0 14 0 25 0
0

0101000
+222 0 -68 0 *
Ed
 1e-07 1 1 0
1  108 0 0.00200000000000244 5.552
2  33 15 0 0.00200000000000244 5.552
4 C0 14 0 15 0
0

0101000
+276 0 -228 0 *
Wi

0101100
-67 0 -66 0 +220 0 +208 0 +201 0 +194 0 -190 0 +180 0 +173 0 +166 0 
+159 0 -152 0 -145 0 -138 0 -131 0 -124 0 +117 0 -110 0 -106 0 -96 0 
-89 0 -78 0 -248 0 +226 0 -65 0 -275 0 *
Wi

0101100
-85 0 *
Wi

0101100
-74 0 *
Fa
0  1e-07 14 0

0111000
+64 0 +63 0 +62 0 *
Ve
1e-07
-23.7 -5.80305734356313 -1.10041918576263e-15
0 0

0101101
*
Ed
 1e-07 1 1 0
1  109 0 0 2.80305734356313
4 C0 21 0 25 0
0

0101000
+219 0 -60 0 *
Ed
 1e-07 1 1 0
1  110 0 18.3695137384118 24.3695137384118
4 C0 21 0 3 0
0

0101000
+60 0 -244 0 *
Wi

0101100
+252 0 +79 0 +92 0 +99 0 +103 0 +113 0 -120 0 +127 0 +134 0 +141 0 
+148 0 +155 0 -162 0 -169 0 -176 0 -183 0 +187 0 -197 0 -204 0 -211 0 
-216 0 +59 0 +58 0 -225 0 *
Wi

0101100
+82 0 *
Wi

0101100
+71 0 *
Fa
0  1e-07 21 0

0111000
-57 0 -56 0 -55 0 *
Ve
1e-07
-23.7 -9.3675 -0.36052213578731
0 0

0101101
*
Ed
 1e-07 1 1 0
1  111 0 -0.915261067893655 0.915261067893655
4 C0 25 0 13 0
0

0101000
+53 0 -68 0 *
Ve
1e-07
-23.7 -8.6325 -1.63357947935044
0 0

0101101
*
Ed
 1e-07 1 1 0
1  112 0 -0.735000000000001 0.735000000000004
4 C0 25 0 12 0
0

0101000
+53 0 -51 0 *
Ed
 1e-07 1 1 0
1  113 0 0.796942656436879 4.06410161513775
4 C0 25 0 3 0
0

0101000
+60 0 -51 0 *
Wi

0101100
+66 0 -52 0 +50 0 -49 0 -59 0 -218 0 *
Fa
0  1e-07 25 0

0111000
+48 0 *
Ed
 1e-07 1 1 0
1  114 0 0 1.5707963267949
2  34 2 0 0 1.5707963267949
4 C0 3 0 2 0
0

0101000
+307 0 -243 0 *
Ed
 1e-07 1 1 0
1  115 0 -18.8195137384118 -18.3695137384118
4 C0 3 0 12 0
0

0101000
+282 0 -51 0 *
Ed
 1e-07 1 1 0
1  116 0 4.71238898038469 6.28318530717959
2  35 4 0 4.71238898038469 6.28318530717959
4 C0 3 0 4 0
0

0101000
+285 0 -304 0 *
Wi

0101100
+46 0 -242 0 -58 0 +49 0 -45 0 +281 0 +44 0 +303 0 *
Fa
0  1e-07 3 0

0111000
+43 0 *
Ed
 1e-07 1 1 0
1  117 0 -18.8195137384118 -18.3695137384118
4 C0 12 0 13 0
0

0101000
+280 0 -53 0 *
Wi

0101100
+279 0 +45 0 -50 0 -41 0 *
Fa
0  1e-07 12 0

0111000
+40 0 *
Ed
 1e-07 1 1 0
1  118 0 3.14159265358979 4.71238898038469
2  36 19 0 3.14159265358979 4.71238898038469
4 C0 23 0 19 0
0

0101000
+261 0 -236 0 *
Ed
 1e-07 1 1 0
1  119 0 -24.3695137384118 -23.6195137384118
4 C0 23 0 17 0
0

0101000
+234 0 -261 0 *
Wi

0101100
+233 0 -38 0 -37 0 *
Fa
0  1e-07 23 0

0111000
+36 0 *
Ed
 1e-07 1 1 0
1  120 0 9.06642569572247 10.5364256957225
4 C0 7 0 8 0
0

0101000
+264 0 -296 0 *
Ed
 1e-07 1 1 0
1  121 0 -21.3695137384118 -18.8195137384118
4 C0 7 0 17 0
0

0101000
+264 0 -270 0 *
Wi

0101100
+34 0 +295 0 -268 0 -33 0 *
Fa
0  1e-07 7 0

0111000
+32 0 *
Ed
 1e-07 1 1 0
1  122 0 9.06642569572247 10.5364256957225
4 C0 8 0 9 0
0

0101000
+263 0 -294 0 *
Wi

0101100
+262 0 +30 0 -293 0 -34 0 *
Fa
0  1e-07 8 0

0111000
+29 0 *
Ed
 1e-07 1 1 0
1  123 0 3.14159265358979 4.71238898038469
2  37 19 0 3.14159265358979 4.71238898038469
4 C0 9 0 19 0
0

0101000
+259 0 -238 0 *
Wi

0101100
-257 0 +27 0 +237 0 +291 0 -30 0 *
Fa
0  1e-07 9 0

0111000
+26 0 *
Wi

0101100
+38 0 +235 0 -27 0 -258 0 *
Fa
0  1e-07 19 0

0111000
+24 0 *
Ed
 1e-07 1 1 0
1  124 0 0.00200000000000244 5.552
4 C0 17 0 16 0
0

0101000
+272 0 -232 0 *
Wi

0101100
-269 0 +22 0 +231 0 +37 0 -260 0 +33 0 *
Fa
0  1e-07 17 0

0111000
-21 0 *
Ed
 1e-07 1 1 0
1  125 0 0.00200000000000244 5.552
2  38 15 0 0.00200000000000244 5.552
4 C0 16 0 15 0
0

0101000
+274 0 -230 0 *
Wi

0101100
-271 0 +19 0 +229 0 -22 0 *
Fa
0  1e-07 16 0

0111000
-18 0 *
Wi

0101100
+19 0 -227 0 -65 0 -273 0 *
Fa
0  1e-07 15 0

0111000
+16 0 *
Wi

0101100
+41 0 +52 0 +67 0 -277 0 *
Fa
0  1e-07 13 0

0111000
+14 0 *
Ed
 1e-07 1 1 0
1  126 0 0 1.5707963267949
2  39 4 0 0 1.5707963267949
4 C0 5 0 4 0
0

0101000
+302 0 -284 0 *
Wi

0101100
+12 0 -267 0 -299 0 *
Fa
0  1e-07 5 0

0111000
-11 0 *
Wi

0101100
-44 0 +283 0 -12 0 -301 0 *
Fa
0  1e-07 4 0

0111000
+9 0 *
Ed
 1e-07 1 1 0
1  127 0 4.71238898038469 6.28318530717959
2  40 2 0 4.71238898038469 6.28318530717959
4 C0 11 0 2 0
0

0101000
+241 0 -306 0 *
Wi

0101100
+7 0 -288 0 -239 0 *
Fa
0  1e-07 11 0

0111000
-6 0 *
Wi

0101100
-46 0 +305 0 -7 0 -240 0 *
Fa
0  1e-07 2 0

0111000
+4 0 *
Sh

0101100
+286 0 +265 0 +255 0 +245 0 -223 0 -213 0 -206 0 -199 0 -192 0 -185 0 
-178 0 +171 0 -164 0 -157 0 +150 0 +143 0 +136 0 +129 0 +122 0 +115 0 
+108 0 -101 0 +94 0 +87 0 -80 0 +76 0 -69 0 +61 0 -54 0 +47 0 
+42 0 +39 0 +35 0 +31 0 +28 0 +25 0 +23 0 -20 0 -17 0 -15 0 
+13 0 -10 0 +8 0 -5 0 +3 0 *
So

0100000
+2 0 *

+1 3 