DBRep_DrawableShape

CASCADE Topology V3, (c) Open Cascade
Locations 1
1
              1               0               0               0 
              0               1               0               0 
              0               0               1            57.6 
Curve2ds 24
1 1.4156289629412599 0 0 1 
1 7.6253277323153998 0 0 1 
1 1.4156289629412599 1.95 -1 0 
1 1.0680678875564698 0 0 1 
1 1.4156289629412599 0 -1 0 
1 7.2953810686316816 0 0 1 
1 7.2953810686316825 1.95 -1 0 
1 2.1293968921376978 0 0 1 
1 7.2953810686316825 0 -1 0 
1 2.0735247660333234 0 0 1 
1 2.0735247660333238 1.95 -1 0 
1 1.7259636906485332 0 0 1 
1 2.0735247660333238 0 -1 0 
1 1.7994502284539791 0 0 1 
1 9.4247779607693793 0 -1 0 
1 9.4247779607693793 0 0 1 
1 3.1415926535897931 0 0 1 
1 9.4247779607693793 1.95 -1 0 
1 9.4247779607693793 0 -1 0 
1 9.4247779607693793 0 0 1 
1 3.1415926535897931 0 0 1 
1 9.4247779607693793 1.95 -1 0 
1 7.6253277323153998 0 -1 0 
1 7.6253277323153998 1.95 -1 0 
Curves 30
1 -2.5500000000000003 14.842756757161201 0 0 -1 0 
1 -2.5500000000000003 16.301763708261699 1.95 0 0 -1 
1 -2.5500000000000003 14.842756757161201 1.95 0 -1 0 
1 -2.5500000000000003 10.957189420649801 1.95 0 0 -1 
2 0 0 0 0 0 1 -0.15454545454545501 0.98798567928859105 0 -0.98798567928859105 -0.15454545454545501 0 16.5
1 -7.9500000000000002 14.4584750233211 1.95 0 0 -1 
2 0 0 1.95 0 0 1 -0.15454545454545501 0.98798567928859105 0 -0.98798567928859105 -0.15454545454545501 0 16.5
1 -7.9500000000000002 12.8690353873062 0 0 -1 0 
1 -7.9500000000000002 11.8199646225923 1.95 0 0 -1 
1 -7.9500000000000002 12.8690353873062 1.95 0 -1 0 
2 3.1992362824799497e-17 -0.90000000000000002 0 0 0 1 -0.53000000000000014 0.8479976415061542 0 -0.8479976415061542 -0.53000000000000014 0 15
1 7.9500000000000002 11.8199646225923 1.95 0 0 -1 
2 3.1992362824799497e-17 -0.90000000000000002 1.95 0 0 1 -0.53000000000000014 0.8479976415061542 0 -0.8479976415061542 -0.53000000000000014 0 15
1 7.9500000000000002 13.008078013014899 0 0 -1 0 
1 7.9500000000000002 14.4584750233211 1.95 0 0 -1 
1 7.9500000000000002 13.008078013014899 1.95 0 -1 0 
2 0 0 0 0 0 1 0.48181818181818198 0.87627121353461201 -0 -0.87627121353461201 0.48181818181818198 0 16.5
1 2.5500000000000003 16.301763708261699 1.95 0 0 -1 
2 0 0 1.95 0 0 1 0.48181818181818198 0.87627121353461201 -0 -0.87627121353461201 0.48181818181818198 0 16.5
1 2.5500000000000003 14.9380719653205 0 0 -1 0 
1 2.5500000000000003 10.957189420649801 1.95 0 0 -1 
1 2.5500000000000003 14.9380719653205 1.95 0 -1 0 
2 -5.1585912276120798 13.1850607576398 1.95 0 0 1 1 0 -0 -0 1 0 1.425
7 0 0  1 2 2  -3.73359122761208 13.1850607576398 1.95  -3.73359122761208 13.1850607576398 0 
 0 2 1.95 2
2 -5.1585912276120798 13.1850607576398 0 0 0 1 1 0 -0 -0 1 0 1.425
2 5.1585912276120798 13.1850607576398 1.95 0 0 1 1 0 -0 -0 1 0 1.425
7 0 0  1 2 2  6.5835912276120796 13.1850607576398 1.95  6.5835912276120796 13.1850607576398 0 
 0 2 1.95 2
2 5.1585912276120798 13.1850607576398 0 0 0 1 1 0 -0 -0 1 0 1.425
2 0 0 1.95 0 0 1 -0.22666666666666707 0.97397239294664928 0 -0.97397239294664928 -0.22666666666666707 0 11.25
2 0 0 0 0 0 1 -0.22666666666666707 0.97397239294664928 0 -0.97397239294664928 -0.22666666666666707 0 11.25
Polygon3D 0
PolygonOnTriangulations 0
Surfaces 12
1 -2.5500000000000003 14.842756757161201 1.95 1 0 0 0 0 -1 -0 1 0 
1 0 0.200881854130882 0 0 0 1 1 0 -0 -0 1 0 
2 0 0 1.95 0 0 -1 -1 0 0 0 1 0 16.5
1 0 0.200881854130882 1.95 0 0 1 1 0 -0 -0 1 0 
2 0 0 1.95 0 0 -1 -1 0 0 0 1 0 11.25
1 -7.9500000000000002 12.8690353873062 1.95 1 0 0 0 0 -1 -0 1 0 
2 3.1992362824799497e-17 -0.90000000000000002 1.95 0 0 -1 -1 0 0 0 1 0 15
1 7.9500000000000002 13.008078013014899 1.95 1 0 0 0 0 -1 -0 1 0 
2 0 0 1.95 0 0 -1 -1 0 0 0 1 0 16.5
1 2.5500000000000003 14.9380719653205 1.95 1 0 0 0 0 -1 -0 1 0 
10 3.1415926535897931 9.4247779607693793 0 1.95
2 -5.1585912276120798 13.1850607576398 1.95 0 0 -1 -1 0 0 0 1 0 1.425
10 3.1415926535897931 9.4247779607693793 0 1.95
2 5.1585912276120798 13.1850607576398 1.95 0 0 -1 -1 0 0 0 1 0 1.425
Triangulations 0

TShapes 80
Ve
1e-07
-2.55 16.3017637082617 0
0 0

0101101
*
Ve
1e-07
-2.55 10.9571894206498 0
0 0

0101101
*
Ed
 1e-07 1 1 0
1  1 0 -1.4590069511005 3.8855673365114
4 C0 1 0 2 0
0

0101000
+80 0 -79 0 *
Ve
1e-07
-2.55 16.3017637082617 1.95
0 0

0101101
*
Ed
 1e-07 1 1 0
1  2 0 0 1.95
2  1 3 0 0 1.95
4 C0 1 0 3 0
0

0101000
+77 0 -80 0 *
Ve
1e-07
-2.55 10.9571894206498 1.95
0 0

0101101
*
Ed
 1e-07 1 1 0
1  3 0 -1.4590069511005 3.8855673365114
4 C0 1 0 4 0
0

0101000
+77 0 -75 0 *
Ed
 1e-07 1 1 0
1  4 0 0 1.95
2  2 5 0 0 1.95
4 C0 1 0 5 0
0

0101000
+75 0 -79 0 *
Wi

0101100
-78 0 -76 0 +74 0 +73 0 *
Fa
0  1e-07 1 0

0111000
+72 0 *
Ve
1e-07
-7.95 14.4584750233211 0
0 0

0101101
*
Ed
 1e-07 1 1 0
1  5 0 0 0.34756107538479
2  3 3 0 0 0.34756107538479
4 C0 3 0 2 0
0

0101000
+80 0 -70 0 *
Ve
1e-07
-7.95 14.4584750233211 1.95
0 0

0101101
*
Ed
 1e-07 1 1 0
1  6 0 0 1.95
2  4 3 0 0 1.95
4 C0 3 0 6 0
0

0101000
+68 0 -70 0 *
Ed
 1e-07 1 1 0
1  7 0 0 0.34756107538479
2  5 3 0 0 0.34756107538479
4 C0 3 0 4 0
0

0101000
+77 0 -68 0 *
Wi

0101100
+69 0 -67 0 -66 0 +76 0 *
Fa
0  1e-07 3 0

0111000
+65 0 *
Ve
1e-07
-7.95 11.8199646225923 0
0 0

0101101
*
Ed
 1e-07 1 1 0
1  8 0 -1.5894396360149 1.0490707647139
4 C0 6 0 2 0
0

0101000
+70 0 -63 0 *
Ve
1e-07
-7.95 11.8199646225923 1.95
0 0

0101101
*
Ed
 1e-07 1 1 0
1  9 0 0 1.95
2  6 7 0 0 1.95
4 C0 6 0 7 0
0

0101000
+61 0 -63 0 *
Ed
 1e-07 1 1 0
1  10 0 -1.5894396360149 1.0490707647139
4 C0 6 0 4 0
0

0101000
+68 0 -61 0 *
Wi

0101100
+62 0 -60 0 -59 0 +67 0 *
Fa
0  1e-07 6 0

0111000
-58 0 *
Ve
1e-07
7.95 11.8199646225923 0
0 0

0101101
*
Ed
 1e-07 1 1 0
1  11 0 0 5.16598417649398
2  7 7 0 0 5.16598417649398
4 C0 7 0 2 0
0

0101000
+63 0 -56 0 *
Ve
1e-07
7.95 11.8199646225923 1.95
0 0

0101101
*
Ed
 1e-07 1 1 0
1  12 0 0 1.95
2  8 7 0 0 1.95
4 C0 7 0 8 0
0

0101000
+54 0 -56 0 *
Ed
 1e-07 1 1 0
1  13 0 0 5.16598417649398
2  9 7 0 0 5.16598417649398
4 C0 7 0 4 0
0

0101000
+61 0 -54 0 *
Wi

0101100
+55 0 -53 0 -52 0 +60 0 *
Fa
0  1e-07 7 0

0111000
+51 0 *
Ve
1e-07
7.95 14.4584750233211 0
0 0

0101101
*
Ed
 1e-07 1 1 0
1  14 0 -1.4503970103062 1.1881133904226
4 C0 8 0 2 0
0

0101000
+49 0 -56 0 *
Ve
1e-07
7.95 14.4584750233211 1.95
0 0

0101101
*
Ed
 1e-07 1 1 0
1  15 0 0 1.95
2  10 9 0 0 1.95
4 C0 8 0 9 0
0

0101000
+47 0 -49 0 *
Ed
 1e-07 1 1 0
1  16 0 -1.4503970103062 1.1881133904226
4 C0 8 0 4 0
0

0101000
+47 0 -54 0 *
Wi

0101100
-48 0 -46 0 +45 0 +53 0 *
Fa
0  1e-07 8 0

0111000
+44 0 *
Ve
1e-07
2.55 16.3017637082617 0
0 0

0101101
*
Ed
 1e-07 1 1 0
1  17 0 0 0.34756107538479
2  11 9 0 0 0.34756107538479
4 C0 9 0 2 0
0

0101000
+49 0 -42 0 *
Ve
1e-07
2.55 16.3017637082617 1.95
0 0

0101101
*
Ed
 1e-07 1 1 0
1  18 0 0 1.95
2  12 9 0 0 1.95
4 C0 9 0 10 0
0

0101000
+40 0 -42 0 *
Ed
 1e-07 1 1 0
1  19 0 0 0.34756107538479
2  13 9 0 0 0.34756107538479
4 C0 9 0 4 0
0

0101000
+47 0 -40 0 *
Wi

0101100
+41 0 -39 0 -38 0 +46 0 *
Fa
0  1e-07 9 0

0111000
+37 0 *
Ve
1e-07
2.55 10.9571894206498 0
0 0

0101101
*
Ed
 1e-07 1 1 0
1  20 0 -1.3636917429412 3.9808825446707
4 C0 10 0 2 0
0

0101000
+42 0 -35 0 *
Ve
1e-07
2.55 10.9571894206498 1.95
0 0

0101101
*
Ed
 1e-07 1 1 0
1  21 0 0 1.95
2  14 5 0 0 1.95
4 C0 10 0 5 0
0

0101000
+33 0 -35 0 *
Ed
 1e-07 1 1 0
1  22 0 -1.3636917429412 3.9808825446707
4 C0 10 0 4 0
0

0101000
+40 0 -33 0 *
Wi

0101100
+34 0 -32 0 -31 0 +39 0 *
Fa
0  1e-07 10 0

0111000
-30 0 *
Ve
1e-05
-3.73359122761208 13.1850607576398 1.95
0 0

0101101
*
Ed
 1e-07 1 1 0
1  23 0 0 6.28318530717959
2  15 11 0 0 6.28318530717959
4 C0 11 0 4 0
0

0101000
-28 0 +28 0 *
Ve
1e-05
-3.73359122761208 13.1850607576398 0
0 0

0101101
*
Ed
 1e-05 1 1 0
1  24 0 0 1.95
3  16 17CN 11 0 0 1.95
0

0101000
+28 0 -26 0 *
Ed
 1e-07 1 1 0
1  25 0 0 6.28318530717959
2  18 11 0 0 6.28318530717959
4 C0 11 0 2 0
0

0101000
+26 0 -26 0 *
Wi

0101100
-27 0 +25 0 +24 0 -25 0 *
Fa
0  1e-07 11 0

0111000
+23 0 *
Ve
1e-05
6.58359122761208 13.1850607576398 1.95
0 0

0101101
*
Ed
 1e-07 1 1 0
1  26 0 0 6.28318530717959
2  19 12 0 0 6.28318530717959
4 C0 12 0 4 0
0

0101000
-21 0 +21 0 *
Ve
1e-05
6.58359122761208 13.1850607576398 0
0 0

0101101
*
Ed
 1e-05 1 1 0
1  27 0 0 1.95
3  20 21CN 12 0 0 1.95
0

0101000
+21 0 -19 0 *
Ed
 1e-07 1 1 0
1  28 0 0 6.28318530717959
2  22 12 0 0 6.28318530717959
4 C0 12 0 2 0
0

0101000
+19 0 -19 0 *
Wi

0101100
-20 0 +18 0 +17 0 -18 0 *
Fa
0  1e-07 12 0

0111000
+16 0 *
Ed
 1e-07 1 1 0
1  29 0 0 5.82587750386142
2  23 5 0 0 5.82587750386142
4 C0 5 0 4 0
0

0101000
+75 0 -33 0 *
Ed
 1e-07 1 1 0
1  30 0 0 5.82587750386142
2  24 5 0 0 5.82587750386142
4 C0 5 0 2 0
0

0101000
+79 0 -35 0 *
Wi

0101100
-32 0 -14 0 +73 0 +13 0 *
Fa
0  1e-07 5 0

0111000
+12 0 *
Wi

0101100
-20 0 *
Wi

0101100
-27 0 *
Wi

0101100
-74 0 +66 0 +59 0 +52 0 -45 0 +38 0 +31 0 -14 0 *
Fa
0  1e-07 4 0

0111000
+10 0 +9 0 +8 0 *
Wi

0101100
+17 0 *
Wi

0101100
+24 0 *
Wi

0101100
+78 0 +13 0 -34 0 -41 0 +48 0 -55 0 -62 0 -69 0 *
Fa
0  1e-07 2 0

0111000
-6 0 -5 0 -4 0 *
Sh

0101100
+71 0 +64 0 -57 0 +50 0 +43 0 +36 0 -29 0 -22 0 -15 0 -11 0 
+7 0 -3 0 *
So

0100000
+2 0 *

+1 1 