DBRep_DrawableShape

CASCADE Topology V3, (c) Open Cascade
Locations 3
1
0.64278760968654 -1.95559710342476e-16 -0.766044443118978 -27.8000660506659 
-0.766044443118978 1.7754783613607e-16 -0.64278760968654 51.4728125089218 
2.61712892021867e-16               1 -3.56818802108886e-17 1.35000000000003 
1
              1               0               0               0 
              0               1               0               0 
              0               0               1               0 
2  1 1 2 1 0
Curve2ds 0
Curves 116
1 1.9350023468942799 -22.050000000000001 0.90000000000000002 -1 1.22464679914735e-16 0 
1 3 0.079948687925934805 0.90000000000000002 0 -1 0 
1 0 -22.950000000000003 0.90000000000000002 1 1.22464679914735e-16 0 
1 -3 0.079948687925934805 0.90000000000000002 0 -1 0 
1 -3 -21.449999999999999 0.90000000000000002 0 0 -1 
1 -3 0.079948687925934805 1.5 0 -1 0 
1 -3 0.079948687925934805 1.5 0 -1 0 
1 -3 0.079948687925934805 1.5 0 -1 0 
1 -3 22.950000000000003 1.5 0 0 -1 
1 -3 0.079948687925934805 0.90000000000000002 0 -1 0 
1 -3 15 0.90000000000000002 0 0 -1 
1 -3 2.9982766136526999 0 0 -1 0 
1 -3 -15 0.90000000000000002 0 0 -1 
1 -3 0.079948687925934805 0.90000000000000002 0 -1 0 
1 3 0.079948687925934805 1.5 0 -1 0 
1 3 -21.449999999999999 0.90000000000000002 0 0 -1 
1 3 0.079948687925934805 0.90000000000000002 0 -1 0 
1 3 -15 0.90000000000000002 0 0 -1 
1 3 0 0 0 -1 0 
1 3 15 0.90000000000000002 0 0 -1 
1 3 0.079948687925934805 0.90000000000000002 0 -1 0 
1 3 22.950000000000003 1.5 0 0 -1 
1 3 0.079948687925934805 1.5 0 -1 0 
1 3 0.079948687925934805 1.5 0 -1 0 
1 -2.4782170205862001e-17 -21.449999999999999 1.5 1 -1.22464679914735e-16 0 
1 -4.5 -15.793811232224099 1.5 -1.8369701987210299e-16 1 0 
1 -0.289387826342136 -5.5499999999999998 1.5 1 0 0 
1 -4.5 -20.265172468498402 1.8 -1.22464679914735e-16 -1 0 
1 -4.5 -22.050000000000001 1.8 0 0 -1 
1 -4.5 -15.793811232224099 1.5 -1.8369701987210299e-16 1 0 
1 -4.5 -22.950000000000003 3.6000000000000001 0 0 -1 
1 -4.5 -15.793811232224099 5.4000000000000004 -1.8369701987210299e-16 1 0 
1 -4.5 -18.149999999999999 3.8999999999999999 0 0 -1 
1 -4.5 -15.793811232224099 3.6000000000000001 -1.8369701987210299e-16 1 0 
1 -4.5 -5.5499999999999998 3.6000000000000001 0 0 -1 
1 -4.5 -21.449999999999999 1.8 0 0 -1 
1 -2.4782170205862001e-17 -21.449999999999999 1.5 1 -1.22464679914735e-16 0 
1 -0.289387826342136 -5.5499999999999998 1.5 1 0 0 
1 4.5 -15.793811232224099 1.5 -1.8369701987210299e-16 1 0 
1 -0.289387826342136 -22.950000000000003 3.8999999999999999 1 0 0 
1 3.0750000000000002 -20.549994791683599 3.8999999999999999 -1.8369701987210299e-16 1 0 
1 2.2768245622195601e-15 -18.149999999999999 3.8999999999999999 1 0 0 
1 -3.0750000000000002 -20.549994791683599 3.8999999999999999 -1.8369701987210299e-16 1 0 
1 3.0750000000000002 20.400000000000002 3.8999999999999999 3.06161699786839e-16 -1 0 
1 -6.5052130349130305e-16 22.950000000000003 3.8999999999999999 1 0 0 
1 -3.0750000000000002 20.400000000000002 3.8999999999999999 -3.06161699786839e-16 -1 0 
1 -6.5052130349130305e-16 17.850000000000001 3.8999999999999999 1 0 0 
1 2.2768245622195601e-15 -18.149999999999999 3.6000000000000001 1 0 0 
1 4.5 -15.793811232224099 3.6000000000000001 -1.8369701987210299e-16 1 0 
1 -0.289387826342136 -5.5499999999999998 3.6000000000000001 1 0 0 
1 -0.289387826342136 -5.5499999999999998 1.5 1 0 0 
1 -0.15706045087426901 0.45000000000000001 1.5 1 0 0 
1 -0.33780123931105799 15 0 1 1.8369701987210299e-16 0 
1 -0.33780123931105799 15 0.90000000000000002 1 1.8369701987210299e-16 0 
1 -3 0.079948687925934805 1.5 0 -1 0 
1 -3 -22.050000000000001 0.90000000000000002 0 0 -1 
1 -3 -22.950000000000003 1.5 0 0 -1 
1 0.33780123931105799 -15 0 1 1.8369701987210299e-16 0 
1 0.33780123931105799 -15 0.90000000000000002 1 1.8369701987210299e-16 0 
1 3 -22.050000000000001 0.90000000000000002 0 0 -1 
1 3 0.079948687925934805 1.5 0 -1 0 
1 3 -22.950000000000003 1.5 0 0 -1 
1 1.9350023468942799 -21.449999999999999 0.90000000000000002 -1 1.22464679914735e-16 0 
1 -5.6211288080863506e-15 22.950000000000003 0.90000000000000002 1 1.22464679914735e-16 0 
1 -0.15706045087426901 22.950000000000003 1.5 1 0 0 
1 -4.5 22.950000000000003 3.6000000000000001 0 0 -1 
1 -3.8061836189590403 22.950000000000003 5.4000000000000004 1 0 0 
1 -3.0750000000000002 22.950000000000003 5.4000000000000004 0 0 -1 
1 3.0750000000000002 22.950000000000003 5.4000000000000004 0 0 -1 
1 3.8752658679150098 22.950000000000003 5.4000000000000004 -1 0 0 
1 4.5 22.950000000000003 3.6000000000000001 0 0 -1 
1 -0.15706045087426901 22.950000000000003 1.5 1 0 0 
1 -0.289387826342136 -22.950000000000003 1.5 1 0 0 
1 4.5 -22.950000000000003 3.6000000000000001 0 0 -1 
1 -0.289387826342136 -22.950000000000003 5.4000000000000004 1 0 0 
1 3.0750000000000002 -22.950000000000003 5.4000000000000004 0 0 -1 
1 -3.0750000000000002 -22.950000000000003 5.4000000000000004 0 0 -1 
1 -0.289387826342136 -22.950000000000003 5.4000000000000004 1 0 0 
1 -0.289387826342136 -22.950000000000003 1.5 1 0 0 
1 -0.15706045087426901 0.45000000000000001 1.5 1 0 0 
1 -4.5 12.5386429292383 1.5 6.1232339957367697e-17 -1 0 
1 4.5 10.8613570707617 1.5 6.1232339957367697e-17 -1 0 
1 4.5 20.400000000000002 5.4000000000000004 0 -1 0 
1 4.5 17.850000000000001 3.8999999999999999 0 0 -1 
1 4.5 10.8613570707617 3.6000000000000001 6.1232339957367697e-17 -1 0 
1 4.5 0.45000000000000001 3.6000000000000001 0 0 -1 
1 -4.5 0.45000000000000001 3.6000000000000001 0 0 -1 
1 -4.5 12.5386429292383 3.6000000000000001 6.1232339957367697e-17 -1 0 
1 -4.5 17.850000000000001 3.8999999999999999 0 0 -1 
1 -4.5 20.400000000000002 5.4000000000000004 0 -1 0 
1 -0.15706045087426901 0.45000000000000001 1.5 1 0 0 
1 -0.15706045087426901 0.45000000000000001 3.6000000000000001 1 0 0 
1 -6.5052130349130305e-16 17.850000000000001 3.6000000000000001 1 0 0 
1 -9.8260978154703401e-17 -22.050000000000001 1.5 1 -1.22464679914735e-16 0 
1 4.5 -20.265172468498402 1.8 -1.22464679914735e-16 -1 0 
1 4.5 -21.449999999999999 1.8 0 0 -1 
1 4.5 -5.5499999999999998 3.6000000000000001 0 0 -1 
1 4.5 -18.149999999999999 3.8999999999999999 0 0 -1 
1 4.5 -15.793811232224099 5.4000000000000004 -1.8369701987210299e-16 1 0 
1 4.5 -15.793811232224099 1.5 -1.8369701987210299e-16 1 0 
1 4.5 -22.050000000000001 1.8 0 0 -1 
1 -9.8260978154703401e-17 -22.050000000000001 1.5 1 -1.22464679914735e-16 0 
1 3.8752658679150098 17.850000000000001 5.4000000000000004 -1 0 0 
1 3.0750000000000002 17.850000000000001 5.4000000000000004 0 0 -1 
1 -3.0750000000000002 17.850000000000001 5.4000000000000004 0 0 -1 
1 -3.8061836189590403 17.850000000000001 5.4000000000000004 1 0 0 
1 2.2768245622195601e-15 -18.149999999999999 5.4000000000000004 1 0 0 
1 -3.0750000000000002 -18.149999999999999 5.4000000000000004 0 0 -1 
1 3.0750000000000002 -18.149999999999999 5.4000000000000004 0 0 -1 
1 2.2768245622195601e-15 -18.149999999999999 5.4000000000000004 1 0 0 
1 -3.0750000000000002 20.400000000000002 5.4000000000000004 -3.06161699786839e-16 -1 0 
1 3.0750000000000002 20.400000000000002 5.4000000000000004 3.06161699786839e-16 -1 0 
1 -3.0750000000000002 -20.549994791683599 5.4000000000000004 -1.8369701987210299e-16 1 0 
1 3.0750000000000002 -20.549994791683599 5.4000000000000004 -1.8369701987210299e-16 1 0 
1 1.9350023468942799 -21.449999999999999 1.8 -1 1.22464679914735e-16 0 
1 1.9350023468942799 -22.050000000000001 1.8 -1 1.22464679914735e-16 0 
Polygon3D 0
PolygonOnTriangulations 0
Surfaces 42
1 2.6020852139652099e-15 0 0.90000000000000002 0 0 1 1 0 -0 -0 1 0 
1 1.9350023468942799 -22.050000000000001 1.8 -1.22464679914735e-16 -1 0 1 -1.22464679914735e-16 0 0 0 1 
1 3 0 0.90000000000000002 1 0 0 0 0 -1 -0 1 0 
1 0 -22.950000000000003 1.5 -1.22464679914735e-16 1 0 -1 -1.22464679914735e-16 0 0 0 1 
1 -3 2.9982766136526999 0.90000000000000002 1 0 0 0 0 -1 -0 1 0 
1 -3 2.9982766136526999 0.90000000000000002 1 0 0 0 0 -1 -0 1 0 
1 1.9350023468942799 -21.449999999999999 1.8 -1.22464679914735e-16 -1 0 1 -1.22464679914735e-16 0 0 0 1 
1 2.6020852139652099e-15 0 1.5 0 0 1 1 0 -0 -0 1 0 
1 2.6020852139652099e-15 0 1.5 0 0 1 1 0 -0 -0 1 0 
1 2.6020852139652099e-15 0 1.5 0 0 1 1 0 -0 -0 1 0 
1 -5.6211288080863506e-15 22.950000000000003 1.5 -1.22464679914735e-16 1 0 -1 -1.22464679914735e-16 0 0 0 1 
1 2.6020852139652099e-15 0 0.90000000000000002 0 0 1 1 0 -0 -0 1 0 
1 -0.33780123931105799 15 0.90000000000000002 -1.8369701987210299e-16 1 0 -1 -1.8369701987210299e-16 0 0 0 1 
1 0 0 0 0 0 1 1 0 -0 -0 1 0 
1 0.33780123931105799 -15 0.90000000000000002 -1.8369701987210299e-16 1 0 -1 -1.8369701987210299e-16 0 0 0 1 
1 2.6020852139652099e-15 0 0.90000000000000002 0 0 1 1 0 -0 -0 1 0 
1 3 0 0.90000000000000002 1 0 0 0 0 -1 -0 1 0 
1 2.6020852139652099e-15 0 1.5 0 0 1 1 0 -0 -0 1 0 
1 2.6020852139652099e-15 0 1.5 0 0 1 1 0 -0 -0 1 0 
1 -4.5 -15.793811232224099 3.6000000000000001 -1 -1.8369701987210299e-16 0 1.8369701987210299e-16 -1 0 0 0 1 
1 -0.289387826342136 -5.5499999999999998 3.6000000000000001 0 1 0 0 -0 1 1 0 -0 
1 0 -18.974999999999998 1.8 0 0 -1 1 0 0 0 -1 0 
1 2.6020852139652099e-15 0 1.5 0 0 1 1 0 -0 -0 1 0 
1 2.6020852139652099e-15 0 5.4000000000000004 0 0 1 1 0 -0 -0 1 0 
1 2.2768245622195601e-15 -18.149999999999999 3.8999999999999999 0 1 0 0 -0 1 1 0 -0 
1 2.6020852139652099e-15 0 3.6000000000000001 0 0 1 1 0 -0 -0 1 0 
1 4.5 -15.793811232224099 3.6000000000000001 -1 -1.8369701987210299e-16 0 1.8369701987210299e-16 -1 0 0 0 1 
1 2.6020852139652099e-15 0 3.8999999999999999 0 0 1 1 0 -0 -0 1 0 
1 3.0750000000000002 -20.549994791683599 5.4000000000000004 -1 -1.8369701987210299e-16 0 1.8369701987210299e-16 -1 0 0 0 1 
1 -3.0750000000000002 -20.549994791683599 5.4000000000000004 -1 -1.8369701987210299e-16 0 1.8369701987210299e-16 -1 0 0 0 1 
1 2.6020852139652099e-15 0 3.8999999999999999 0 0 1 1 0 -0 -0 1 0 
1 3.0750000000000002 20.400000000000002 5.4000000000000004 1 3.06161699786839e-16 0 -3.06161699786839e-16 1 0 0 -0 1 
1 -3.0750000000000002 20.400000000000002 5.4000000000000004 1 -3.06161699786839e-16 0 3.06161699786839e-16 1 0 -0 0 1 
1 -6.5052130349130305e-16 17.850000000000001 3.8999999999999999 0 1 0 0 -0 1 1 0 -0 
1 -0.15706045087426901 0.45000000000000001 3.6000000000000001 0 1 0 0 -0 1 1 0 -0 
1 2.6020852139652099e-15 0 1.5 0 0 1 1 0 -0 -0 1 0 
1 -4.5 12.5386429292383 3.6000000000000001 1 6.1232339957367697e-17 0 -6.1232339957367697e-17 1 0 0 -0 1 
1 2.6020852139652099e-15 0 5.4000000000000004 0 0 1 1 0 -0 -0 1 0 
1 2.6020852139652099e-15 0 5.4000000000000004 0 0 1 1 0 -0 -0 1 0 
1 4.5 10.8613570707617 3.6000000000000001 1 6.1232339957367697e-17 0 -6.1232339957367697e-17 1 0 0 -0 1 
1 2.6020852139652099e-15 0 5.4000000000000004 0 0 1 1 0 -0 -0 1 0 
1 2.6020852139652099e-15 0 3.6000000000000001 0 0 1 1 0 -0 -0 1 0 
Triangulations 0

TShapes 278
Ve
1e-07
3 -22.05 0.9
0 0

0101101
*
Ve
1e-07
-3 -22.05 0.9
0 0

0101101
*
Ed
 1e-07 1 1 0
1  1 0 -1.06499765310572 4.93500234689428
4 C0 1 0 2 0
0

0101000
+278 0 -277 0 *
Ve
1e-07
3 -22.95 0.9
0 0

0101101
*
Ed
 1e-07 1 1 0
1  2 0 22.1299486879259 23.0299486879259
4 C0 1 0 3 0
0

0101000
+278 0 -275 0 *
Ve
1e-07
-3 -22.95 0.9
0 0

0101101
*
Ed
 1e-07 1 1 0
1  3 0 -3 3
4 C0 1 0 4 0
0

0101000
+273 0 -275 0 *
Ed
 1e-07 1 1 0
1  4 0 22.1299486879259 23.0299486879259
4 C0 1 0 5 0
0

0101000
+277 0 -273 0 *
Wi

0101100
-276 0 +274 0 -272 0 -271 0 *
Fa
0  1e-07 1 0

0111000
-270 0 *
Ve
1e-07
-3 -21.45 1.5
0 0

0101101
*
Ve
1e-07
-3 -21.45 0.9
0 0

0101101
*
Ed
 1e-07 1 1 0
1  5 0 -0.6 0
4 C0 6 0 7 0
0

0101000
+268 0 -267 0 *
Ve
1e-07
-3 -5.55 1.5
0 0

0101101
*
Ed
 1e-07 1 1 0
1  6 0 5.62994868792593 21.5299486879259
4 C0 6 0 8 0
0

0101000
+265 0 -268 0 *
Ve
1e-07
-3 0.45 1.5
0 0

0101101
*
Ed
 1e-07 1 1 0
1  7 0 -0.370051312074065 5.62994868792593
4 C0 6 0 9 0
0

0101000
+263 0 -265 0 *
Ve
1e-07
-3 22.95 1.5
0 0

0101101
*
Ed
 1e-07 1 1 0
1  8 0 -22.8700513120741 -0.370051312074065
4 C0 6 0 10 0
0

0101000
+261 0 -263 0 *
Ve
1e-07
-3 22.95 0.9
0 0

0101101
*
Ed
 1e-07 1 1 0
1  9 0 0 0.6
4 C0 6 0 11 0
0

0101000
+261 0 -259 0 *
Ve
1e-07
-3 15 0.9
0 0

0101101
*
Ed
 1e-07 1 1 0
1  10 0 -22.8700513120741 -14.9200513120741
4 C0 6 0 12 0
0

0101000
+259 0 -257 0 *
Ve
1e-07
-3 15 0
0 0

0101101
*
Ed
 1e-07 1 1 0
1  11 0 0 0.9
4 C0 6 0 13 0
0

0101000
+257 0 -255 0 *
Ve
1e-07
-3 -15 0
0 0

0101101
*
Ed
 1e-07 1 1 0
1  12 0 -12.0017233863473 17.9982766136527
4 C0 6 0 14 0
0

0101000
+255 0 -253 0 *
Ve
1e-07
-3 -15 0.9
0 0

0101101
*
Ed
 1e-07 1 1 0
1  13 0 0 0.9
4 C0 6 0 15 0
0

0101000
+251 0 -253 0 *
Ed
 1e-07 1 1 0
1  14 0 15.0799486879259 21.5299486879259
4 C0 6 0 16 0
0

0101000
+251 0 -267 0 *
Wi

0101100
-266 0 -264 0 -262 0 -260 0 +258 0 +256 0 +254 0 +252 0 -250 0 +249 0 
*
Fa
0  1e-07 6 0

0111000
-248 0 *
Ve
1e-07
3 -5.55 1.5
0 0

0101101
*
Ve
1e-07
3 -21.45 1.5
0 0

0101101
*
Ed
 1e-07 1 1 0
1  15 0 5.62994868792593 21.5299486879259
4 C0 17 0 18 0
0

0101000
+246 0 -245 0 *
Ve
1e-07
3 -21.45 0.9
0 0

0101101
*
Ed
 1e-07 1 1 0
1  16 0 -0.6 0
4 C0 17 0 7 0
0

0101000
+245 0 -243 0 *
Ve
1e-07
3 -15 0.9
0 0

0101101
*
Ed
 1e-07 1 1 0
1  17 0 15.0799486879259 21.5299486879259
4 C0 17 0 16 0
0

0101000
+241 0 -243 0 *
Ve
1e-07
3 -15 0
0 0

0101101
*
Ed
 1e-07 1 1 0
1  18 0 0 0.9
4 C0 17 0 15 0
0

0101000
+241 0 -239 0 *
Ve
1e-07
3 15 0
0 0

0101101
*
Ed
 1e-07 1 1 0
1  19 0 -15 15
4 C0 17 0 14 0
0

0101000
+237 0 -239 0 *
Ve
1e-07
3 15 0.9
0 0

0101101
*
Ed
 1e-07 1 1 0
1  20 0 0 0.9
4 C0 17 0 13 0
0

0101000
+235 0 -237 0 *
Ve
1e-07
3 22.95 0.9
0 0

0101101
*
Ed
 1e-07 1 1 0
1  21 0 -22.8700513120741 -14.9200513120741
4 C0 17 0 12 0
0

0101000
+233 0 -235 0 *
Ve
1e-07
3 22.95 1.5
0 0

0101101
*
Ed
 1e-07 1 1 0
1  22 0 0 0.6
4 C0 17 0 11 0
0

0101000
+231 0 -233 0 *
Ve
1e-07
3 0.45 1.5
0 0

0101101
*
Ed
 1e-07 1 1 0
1  23 0 -22.8700513120741 -0.370051312074065
4 C0 17 0 19 0
0

0101000
+231 0 -229 0 *
Ed
 1e-07 1 1 0
1  24 0 -0.370051312074065 5.62994868792593
4 C0 17 0 9 0
0

0101000
+229 0 -246 0 *
Wi

0101100
+244 0 +242 0 -240 0 +238 0 -236 0 -234 0 -232 0 -230 0 +228 0 +227 0 
*
Fa
0  1e-07 17 0

0111000
+226 0 *
Ve
1e-07
-4.5 -21.45 1.5
0 0

0101101
*
Ed
 1e-07 1 1 0
1  25 0 -4.5 -3
4 C0 8 0 7 0
0

0101000
+224 0 -268 0 *
Ve
1e-07
-4.5 -5.55 1.5
0 0

0101101
*
Ed
 1e-07 1 1 0
1  26 0 -5.6561887677759 10.2438112322241
4 C0 8 0 20 0
0

0101000
+224 0 -222 0 *
Ed
 1e-07 1 1 0
1  27 0 -4.21061217365786 -2.71061217365786
4 C0 8 0 21 0
0

0101000
+222 0 -265 0 *
Wi

0101100
-223 0 +221 0 +220 0 +264 0 *
Fa
0  1e-07 8 0

0111000
-219 0 *
Ve
1e-07
-4.5 -21.45 1.8
0 0

0101101
*
Ve
1e-07
-4.5 -22.05 1.8
0 0

0101101
*
Ed
 1e-07 1 1 0
1  28 0 1.1848275315016 1.7848275315016
4 C0 20 0 22 0
0

0101000
+217 0 -216 0 *
Ve
1e-07
-4.5 -22.05 1.5
0 0

0101101
*
Ed
 1e-07 1 1 0
1  29 0 0 0.3
4 C0 20 0 2 0
0

0101000
+216 0 -214 0 *
Ve
1e-07
-4.5 -22.95 1.5
0 0

0101101
*
Ed
 1e-07 1 1 0
1  30 0 -7.1561887677759 -6.2561887677759
4 C0 20 0 23 0
0

0101000
+212 0 -214 0 *
Ve
1e-07
-4.5 -22.95 5.4
0 0

0101101
*
Ed
 1e-07 1 1 0
1  31 0 -1.8 2.1
4 C0 20 0 4 0
0

0101000
+210 0 -212 0 *
Ve
1e-07
-4.5 -18.15 5.4
0 0

0101101
*
Ed
 1e-07 1 1 0
1  32 0 -7.1561887677759 -2.3561887677759
4 C0 20 0 24 0
0

0101000
+210 0 -208 0 *
Ve
1e-07
-4.5 -18.15 3.6
0 0

0101101
*
Ed
 1e-07 1 1 0
1  33 0 -1.5 0.3
4 C0 20 0 25 0
0

0101000
+208 0 -206 0 *
Ve
1e-07
-4.5 -5.55 3.6
0 0

0101101
*
Ed
 1e-07 1 1 0
1  34 0 -2.3561887677759 10.2438112322241
4 C0 20 0 26 0
0

0101000
+206 0 -204 0 *
Ed
 1e-07 1 1 0
1  35 0 0 2.1
4 C0 20 0 21 0
0

0101000
+204 0 -222 0 *
Ed
 1e-07 1 1 0
1  36 0 0 0.3
4 C0 20 0 7 0
0

0101000
+217 0 -224 0 *
Wi

0101100
+215 0 +213 0 -211 0 -209 0 +207 0 +205 0 +203 0 +202 0 -221 0 -201 0 
*
Fa
0  1e-07 20 0

0111000
+200 0 *
Ve
1e-07
4.5 -21.45 1.5
0 0

0101101
*
Ed
 1e-07 1 1 0
1  37 0 3 4.5
4 C0 18 0 7 0
0

0101000
+245 0 -198 0 *
Ve
1e-07
4.5 -5.55 1.5
0 0

0101101
*
Ed
 1e-07 1 1 0
1  38 0 3.28938782634214 4.78938782634214
4 C0 18 0 21 0
0

0101000
+246 0 -196 0 *
Ed
 1e-07 1 1 0
1  39 0 -5.6561887677759 10.2438112322241
4 C0 18 0 27 0
0

0101000
+198 0 -196 0 *
Wi

0101100
-197 0 -244 0 +195 0 -194 0 *
Fa
0  1e-07 18 0

0111000
-193 0 *
Ve
1e-07
-3.075 -22.95 3.9
0 0

0101101
*
Ve
1e-07
3.075 -22.95 3.9
0 0

0101101
*
Ed
 1e-07 1 1 0
1  40 0 -2.78561217365786 3.36438782634214
4 C0 28 0 4 0
0

0101000
+191 0 -190 0 *
Ve
1e-07
3.075 -18.15 3.9
0 0

0101101
*
Ed
 1e-07 1 1 0
1  41 0 -2.4000052083164 2.3999947916836
4 C0 28 0 29 0
0

0101000
+190 0 -188 0 *
Ve
1e-07
-3.075 -18.15 3.9
0 0

0101101
*
Ed
 1e-07 1 1 0
1  42 0 -3.075 3.075
4 C0 28 0 25 0
0

0101000
+186 0 -188 0 *
Ed
 1e-07 1 1 0
1  43 0 -2.4000052083164 2.3999947916836
4 C0 28 0 30 0
0

0101000
+191 0 -186 0 *
Wi

0101100
+189 0 +187 0 -185 0 -184 0 *
Fa
0  1e-07 28 0

0111000
+183 0 *
Ve
1e-07
3.075 22.95 3.9
0 0

0101101
*
Ve
1e-07
3.075 17.85 3.9
0 0

0101101
*
Ed
 1e-07 1 1 0
1  44 0 -2.55 2.55
4 C0 31 0 32 0
0

0101000
+181 0 -180 0 *
Ve
1e-07
-3.075 22.95 3.9
0 0

0101101
*
Ed
 1e-07 1 1 0
1  45 0 -3.075 3.075
4 C0 31 0 11 0
0

0101000
+178 0 -181 0 *
Ve
1e-07
-3.075 17.85 3.9
0 0

0101101
*
Ed
 1e-07 1 1 0
1  46 0 -2.55 2.55
4 C0 31 0 33 0
0

0101000
+178 0 -176 0 *
Ed
 1e-07 1 1 0
1  47 0 -3.075 3.075
4 C0 31 0 34 0
0

0101000
+176 0 -180 0 *
Wi

0101100
-179 0 -177 0 +175 0 +174 0 *
Fa
0  1e-07 31 0

0111000
+173 0 *
Ve
1e-07
4.5 -18.15 3.6
0 0

0101101
*
Ed
 1e-07 1 1 0
1  48 0 -4.5 4.5
4 C0 26 0 25 0
0

0101000
+206 0 -171 0 *
Ve
1e-07
4.5 -5.55 3.6
0 0

0101101
*
Ed
 1e-07 1 1 0
1  49 0 -2.3561887677759 10.2438112322241
4 C0 26 0 27 0
0

0101000
+171 0 -169 0 *
Ed
 1e-07 1 1 0
1  50 0 -4.21061217365786 4.78938782634214
4 C0 26 0 21 0
0

0101000
+204 0 -169 0 *
Wi

0101100
-203 0 +170 0 +168 0 -167 0 *
Fa
0  1e-07 26 0

0111000
+166 0 *
Ed
 1e-07 1 1 0
1  51 0 -2.71061217365786 3.28938782634214
4 C0 9 0 21 0
0

0101000
+265 0 -246 0 *
Ed
 1e-07 1 1 0
1  52 0 -2.84293954912573 3.15706045087427
4 C0 9 0 35 0
0

0101000
+263 0 -229 0 *
Wi

0101100
+262 0 +164 0 -227 0 -163 0 *
Fa
0  1e-07 9 0

0111000
+162 0 *
Ed
 1e-07 1 1 0
1  53 0 -2.66219876068894 3.33780123931106
4 C0 13 0 14 0
0

0101000
+255 0 -237 0 *
Ed
 1e-07 1 1 0
1  54 0 -2.66219876068894 3.33780123931106
4 C0 13 0 12 0
0

0101000
+257 0 -235 0 *
Wi

0101100
-160 0 -254 0 +159 0 +234 0 *
Fa
0  1e-07 13 0

0111000
+158 0 *
Ve
1e-07
-3 -22.05 1.5
0 0

0101101
*
Ve
1e-07
-3 -22.95 1.5
0 0

0101101
*
Ed
 1e-07 1 1 0
1  55 0 22.1299486879259 23.0299486879259
4 C0 5 0 23 0
0

0101000
+156 0 -155 0 *
Ed
 1e-07 1 1 0
1  56 0 -0.6 0
4 C0 5 0 2 0
0

0101000
+156 0 -277 0 *
Ed
 1e-07 1 1 0
1  57 0 0 0.6
4 C0 5 0 4 0
0

0101000
+155 0 -273 0 *
Wi

0101100
-154 0 +153 0 +271 0 -152 0 *
Fa
0  1e-07 5 0

0111000
-151 0 *
Ed
 1e-07 1 1 0
1  58 0 -3.33780123931106 2.66219876068894
4 C0 15 0 14 0
0

0101000
+253 0 -239 0 *
Ed
 1e-07 1 1 0
1  59 0 -3.33780123931106 2.66219876068894
4 C0 15 0 16 0
0

0101000
+251 0 -241 0 *
Wi

0101100
+149 0 -238 0 -148 0 +250 0 *
Fa
0  1e-07 15 0

0111000
-147 0 *
Ve
1e-07
3 -22.05 1.5
0 0

0101101
*
Ed
 1e-07 1 1 0
1  60 0 -0.6 0
4 C0 3 0 2 0
0

0101000
+145 0 -278 0 *
Ve
1e-07
3 -22.95 1.5
0 0

0101101
*
Ed
 1e-07 1 1 0
1  61 0 22.1299486879259 23.0299486879259
4 C0 3 0 36 0
0

0101000
+145 0 -143 0 *
Ed
 1e-07 1 1 0
1  62 0 0 0.6
4 C0 3 0 4 0
0

0101000
+143 0 -275 0 *
Wi

0101100
-144 0 +142 0 +141 0 -274 0 *
Fa
0  1e-07 3 0

0111000
+140 0 *
Wi

0101100
+160 0 +236 0 -149 0 -252 0 *
Fa
0  1e-07 14 0

0111000
-138 0 *
Ed
 1e-07 1 1 0
1  63 0 -1.06499765310572 4.93500234689428
4 C0 16 0 7 0
0

0101000
+243 0 -267 0 *
Wi

0101100
+240 0 +136 0 -249 0 +148 0 *
Fa
0  1e-07 16 0

0111000
-135 0 *
Ed
 1e-07 1 1 0
1  64 0 -2.99999999999999 3.00000000000001
4 C0 11 0 12 0
0

0101000
+259 0 -233 0 *
Ve
1e-07
-4.5 22.95 1.5
0 0

0101101
*
Ed
 1e-07 1 1 0
1  65 0 -4.34293954912573 -2.84293954912573
4 C0 11 0 10 0
0

0101000
+132 0 -261 0 *
Ve
1e-07
-4.5 22.95 5.4
0 0

0101101
*
Ed
 1e-07 1 1 0
1  66 0 -1.8 2.1
4 C0 11 0 37 0
0

0101000
+130 0 -132 0 *
Ve
1e-07
-3.075 22.95 5.4
0 0

0101101
*
Ed
 1e-07 1 1 0
1  67 0 -0.69381638104096 0.73118361895904
4 C0 11 0 38 0
0

0101000
+130 0 -128 0 *
Ed
 1e-07 1 1 0
1  68 0 0 1.5
4 C0 11 0 33 0
0

0101000
+128 0 -178 0 *
Ve
1e-07
3.075 22.95 5.4
0 0

0101101
*
Ed
 1e-07 1 1 0
1  69 0 0 1.5
4 C0 11 0 32 0
0

0101000
+125 0 -181 0 *
Ve
1e-07
4.5 22.95 5.4
0 0

0101101
*
Ed
 1e-07 1 1 0
1  70 0 -0.62473413208499 0.80026586791501
4 C0 11 0 39 0
0

0101000
+123 0 -125 0 *
Ve
1e-07
4.5 22.95 1.5
0 0

0101101
*
Ed
 1e-07 1 1 0
1  71 0 -1.8 2.1
4 C0 11 0 40 0
0

0101000
+123 0 -121 0 *
Ed
 1e-07 1 1 0
1  72 0 3.15706045087427 4.65706045087427
4 C0 11 0 19 0
0

0101000
+231 0 -121 0 *
Wi

0101100
-133 0 -258 0 -131 0 -129 0 +127 0 +126 0 +177 0 -124 0 -122 0 +120 0 
-119 0 +230 0 *
Fa
0  1e-07 11 0

0111000
+118 0 *
Ve
1e-07
4.5 -22.95 1.5
0 0

0101101
*
Ed
 1e-07 1 1 0
1  73 0 3.28938782634214 4.78938782634214
4 C0 4 0 36 0
0

0101000
+143 0 -116 0 *
Ve
1e-07
4.5 -22.95 5.4
0 0

0101101
*
Ed
 1e-07 1 1 0
1  74 0 -1.8 2.1
4 C0 4 0 27 0
0

0101000
+114 0 -116 0 *
Ve
1e-07
3.075 -22.95 5.4
0 0

0101101
*
Ed
 1e-07 1 1 0
1  75 0 3.36438782634214 4.78938782634214
4 C0 4 0 41 0
0

0101000
+112 0 -114 0 *
Ed
 1e-07 1 1 0
1  76 0 0 1.5
4 C0 4 0 29 0
0

0101000
+112 0 -190 0 *
Ve
1e-07
-3.075 -22.95 5.4
0 0

0101101
*
Ed
 1e-07 1 1 0
1  77 0 0 1.5
4 C0 4 0 30 0
0

0101000
+109 0 -191 0 *
Ed
 1e-07 1 1 0
1  78 0 -4.21061217365786 -2.78561217365786
4 C0 4 0 24 0
0

0101000
+210 0 -109 0 *
Ed
 1e-07 1 1 0
1  79 0 -4.21061217365786 -2.71061217365786
4 C0 4 0 23 0
0

0101000
+212 0 -155 0 *
Wi

0101100
+272 0 -141 0 +115 0 -113 0 -111 0 +110 0 -189 0 -108 0 -107 0 +209 0 
+106 0 +152 0 *
Fa
0  1e-07 4 0

0111000
-105 0 *
Wi

0101100
-159 0 -256 0 +133 0 +232 0 *
Fa
0  1e-07 12 0

0111000
-103 0 *
Ve
1e-07
-4.5 0.45 1.5
0 0

0101101
*
Ed
 1e-07 1 1 0
1  80 0 -4.34293954912573 -2.84293954912573
4 C0 10 0 35 0
0

0101000
+101 0 -263 0 *
Ed
 1e-07 1 1 0
1  81 0 -10.4113570707617 12.0886429292383
4 C0 10 0 37 0
0

0101000
+132 0 -101 0 *
Wi

0101100
+131 0 +260 0 -100 0 -99 0 *
Fa
0  1e-07 10 0

0111000
-98 0 *
Ve
1e-07
4.5 0.45 1.5
0 0

0101101
*
Ed
 1e-07 1 1 0
1  82 0 -12.0886429292383 10.4113570707617
4 C0 40 0 19 0
0

0101000
+121 0 -96 0 *
Ve
1e-07
4.5 17.85 5.4
0 0

0101101
*
Ed
 1e-07 1 1 0
1  83 0 -2.55 2.55
4 C0 40 0 39 0
0

0101000
+123 0 -94 0 *
Ve
1e-07
4.5 17.85 3.6
0 0

0101101
*
Ed
 1e-07 1 1 0
1  84 0 -1.5 0.3
4 C0 40 0 34 0
0

0101000
+94 0 -92 0 *
Ve
1e-07
4.5 0.45 3.6
0 0

0101101
*
Ed
 1e-07 1 1 0
1  85 0 -6.9886429292383 10.4113570707617
4 C0 40 0 42 0
0

0101000
+92 0 -90 0 *
Ed
 1e-07 1 1 0
1  86 0 0 2.1
4 C0 40 0 35 0
0

0101000
+90 0 -96 0 *
Wi

0101100
-95 0 -120 0 +93 0 +91 0 +89 0 +88 0 *
Fa
0  1e-07 40 0

0111000
+87 0 *
Ve
1e-07
-4.5 0.45 3.6
0 0

0101101
*
Ed
 1e-07 1 1 0
1  87 0 0 2.1
4 C0 37 0 35 0
0

0101000
+85 0 -101 0 *
Ve
1e-07
-4.5 17.85 3.6
0 0

0101101
*
Ed
 1e-07 1 1 0
1  88 0 -5.3113570707617 12.0886429292383
4 C0 37 0 42 0
0

0101000
+83 0 -85 0 *
Ve
1e-07
-4.5 17.85 5.4
0 0

0101101
*
Ed
 1e-07 1 1 0
1  89 0 -1.5 0.3
4 C0 37 0 34 0
0

0101000
+81 0 -83 0 *
Ed
 1e-07 1 1 0
1  90 0 -2.55 2.55
4 C0 37 0 38 0
0

0101000
+130 0 -81 0 *
Wi

0101100
+99 0 -84 0 -82 0 -80 0 -79 0 +129 0 *
Fa
0  1e-07 37 0

0111000
-78 0 *
Ed
 1e-07 1 1 0
1  91 0 3.15706045087427 4.65706045087427
4 C0 35 0 19 0
0

0101000
+229 0 -96 0 *
Ed
 1e-07 1 1 0
1  92 0 -4.34293954912573 4.65706045087427
4 C0 35 0 42 0
0

0101000
+85 0 -90 0 *
Wi

0101100
+100 0 +163 0 +76 0 -88 0 -75 0 +84 0 *
Fa
0  1e-07 35 0

0111000
-74 0 *
Ed
 1e-07 1 1 0
1  93 0 -4.5 4.5
4 C0 42 0 34 0
0

0101000
+83 0 -92 0 *
Wi

0101100
-72 0 +82 0 +75 0 -89 0 *
Fa
0  1e-07 42 0

0111000
+71 0 *
Wi

0101100
-228 0 +119 0 +95 0 -76 0 *
Fa
0  1e-07 19 0

0111000
-69 0 *
Ed
 1e-07 1 1 0
1  94 0 -4.5 -3
4 C0 23 0 2 0
0

0101000
+214 0 -156 0 *
Wi

0101100
+211 0 +67 0 +154 0 -106 0 *
Fa
0  1e-07 23 0

0111000
-66 0 *
Ve
1e-07
4.5 -21.45 1.8
0 0

0101101
*
Ve
1e-07
4.5 -22.05 1.8
0 0

0101101
*
Ed
 1e-07 1 1 0
1  95 0 1.1848275315016 1.7848275315016
4 C0 27 0 22 0
0

0101000
+64 0 -63 0 *
Ed
 1e-07 1 1 0
1  96 0 0 0.3
4 C0 27 0 7 0
0

0101000
+64 0 -198 0 *
Ed
 1e-07 1 1 0
1  97 0 0 2.1
4 C0 27 0 21 0
0

0101000
+169 0 -196 0 *
Ve
1e-07
4.5 -18.15 5.4
0 0

0101101
*
Ed
 1e-07 1 1 0
1  98 0 -1.5 0.3
4 C0 27 0 25 0
0

0101000
+59 0 -171 0 *
Ed
 1e-07 1 1 0
1  99 0 -7.1561887677759 -2.3561887677759
4 C0 27 0 41 0
0

0101000
+114 0 -59 0 *
Ve
1e-07
4.5 -22.05 1.5
0 0

0101101
*
Ed
 1e-07 1 1 0
1  100 0 -7.1561887677759 -6.2561887677759
4 C0 27 0 36 0
0

0101000
+116 0 -56 0 *
Ed
 1e-07 1 1 0
1  101 0 0 0.3
4 C0 27 0 2 0
0

0101000
+63 0 -56 0 *
Wi

0101100
-62 0 +61 0 +194 0 -60 0 -168 0 -58 0 -57 0 +113 0 +55 0 -54 0 
*
Fa
0  1e-07 27 0

0111000
-53 0 *
Wi

0101100
-220 0 -202 0 +167 0 +60 0 -195 0 -164 0 *
Fa
0  1e-07 21 0

0111000
+51 0 *
Ed
 1e-07 1 1 0
1  102 0 3 4.5
4 C0 36 0 2 0
0

0101000
+145 0 -56 0 *
Wi

0101100
-142 0 +49 0 -55 0 -115 0 *
Fa
0  1e-07 36 0

0111000
-48 0 *
Ve
1e-07
3.075 17.85 5.4
0 0

0101101
*
Ed
 1e-07 1 1 0
1  103 0 -0.62473413208499 0.80026586791501
4 C0 34 0 39 0
0

0101000
+94 0 -46 0 *
Ed
 1e-07 1 1 0
1  104 0 0 1.5
4 C0 34 0 32 0
0

0101000
+46 0 -180 0 *
Ve
1e-07
-3.075 17.85 5.4
0 0

0101101
*
Ed
 1e-07 1 1 0
1  105 0 0 1.5
4 C0 34 0 33 0
0

0101000
+43 0 -176 0 *
Ed
 1e-07 1 1 0
1  106 0 -0.69381638104096 0.73118361895904
4 C0 34 0 38 0
0

0101000
+81 0 -43 0 *
Wi

0101100
+72 0 -91 0 +45 0 +44 0 -174 0 -42 0 -41 0 +80 0 *
Fa
0  1e-07 34 0

0111000
-40 0 *
Ve
1e-07
-3.075 -18.15 5.4
0 0

0101101
*
Ed
 1e-07 1 1 0
1  107 0 -4.5 -3.075
4 C0 25 0 24 0
0

0101000
+208 0 -38 0 *
Ed
 1e-07 1 1 0
1  108 0 0 1.5
4 C0 25 0 30 0
0

0101000
+38 0 -186 0 *
Ve
1e-07
3.075 -18.15 5.4
0 0

0101101
*
Ed
 1e-07 1 1 0
1  109 0 0 1.5
4 C0 25 0 29 0
0

0101000
+35 0 -188 0 *
Ed
 1e-07 1 1 0
1  110 0 3.075 4.5
4 C0 25 0 41 0
0

0101000
+35 0 -59 0 *
Wi

0101100
-170 0 -205 0 +37 0 +36 0 +185 0 -34 0 +33 0 +58 0 *
Fa
0  1e-07 25 0

0111000
+32 0 *
Ed
 1e-07 1 1 0
1  111 0 -2.55 2.55
4 C0 33 0 38 0
0

0101000
+128 0 -43 0 *
Wi

0101100
-175 0 -126 0 +30 0 +42 0 *
Fa
0  1e-07 33 0

0111000
+29 0 *
Wi

0101100
-127 0 +79 0 +41 0 -30 0 *
Fa
0  1e-07 38 0

0111000
+27 0 *
Ed
 1e-07 1 1 0
1  112 0 -2.55 2.55
4 C0 32 0 39 0
0

0101000
+125 0 -46 0 *
Wi

0101100
+179 0 -44 0 -25 0 +124 0 *
Fa
0  1e-07 32 0

0111000
-24 0 *
Wi

0101100
-93 0 +122 0 +25 0 -45 0 *
Fa
0  1e-07 39 0

0111000
+22 0 *
Ed
 1e-07 1 1 0
1  113 0 -2.4000052083164 2.3999947916836
4 C0 30 0 24 0
0

0101000
+109 0 -38 0 *
Wi

0101100
+184 0 -36 0 -20 0 +108 0 *
Fa
0  1e-07 30 0

0111000
-19 0 *
Wi

0101100
+107 0 +20 0 -37 0 -207 0 *
Fa
0  1e-07 24 0

0111000
+17 0 *
Ed
 1e-07 1 1 0
1  114 0 -2.4000052083164 2.3999947916836
4 C0 29 0 41 0
0

0101000
+112 0 -35 0 *
Wi

0101100
-187 0 -110 0 +15 0 +34 0 *
Fa
0  1e-07 29 0

0111000
+14 0 *
Wi

0101100
-15 0 +111 0 +57 0 -33 0 *
Fa
0  1e-07 41 0

0111000
+12 0 *
Ed
 1e-07 1 1 0
1  115 0 -2.56499765310572 6.43500234689428
4 C0 7 0 22 0
0

0101000
+64 0 -217 0 *
Wi

0101100
+266 0 -136 0 -242 0 +197 0 -61 0 +10 0 +201 0 +223 0 *
Fa
0  1e-07 7 0

0111000
+9 0 *
Ed
 1e-07 1 1 0
1  116 0 -2.56499765310572 6.43500234689428
4 C0 2 0 22 0
0

0101000
+63 0 -216 0 *
Wi

0101100
-67 0 -213 0 -7 0 +54 0 -49 0 +144 0 +276 0 -153 0 *
Fa
0  1e-07 2 0

0111000
-6 0 *
Wi

0101100
-10 0 +62 0 +7 0 -215 0 *
Fa
0  1e-07 22 0

0111000
+4 0 *
Sh

0101100
-269 0 -247 0 +225 0 -218 0 +199 0 -192 0 +182 0 +172 0 +165 0 +161 0 
+157 0 -150 0 -146 0 +139 0 -137 0 -134 0 +117 0 -104 0 -102 0 -97 0 
+86 0 -77 0 -73 0 +70 0 -68 0 -65 0 -52 0 +50 0 -47 0 -39 0 
+31 0 +28 0 +26 0 -23 0 +21 0 -18 0 +16 0 +13 0 +11 0 +8 0 
-5 0 +3 0 *
So

0100000
+2 0 *

+1 3 