DBRep_DrawableShape

CASCADE Topology V3, (c) Open Cascade
Locations 1
1
              0 -0.342020143325669 0.939692620785908 55.9692842464986 
              0 -0.939692620785908 -0.342020143325669 -20.3711534989097 
              1               0               0            19.8 
Curve2ds 24
1 0 5.25 1 0 
1 0 5.25 1 0 
1 -6.2831853071795862 5.25 1 0 
1 0 0 1 0 
1 0 1.2727922061357857 1 0 
1 0 -4.3499999999999996 1 0 
1 6.2831853071795862 0 0 1 
1 0 0 0 1 
1 0 3.3000000000000007 1 0 
1 0 0 1 0 
1 6.2831853071795862 0 0 1 
1 0 0 0 1 
1 0 1.0606601717798201 1 0 
1 0 4.0499999999999989 1 0 
1 6.2831853071795862 0 0 1 
1 0 0 0 1 
1 0 4.3499999999999996 1 0 
1 1.3933967223545256 4.3499999999999996 0 1 
1 6.2831853071795862 0 0 1 
1 0 0 0 1 
1 4.8897885848250606 4.3499999999999996 0 1 
1 0 4.3499999999999996 1 0 
1 4.5349893759443187 4.3499999999999996 0 1 
1 1.7481959312352675 4.3499999999999996 0 1 
Curves 20
1 -0.45000000000000001 7.7353256497630389e-05 10.5 0 -1 0 
2 0 0 10.5 0 0 1 1 0 -0 -0 1 0 2.5500000000000003
1 0.45000000000000001 5.4030840796802796e-05 10.5 -1.22464679914735e-16 1 0 
2 0 0 10.5 0 0 1 1 0 -0 -0 1 0 2.5500000000000003
2 0 0 0 0 0 1 1 0 -0 -0 1 0 0.90000000000000002
2 0 0 0.90000000000000002 0 0 1 1 0 -0 -0 1 0 1.8
7 0 0  1 2 2  0.90000000000000002 -2.2043642384652358e-16 0  1.7999999999999998 -4.4087284769304707e-16 0.90000000000000047 
 0 2 1.2727922061357857 2
2 0 0 8.5500000000000007 0 0 1 1 0 -0 -0 1 0 1.8
7 0 0  1 2 2  1.8 -4.4087284769304716e-16 0.90000000000000036  1.8 -4.4087284769304716e-16 8.5500000000000007 
 -4.3499999999999996 2 3.3000000000000007 2
2 0 0 9.2999999999999989 0 0 1 1 0 -0 -0 1 0 2.5500000000000003
7 0 0  1 2 2  1.8 -4.4087284769304716e-16 8.5500000000000007  2.5499999999999998 -6.2456986756515008e-16 9.2999999999999989 
 0 2 1.0606601717798201 2
2 0 0 9.5999999999999996 0 0 1 1 0 -0 -0 1 0 2.5500000000000003
1 0.45000000000000001 2.50998007960222 9.5999999999999996 0 0 1 
7 0 0  1 2 2  2.5500000000000003 -6.2456986756515018e-16 9.2999999999999989  2.5500000000000003 -6.2456986756515018e-16 10.5 
 4.0499999999999989 2 5.25 2
1 0.45000000000000001 -2.50998007960222 9.5999999999999996 0 0 1 
2 0 0 9.5999999999999996 0 0 1 1 0 -0 -0 1 0 2.5500000000000003
1 -0.45000000000000001 -2.50998007960222 9.5999999999999996 0 0 1 
1 -0.45000000000000001 2.50998007960222 9.5999999999999996 0 0 1 
1 -0.45000000000000001 7.7353256497630389e-05 9.5999999999999996 0 -1 0 
1 0.45000000000000001 5.4030840796802796e-05 9.5999999999999996 -1.22464679914735e-16 1 0 
Polygon3D 0
PolygonOnTriangulations 0
Surfaces 10
1 1.2298323356979302 0 10.5 0 0 -1 -1 0 0 0 1 0 
1 -0.45000000000000001 7.7353256497630389e-05 9.5999999999999996 -1 0 0 0 0 1 0 1 -0 
10 0 6.2831853071795862 4.0499999999999989 5.25
2 0 0 5.25 0 0 1 1 0 -0 -0 1 0 2.5500000000000003
1 1.2298323356979302 0 10.5 0 0 -1 -1 0 0 0 1 0 
1 0.45000000000000001 5.4030840796802796e-05 9.5999999999999996 1 1.22464679914735e-16 0 -1.22464679914735e-16 1 0 0 -0 1 
1 0.59078280324072696 0 -4.0657581468206398e-17 0 0 1 1 0 -0 -0 1 0 
10 0 6.2831853071795862 0 1.2727922061357857
3 0 0 0 0 0 1 1 0 -0 -0 1 0 0.90000000000000002
0.78539816339744795
10 0 6.2831853071795862 -4.3499999999999996 3.3000000000000007
2 0 0 5.25 0 0 1 1 0 -0 -0 1 0 1.8
10 0 6.2831853071795862 0 1.0606601717798201
3 0 0 8.5500000000000007 0 0 1 1 0 -0 -0 1 0 1.8
0.78539816339744895
1 0 0 9.5999999999999996 0 0 1 1 0 -0 -0 1 0 
Triangulations 0

TShapes 56
Ve
1e-07
-0.45 2.50998007960222 10.5
0 0

0101101
*
Ve
1e-07
-0.45 -2.50998007960222 10.5
0 0

0101101
*
Ed
 1e-07 1 1 0
1  1 0 -2.50990272634572 2.51005743285872
4 C0 1 0 2 0
0

0101000
+56 0 -55 0 *
Ed
 1e-07 1 1 0
1  2 0 1.74819593123527 4.53498937594432
2  1 3 0 1.74819593123527 4.53498937594432
4 C0 1 0 3 0
0

0101000
-55 0 +56 0 *
Wi

0101100
-54 0 +53 0 *
Fa
0  1e-07 1 0

0101000
-52 0 *
Ve
1e-07
0.45 -2.50998007960222 10.5
0 0

0101101
*
Ve
1e-07
0.45 2.50998007960222 10.5
0 0

0101101
*
Ed
 1e-07 1 1 0
1  3 0 -2.51003411044302 2.50992604876142
4 C0 4 0 5 0
0

0101000
+50 0 -49 0 *
Ve
1e-05
2.55 -6.2456986756515e-16 10.5
0 0

0101101
*
Ed
 1e-07 1 1 0
1  4 0 4.88978858482506 6.28318530717959
2  2 3 0 4.88978858482506 6.28318530717959
4 C0 4 0 3 0
0

0101000
-47 0 +50 0 *
Ed
 1e-07 1 1 0
1  4 0 6.28318530717959 7.67658202953411
2  3 3 0 6.28318530717959 7.67658202953411
4 C0 4 0 3 0
0

0101000
-49 0 +47 0 *
Wi

0101100
-48 0 +46 0 +45 0 *
Fa
0  1e-07 4 0

0101000
-44 0 *
Ve
1e-05
0.9 0 0
0 0

0101101
*
Ed
 1e-07 1 1 0
1  5 0 0 6.28318530717959
2  4 7 0 0 6.28318530717959
4 C0 6 0 7 0
0

0101000
+42 0 -42 0 *
Wi

0101100
-41 0 *
Fa
0  1e-07 6 0

0101000
-40 0 *
Ve
1e-05
1.8 0 0.9
0 0

0101101
*
Ed
 1e-07 1 1 0
1  6 0 0 6.28318530717959
2  5 7 0 0 6.28318530717959
2  6 8 0 0 6.28318530717959
4 C0 7 0 8 0
0

0101000
+38 0 -38 0 *
Ed
 1e-05 1 1 0
1  7 0 0 1.27279220613579
3  7 8CN 7 0 0 1.27279220613579
0

0101000
-38 0 +42 0 *
Wi

0101100
-37 0 -36 0 +41 0 +36 0 *
Fa
0  1e-07 7 0

0101000
+35 0 *
Ve
1e-05
1.8 0 8.55
0 0

0101101
*
Ed
 1e-07 1 1 0
1  8 0 0 6.28318530717959
2  9 8 0 0 6.28318530717959
2  10 9 0 0 6.28318530717959
4 C0 8 0 9 0
0

0101000
+33 0 -33 0 *
Ed
 1e-05 1 1 0
1  9 0 -4.35 3.3
3  11 12CN 8 0 -4.35 3.3
0

0101000
-33 0 +38 0 *
Wi

0101100
-32 0 -31 0 +37 0 +31 0 *
Fa
0  1e-07 8 0

0101000
+30 0 *
Ve
1e-05
2.55 0 9.3
0 0

0101101
*
Ed
 1e-07 1 1 0
1  10 0 0 6.28318530717959
2  13 9 0 0 6.28318530717959
2  14 3 0 0 6.28318530717959
4 C0 9 0 3 0
0

0101000
+28 0 -28 0 *
Ed
 1e-05 1 1 0
1  11 0 0 1.06066017177982
3  15 16CN 9 0 0 1.06066017177982
0

0101000
-28 0 +33 0 *
Wi

0101100
-27 0 -26 0 +32 0 +26 0 *
Fa
0  1e-07 9 0

0101000
+25 0 *
Ve
1e-07
-0.45 2.50998007960222 9.6
0 0

0101101
*
Ve
1e-07
0.45 2.50998007960222 9.6
0 0

0101101
*
Ed
 1e-07 1 1 0
1  12 0 1.39339672235453 1.74819593123527
2  17 3 0 1.39339672235453 1.74819593123527
4 C0 3 0 10 0
0

0101000
-23 0 +22 0 *
Ed
 1e-07 1 1 0
1  13 0 0 0.9
2  18 3 0 0 0.9
4 C0 3 0 5 0
0

0101000
+22 0 -49 0 *
Ed
 1e-05 1 1 0
1  14 0 4.05 5.25
3  19 20CN 3 0 4.05 5.25
0

0101000
-47 0 +28 0 *
Ve
1e-07
0.45 -2.50998007960222 9.6
0 0

0101101
*
Ed
 1e-07 1 1 0
1  15 0 0 0.9
2  21 3 0 0 0.9
4 C0 3 0 5 0
0

0101000
-50 0 +18 0 *
Ve
1e-07
-0.45 -2.50998007960222 9.6
0 0

0101101
*
Ed
 1e-07 1 1 0
1  16 0 4.53498937594432 4.88978858482506
2  22 3 0 4.53498937594432 4.88978858482506
4 C0 3 0 10 0
0

0101000
-18 0 +16 0 *
Ed
 1e-07 1 1 0
1  17 0 0 0.9
2  23 3 0 0 0.9
4 C0 3 0 2 0
0

0101000
+16 0 -55 0 *
Ed
 1e-07 1 1 0
1  18 0 0 0.9
2  24 3 0 0 0.9
4 C0 3 0 2 0
0

0101000
-56 0 +23 0 *
Wi

0101100
-21 0 +20 0 -45 0 -19 0 +27 0 +19 0 -46 0 -17 0 -15 0 +14 0 
-53 0 -13 0 *
Fa
0  1e-07 3 0

0111000
+12 0 *
Ed
 1e-07 1 1 0
1  19 0 -2.50990272634572 2.51005743285872
4 C0 2 0 10 0
0

0101000
+23 0 -16 0 *
Wi

0101100
+54 0 -14 0 -10 0 +13 0 *
Fa
0  1e-07 2 0

0111000
-9 0 *
Ed
 1e-07 1 1 0
1  20 0 -2.51003411044302 2.50992604876142
4 C0 5 0 10 0
0

0101000
+18 0 -22 0 *
Wi

0101100
+48 0 -20 0 -7 0 +17 0 *
Fa
0  1e-07 5 0

0111000
-6 0 *
Wi

0101100
+21 0 +10 0 +15 0 +7 0 *
Fa
0  1e-07 10 0

0111000
+4 0 *
Sh

0101100
-51 0 -43 0 -39 0 +34 0 +29 0 +24 0 +11 0 -8 0 -5 0 +3 0 
*
So

0100000
+2 0 *

+1 1 