DBRep_DrawableShape

CASCADE Topology V3, (c) Open Cascade
Locations 4
1
              1               0               0 7.0327511955109 
              0               1               0 -39.8847139969941 
              0               0               1           -21.9 
1
              1               0               0               0 
              0               1               0               0 
              0               0               1               0 
1
              1               0               0               0 
              0               1               0               0 
              0               0               1               0 
2  1 1 2 1 3 1 0
Curve2ds 61
1 3.8830589280249028 0 0 1 
1 1.8508630313930621 0 0 1 
1 4.9134005020265166 0 -1 0 
1 4.9134005020265157 0 0 1 
1 0.66241109147877075 0 0 1 
1 4.9134005020265166 1.5 -1 0 
1 0.66241109147877197 1.5 -1 0 
1 0.59422596995714605 0 0 1 
1 2.6264218665889834 0 0 1 
1 0.66241109147877197 0 -1 0 
1 3.6567634405905998 0 -1 0 
1 3.656763440590602 0 0 1 
1 5.6889593372224398 0 0 1 
1 3.6567634405905998 1.5 -1 0 
1 5.6889593372224407 1.5 -1 0 
1 5.6207742157008145 0 0 1 
1 1.3712127988267673 0 0 1 
1 5.6889593372224407 0 -1 0 
1 2.400252266321854 0 -1 0 
1 2.4002522663218535 0 0 1 
1 4.4338761566273934 0 0 1 
1 2.400252266321854 1.5 -1 0 
1 4.4338761566273943 1.5 -1 0 
1 4.3621653149513904 0 0 1 
1 0.1129925676379757 0 0 1 
1 4.4338761566273943 0 -1 0 
1 1.1416776102392303 0 -1 0 
1 1.1416776102392314 0 0 1 
1 3.1756901701054012 0 0 1 
1 1.1416776102392303 1.5 -1 0 
1 3.1756901701054017 1.5 -1 0 
1 3.1074951370741846 0 0 1 
1 5.1396955878101878 0 0 1 
1 3.1756901701054017 0 -1 0 
1 6.1700330093582716 0 -1 0 
1 6.1700330093582716 0 0 1 
1 1.9190481529146894 0 0 1 
1 6.1700330093582716 1.5 -1 0 
1 0.47119881491044341 0 0 1 
1 6.7543841220900003 0 0 1 
1 5.811986492269142 0 -1 0 
1 5.8119864922691429 0 0 1 
1 -0.47119881491041404 0 0 1 
1 5.811986492269142 1.5 -1 0 
1 0.7853981633974465 0 -1 0 
1 0.78539816339742607 0 0 1 
1 0.7853981633974465 1.5 -1 0 
1 3.9269908169872481 0 0 1 
1 3.9269908169872405 1.5 -1 0 
1 2.3561944901923391 0 0 1 
1 3.9269908169872405 0 -1 0 
1 5.4977871437821602 0 0 1 
1 6.7543841220900322 0 -1 0 
1 6.7543841220900322 1.5 -1 0 
1 1.9190481529146892 1.5 -1 0 
1 1.9190481529146892 0 -1 0 
1 3.1415926535897931 0 -1 0 
1 9.4247779607693793 0 -1 0 
1 0 -0.86602540378443749 1 0 
1 6.2831853071795862 0 0 1 
1 0 0 0 1 
Curves 50
1 1.8243704209982301 6.3428443505466801 1.5 0 0 -1 
2 -3.7067226348874001 11.408119230267799 1.5 0 0 1 -0.19966058754308302 -0.97986511815757116 0 0.97986511815757116 -0.19966058754308302 0 7.5
1 -5.20417704146052 4.0591308440860097 1.5 0 0 -1 
2 -3.7067226348874001 11.408119230267799 0 0 0 1 -0.19966058754308302 -0.97986511815757116 0 0.97986511815757116 -0.19966058754308302 0 7.5
2 0 0 0 0 0 1 -0.78851165585803307 0.61501981153132212 0 -0.61501981153132212 -0.78851165585803307 0 6.6000001430511501
1 -5.4686419873098897 3.69512607402056 1.5 0 0 -1 
2 0 0 1.5 0 0 1 -0.78851165585803307 0.61501981153132212 0 -0.61501981153132212 -0.78851165585803307 0 6.6000001430511501
2 -11.9952064202327 -3.9031278209478097e-15 1.5 0 0 1 0.87020859105637882 -0.49268347653607392 0 0.49268347653607392 0.87020859105637882 -0 7.5
1 -5.4686419873098897 -3.69512607402056 1.5 0 0 -1 
2 -11.9952064202327 -3.9031278209478097e-15 0 0 0 1 0.87020859105637882 -0.49268347653607392 0 0.49268347653607392 0.87020859105637882 -0 7.5
2 0 0 0 0 0 1 -0.82858210133034327 -0.5598675748380082 0 0.5598675748380082 -0.82858210133034327 0 6.6000001430511501
1 -5.20417704146052 -4.0591308440860203 1.5 0 0 -1 
2 0 0 1.5 0 0 1 -0.82858210133034327 -0.5598675748380082 0 0.5598675748380082 -0.82858210133034327 0 6.6000001430511501
2 -3.7172184670230801 -11.410250092058201 1.5 0 0 1 0.7375640886883037 0.67527713946008272 -0 -0.67527713946008272 0.7375640886883037 0 7.5
1 1.8145121981392001 -6.3456715461075701 1.5 0 0 -1 
2 -3.7172184670230801 -11.410250092058201 0 0 0 1 0.7375640886883037 0.67527713946008272 -0 -0.67527713946008272 0.7375640886883037 0 7.5
2 0 0 0 0 0 1 0.27492608466828794 -0.96146536493467383 0 0.96146536493467383 0.27492608466828794 -0 6.6000001430511501
1 2.2645122160205799 -6.19935370113439 1.5 0 0 -1 
2 0 0 1.5 0 0 1 0.27492608466828794 -0.96146536493467383 0 0.96146536493467383 0.27492608466828794 -0 6.6000001430511501
2 9.7166856819632201 -7.04499584382864 1.5 0 0 1 -0.416069584182713 0.90933277798505896 0 -0.90933277798505896 -0.416069584182713 0 7.5
1 6.5961638005928798 -0.225000008940694 1.5 0 0 -1 
2 9.7166856819632201 -7.04499584382864 0 0 0 1 -0.416069584182713 0.90933277798505896 0 -0.90933277798505896 -0.416069584182713 0 7.5
2 0 0 0 0 0 1 0.99941873600376974 -0.034090909706659192 0 0.034090909706659192 0.99941873600376974 -0 6.6000001430511501
1 6.5961638005928798 0.22500000894069699 1.5 0 0 -1 
2 0 0 1.5 0 0 1 0.99941873600376974 -0.034090909706659192 0 0.034090909706659192 0.99941873600376974 -0 6.6000001430511501
2 9.7043219885177603 7.0506393693841902 1.5 0 0 1 -0.99360510617364572 -0.11291099585805797 0 0.11291099585805797 -0.99360510617364572 0 7.5
1 2.2522836922154199 6.2038069004487602 1.5 0 0 -1 
2 9.7043219885177603 7.0506393693841902 0 0 0 1 -0.99360510617364572 -0.11291099585805797 0 0.11291099585805797 -0.99360510617364572 0 7.5
1 -3.1453172645366601 1.6024603912133399 1.5 0 0 -1 
2 0 0 1.5 0 0 1 -0.89102472083191508 -0.45395478504627307 0 0.45395478504627307 -0.89102472083191508 0 3.5300000000000002
1 -3.1453172645366601 -1.6024603912133399 1.5 0 0 -1 
2 0 0 0 0 0 1 -0.89102472083191508 -0.45395478504627307 0 0.45395478504627307 -0.89102472083191508 0 3.5300000000000002
2 -2.8780098443038904 -1.4662739536701299 1.5 0 0 1 -0.70710678118654857 0.70710678118654657 0 -0.70710678118654657 -0.70710678118654857 0 0.30000000447034803
1 -3.0901418818208799 -1.25414191615315 1.5 0 0 -1 
2 -2.8780098443038904 -1.4662739536701299 0 0 0 1 -0.70710678118654857 0.70710678118654657 0 -0.70710678118654657 -0.70710678118654857 0 0.30000000447034803
1 -2.46939646430824 -0.63339649864051495 0 -0.70710678118654702 -0.70710678118654802 0 
1 -2.2602640407016801 -0.42426407503395597 1.5 0 0 -1 
1 -2.46939646430824 -0.63339649864051495 1.5 -0.70710678118654702 -0.70710678118654802 0 
2 -2.6845281157356302 -2.8460307027744501e-16 0 0 0 1 0.70710678118654802 -0.70710678118654702 0 0.70710678118654702 0.70710678118654802 -0 0.60000000894069694
1 -2.2602640407016801 0.42426407503395502 1.5 0 0 -1 
2 -2.6845281157356302 -2.8460307027744501e-16 1.5 0 0 1 0.70710678118654802 -0.70710678118654702 0 0.70710678118654702 0.70710678118654802 -0 0.60000000894069694
1 -2.48473574343716 0.64873577776943403 0 -0.70710678118654802 0.70710678118654702 0 
1 -3.0901418818208799 1.25414191615315 1.5 0 0 -1 
1 -2.48473574343716 0.64873577776943403 1.5 -0.70710678118654802 0.70710678118654702 0 
2 -2.8780098443038904 1.4662739536701299 1.5 0 0 1 -0.89102472083191464 0.45395478504627385 0 -0.45395478504627385 -0.89102472083191464 0 0.30000000447034803
2 -2.8780098443038904 1.4662739536701299 0 0 0 1 -0.89102472083191464 0.45395478504627385 0 -0.45395478504627385 -0.89102472083191464 0 0.30000000447034803
2 0 0 0 0 0 1 0.34125509748461896 0.93997072211891974 -0 -0.93997072211891974 0.34125509748461896 0 6.6000001430511501
2 0 0 1.5 0 0 1 0.34125509748461896 0.93997072211891974 -0 -0.93997072211891974 0.34125509748461896 0 6.6000001430511501
2 4.7999999999999998 0 1.5 0 0 -1 -1 0 0 0 1 0 0.75
7 0 0  1 2 2  4.7999999999999998 0 1.066987298107783  5.5499999999999998 0 1.5 
 -0.86602540378443749 2 0 2
Polygon3D 0
PolygonOnTriangulations 0
Surfaces 19
2 -3.7067226348874001 11.408119230267799 1.5 0 0 -1 -1 0 0 0 1 0 7.5
2 0 0 1.5 0 0 -1 -1 0 0 0 1 0 6.6000001430511501
1 0.56567907787062999 -0.0014135977804453899 1.5 0 0 1 1 0 -0 -0 1 0 
2 0 0 1.5 0 0 -1 -1 0 0 0 1 0 6.6000001430511501
1 0.56567907787062999 -0.0014135977804453899 0 0 0 1 1 0 -0 -0 1 0 
2 -11.9952064202327 -3.9031278209478097e-15 1.5 0 0 -1 -1 0 0 0 1 0 7.5
2 0 0 1.5 0 0 -1 -1 0 0 0 1 0 6.6000001430511501
2 -3.7172184670230801 -11.410250092058201 1.5 0 0 -1 -1 0 0 0 1 0 7.5
2 0 0 1.5 0 0 -1 -1 0 0 0 1 0 6.6000001430511501
2 9.7166856819632201 -7.04499584382864 1.5 0 0 -1 -1 0 0 0 1 0 7.5
2 0 0 1.5 0 0 -1 -1 0 0 0 1 0 6.6000001430511501
2 9.7043219885177603 7.0506393693841902 1.5 0 0 -1 -1 0 0 0 1 0 7.5
2 0 0 1.5 0 0 -1 -1 0 0 0 1 0 3.5300000000000002
2 -2.8780098443038904 1.4662739536701299 1.5 0 0 -1 -1 0 0 0 1 0 0.30000000447034803
2 -2.8780098443038904 -1.4662739536701299 1.5 0 0 -1 -1 0 0 0 1 0 0.30000000447034803
1 -2.46939646430824 -0.63339649864051495 1.5 0.70710678118654802 -0.70710678118654702 0 0.70710678118654702 0.70710678118654802 0 -0 0 1 
2 -2.6845281157356302 -2.8460307027744501e-16 1.5 0 0 -1 -1 0 0 0 1 0 0.60000000894069694
1 -2.48473574343716 0.64873577776943403 1.5 -0.70710678118654702 -0.70710678118654802 0 0.70710678118654802 -0.70710678118654702 0 0 0 1 
10 0 6.2831853071795862 -0.86602540378443749 0
3 4.7999999999999998 0 1.5 0 0 1 1 0 -0 -0 1 0 0.75
1.0471975511966001
Triangulations 0

TShapes 130
Ve
1e-07
1.82437042099823 6.34284435054668 1.5
0 0

0101101
*
Ve
1e-07
1.82437042099823 6.34284435054668 0
0 0

0101101
*
Ed
 1e-07 1 1 0
1  1 0 0 1.5
2  1 1 0 0 1.5
2  2 2 0 0 1.5
4 C0 1 0 2 0
0

0101000
+130 0 -129 0 *
Ve
1e-07
-5.20417704146052 4.05913084408601 1.5
0 0

0101101
*
Ed
 1e-07 1 1 0
1  2 0 0 1.03034157400161
2  3 1 0 0 1.03034157400161
4 C0 1 0 3 0
0

0101000
+127 0 -130 0 *
Ve
1e-07
-5.20417704146052 4.05913084408601 0
0 0

0101101
*
Ed
 1e-07 1 1 0
1  3 0 0 1.5
2  4 1 0 0 1.5
2  5 4 0 0 1.5
4 C0 1 0 4 0
0

0101000
+127 0 -125 0 *
Ed
 1e-07 1 1 0
1  4 0 0 1.03034157400161
2  6 1 0 0 1.03034157400161
4 C0 1 0 5 0
0

0101000
+125 0 -129 0 *
Wi

0101100
-128 0 -126 0 +124 0 +123 0 *
Fa
0  1e-07 1 0

0111000
+122 0 *
Ve
1e-07
-5.46864198730989 3.69512607402056 0
0 0

0101101
*
Ed
 1e-07 1 1 0
1  5 0 0 0.0681851215216258
2  7 4 0 0 0.0681851215216258
4 C0 4 0 5 0
0

0101000
+125 0 -120 0 *
Ve
1e-07
-5.46864198730989 3.69512607402056 1.5
0 0

0101101
*
Ed
 1e-07 1 1 0
1  6 0 0 1.5
2  8 4 0 0 1.5
2  9 6 0 0 1.5
4 C0 4 0 6 0
0

0101000
+118 0 -120 0 *
Ed
 1e-07 1 1 0
1  7 0 0 0.0681851215216258
2  10 4 0 0 0.0681851215216258
4 C0 4 0 3 0
0

0101000
+127 0 -118 0 *
Wi

0101100
+119 0 -117 0 -116 0 +124 0 *
Fa
0  1e-07 4 0

0111000
+115 0 *
Ve
1e-07
-5.46864198730989 -3.69512607402056 1.5
0 0

0101101
*
Ed
 1e-07 1 1 0
1  8 0 0 1.03034157400162
2  11 6 0 0 1.03034157400162
4 C0 6 0 3 0
0

0101000
+113 0 -118 0 *
Ve
1e-07
-5.46864198730989 -3.69512607402056 0
0 0

0101101
*
Ed
 1e-07 1 1 0
1  9 0 0 1.5
2  12 6 0 0 1.5
2  13 7 0 0 1.5
4 C0 6 0 7 0
0

0101000
+113 0 -111 0 *
Ed
 1e-07 1 1 0
1  10 0 0 1.03034157400162
2  14 6 0 0 1.03034157400162
4 C0 6 0 5 0
0

0101000
+111 0 -120 0 *
Wi

0101100
-117 0 -112 0 +110 0 +109 0 *
Fa
0  1e-07 6 0

0111000
+108 0 *
Ve
1e-07
-5.20417704146052 -4.05913084408602 0
0 0

0101101
*
Ed
 1e-07 1 1 0
1  11 0 0 0.0681851215216265
2  15 7 0 0 0.0681851215216265
4 C0 7 0 5 0
0

0101000
+111 0 -106 0 *
Ve
1e-07
-5.20417704146052 -4.05913084408602 1.5
0 0

0101101
*
Ed
 1e-07 1 1 0
1  12 0 0 1.5
2  16 7 0 0 1.5
2  17 8 0 0 1.5
4 C0 7 0 8 0
0

0101000
+104 0 -106 0 *
Ed
 1e-07 1 1 0
1  13 0 0 0.0681851215216265
2  18 7 0 0 0.0681851215216265
4 C0 7 0 3 0
0

0101000
+113 0 -104 0 *
Wi

0101100
+105 0 -103 0 -102 0 +110 0 *
Fa
0  1e-07 7 0

0111000
+101 0 *
Ve
1e-07
1.8145121981392 -6.34567154610757 1.5
0 0

0101101
*
Ed
 1e-07 1 1 0
1  14 0 0 1.02903946749509
2  19 8 0 0 1.02903946749509
4 C0 8 0 3 0
0

0101000
+99 0 -104 0 *
Ve
1e-07
1.8145121981392 -6.34567154610757 0
0 0

0101101
*
Ed
 1e-07 1 1 0
1  15 0 0 1.5
2  20 8 0 0 1.5
2  21 9 0 0 1.5
4 C0 8 0 9 0
0

0101000
+99 0 -97 0 *
Ed
 1e-07 1 1 0
1  16 0 0 1.02903946749509
2  22 8 0 0 1.02903946749509
4 C0 8 0 5 0
0

0101000
+97 0 -106 0 *
Wi

0101100
-103 0 -98 0 +96 0 +95 0 *
Fa
0  1e-07 8 0

0111000
+94 0 *
Ve
1e-07
2.26451221602058 -6.19935370113439 0
0 0

0101101
*
Ed
 1e-07 1 1 0
1  17 0 0 0.0717108416760039
2  23 9 0 0 0.0717108416760039
4 C0 9 0 5 0
0

0101000
+97 0 -92 0 *
Ve
1e-07
2.26451221602058 -6.19935370113439 1.5
0 0

0101101
*
Ed
 1e-07 1 1 0
1  18 0 0 1.5
2  24 9 0 0 1.5
2  25 10 0 0 1.5
4 C0 9 0 10 0
0

0101000
+90 0 -92 0 *
Ed
 1e-07 1 1 0
1  19 0 0 0.0717108416760039
2  26 9 0 0 0.0717108416760039
4 C0 9 0 3 0
0

0101000
+99 0 -90 0 *
Wi

0101100
+91 0 -89 0 -88 0 +96 0 *
Fa
0  1e-07 9 0

0111000
+87 0 *
Ve
1e-07
6.59616380059288 -0.225000008940694 1.5
0 0

0101101
*
Ed
 1e-07 1 1 0
1  20 0 0 1.02868504260125
2  27 10 0 0 1.02868504260125
4 C0 10 0 3 0
0

0101000
+85 0 -90 0 *
Ve
1e-07
6.59616380059288 -0.225000008940694 0
0 0

0101101
*
Ed
 1e-07 1 1 0
1  21 0 0 1.5
2  28 10 0 0 1.5
2  29 11 0 0 1.5
4 C0 10 0 11 0
0

0101000
+85 0 -83 0 *
Ed
 1e-07 1 1 0
1  22 0 0 1.02868504260125
2  30 10 0 0 1.02868504260125
4 C0 10 0 5 0
0

0101000
+83 0 -92 0 *
Wi

0101100
-89 0 -84 0 +82 0 +81 0 *
Fa
0  1e-07 10 0

0111000
+80 0 *
Ve
1e-07
6.59616380059288 0.225000008940697 0
0 0

0101101
*
Ed
 1e-07 1 1 0
1  23 0 0 0.0681950330312174
2  31 11 0 0 0.0681950330312174
4 C0 11 0 5 0
0

0101000
+83 0 -78 0 *
Ve
1e-07
6.59616380059288 0.225000008940697 1.5
0 0

0101101
*
Ed
 1e-07 1 1 0
1  24 0 0 1.5
2  32 11 0 0 1.5
2  33 12 0 0 1.5
4 C0 11 0 12 0
0

0101000
+76 0 -78 0 *
Ed
 1e-07 1 1 0
1  25 0 0 0.0681950330312174
2  34 11 0 0 0.0681950330312174
4 C0 11 0 3 0
0

0101000
+85 0 -76 0 *
Wi

0101100
+77 0 -75 0 -74 0 +82 0 *
Fa
0  1e-07 11 0

0111000
+73 0 *
Ve
1e-07
2.25228369221542 6.20380690044876 1.5
0 0

0101101
*
Ed
 1e-07 1 1 0
1  26 0 0 1.03033742154808
2  35 12 0 0 1.03033742154808
4 C0 12 0 3 0
0

0101000
+71 0 -76 0 *
Ve
1e-07
2.25228369221542 6.20380690044876 0
0 0

0101101
*
Ed
 1e-07 1 1 0
1  27 0 0 1.5
2  36 12 0 0 1.5
2  37 2 0 0 1.5
4 C0 12 0 2 0
0

0101000
+71 0 -69 0 *
Ed
 1e-07 1 1 0
1  28 0 0 1.03033742154808
2  38 12 0 0 1.03033742154808
4 C0 12 0 5 0
0

0101000
+69 0 -78 0 *
Wi

0101100
-75 0 -70 0 +68 0 +67 0 *
Fa
0  1e-07 12 0

0111000
+66 0 *
Ve
1e-07
-3.14531726453666 1.60246039121334 1.5
0 0

0101101
*
Ve
1e-07
-3.14531726453666 1.60246039121334 0
0 0

0101101
*
Ed
 1e-07 1 1 0
1  29 0 0 1.5
2  39 13 0 0 1.5
2  40 14 0 0 1.5
4 G1 13 0 14 0
0

0101000
+64 0 -63 0 *
Ve
1e-07
-3.14531726453666 -1.60246039121334 1.5
0 0

0101101
*
Ed
 1e-07 1 1 0
1  30 0 0 5.3407876773587
2  41 13 0 0 5.3407876773587
4 C0 13 0 3 0
0

0101000
+61 0 -64 0 *
Ve
1e-07
-3.14531726453666 -1.60246039121334 0
0 0

0101101
*
Ed
 1e-07 1 1 0
1  31 0 0 1.5
2  42 13 0 0 1.5
2  43 15 0 0 1.5
4 G1 13 0 15 0
0

0101000
+61 0 -59 0 *
Ed
 1e-07 1 1 0
1  32 0 0 5.3407876773587
2  44 13 0 0 5.3407876773587
4 C0 13 0 5 0
0

0101000
+59 0 -63 0 *
Wi

0101100
-62 0 -60 0 +58 0 +57 0 *
Fa
0  1e-07 13 0

0111000
+56 0 *
Ve
1e-07
-3.09014188182088 -1.25414191615315 1.5
0 0

0101101
*
Ed
 1e-07 1 1 0
1  33 0 0 1.25659697830786
2  45 15 0 0 1.25659697830786
4 C0 15 0 3 0
0

0101000
+54 0 -61 0 *
Ve
1e-07
-3.09014188182088 -1.25414191615315 0
0 0

0101101
*
Ed
 1e-07 1 1 0
1  34 0 0 1.5
2  46 15 0 0 1.5
4 G1 15 0 16 0
0

0101000
+54 0 -52 0 *
Ed
 1e-07 1 1 0
1  35 0 0 1.25659697830786
2  47 15 0 0 1.25659697830786
4 C0 15 0 5 0
0

0101000
+52 0 -59 0 *
Wi

0101100
-58 0 -53 0 +51 0 +50 0 *
Fa
0  1e-07 15 0

0111000
+49 0 *
Ve
1e-07
-2.26026404070168 -0.424264075033956 0
0 0

0101101
*
Ed
 1e-07 1 1 0
1  36 0 -0.295757909796352 0.877866588227321
4 C0 16 0 5 0
0

0101000
+47 0 -52 0 *
Ve
1e-07
-2.26026404070168 -0.424264075033956 1.5
0 0

0101101
*
Ed
 1e-07 1 1 0
1  37 0 0 1.5
2  48 17 0 0 1.5
4 G1 16 0 17 0
0

0101000
+45 0 -47 0 *
Ed
 1e-07 1 1 0
1  38 0 -0.295757909796352 0.877866588227321
4 C0 16 0 3 0
0

0101000
+45 0 -54 0 *
Wi

0101100
-46 0 -44 0 +43 0 +51 0 *
Fa
0  1e-07 16 0

0111000
+42 0 *
Ve
1e-07
-2.26026404070168 0.424264075033955 0
0 0

0101101
*
Ed
 1e-07 1 1 0
1  39 0 0 1.5707963267949
2  49 17 0 0 1.5707963267949
4 C0 17 0 5 0
0

0101000
+47 0 -40 0 *
Ve
1e-07
-2.26026404070168 0.424264075033955 1.5
0 0

0101101
*
Ed
 1e-07 1 1 0
1  40 0 0 1.5
2  50 17 0 0 1.5
4 G1 17 0 18 0
0

0101000
+38 0 -40 0 *
Ed
 1e-07 1 1 0
1  41 0 0 1.5707963267949
2  51 17 0 0 1.5707963267949
4 C0 17 0 3 0
0

0101000
+45 0 -38 0 *
Wi

0101100
+39 0 -37 0 -36 0 +44 0 *
Fa
0  1e-07 17 0

0111000
+35 0 *
Ve
1e-07
-3.09014188182088 1.25414191615315 0
0 0

0101101
*
Ed
 1e-07 1 1 0
1  42 0 -0.317450926377497 0.856173571646177
4 C0 18 0 5 0
0

0101000
+40 0 -33 0 *
Ve
1e-07
-3.09014188182088 1.25414191615315 1.5
0 0

0101101
*
Ed
 1e-07 1 1 0
1  43 0 0 1.5
2  52 14 0 0 1.5
4 G1 18 0 14 0
0

0101000
+31 0 -33 0 *
Ed
 1e-07 1 1 0
1  44 0 -0.317450926377497 0.856173571646177
4 C0 18 0 3 0
0

0101000
+38 0 -31 0 *
Wi

0101100
+32 0 -30 0 -29 0 +37 0 *
Fa
0  1e-07 18 0

0111000
-28 0 *
Ed
 1e-07 1 1 0
1  45 0 0 1.25659697830787
2  53 14 0 0 1.25659697830787
4 C0 14 0 3 0
0

0101000
+64 0 -31 0 *
Ed
 1e-07 1 1 0
1  46 0 0 1.25659697830787
2  54 14 0 0 1.25659697830787
4 C0 14 0 5 0
0

0101000
+63 0 -33 0 *
Wi

0101100
-30 0 -26 0 +62 0 +25 0 *
Fa
0  1e-07 14 0

0111000
+24 0 *
Ed
 1e-07 1 1 0
1  47 0 0 0.0681851215216273
2  55 2 0 0 0.0681851215216273
4 C0 2 0 5 0
0

0101000
+69 0 -129 0 *
Ed
 1e-07 1 1 0
1  48 0 0 0.0681851215216273
2  56 2 0 0 0.0681851215216273
4 C0 2 0 3 0
0

0101000
+71 0 -130 0 *
Wi

0101100
+22 0 -128 0 -21 0 +68 0 *
Fa
0  1e-07 2 0

0111000
+20 0 *
Ve
1e-07
4.05 0 1.5
0 0

0101101
*
Ve
1e-05
5.55 0 1.5
0 0

0101101
*
Ed
 1e-07 1 1 0
1  49 0 0 3.14159265358979
2  57 19 0 0 3.14159265358979
4 C0 3 0 19 0
0

0101000
+18 0 -17 0 *
Ed
 1e-07 1 1 0
1  49 0 3.14159265358979 6.28318530717959
2  58 19 0 3.14159265358979 6.28318530717959
4 C0 3 0 19 0
0

0101000
+17 0 -18 0 *
Wi

0101100
+16 0 +15 0 *
Wi

0101100
-60 0 -53 0 -43 0 +36 0 +29 0 -26 0 *
Wi

0101100
-126 0 +116 0 -112 0 +102 0 -98 0 +88 0 -84 0 +74 0 -70 0 +21 0 
*
Fa
0  1e-07 3 0

0101000
+14 0 +13 0 +12 0 *
Wi

0101100
+57 0 +25 0 -32 0 -39 0 +46 0 +50 0 *
Wi

0101100
+123 0 -22 0 +67 0 -77 0 +81 0 -91 0 +95 0 -105 0 +109 0 -119 0 
*
Fa
0  1e-07 5 0

0111000
-10 0 -9 0 *
Ve
1e-05
4.8 0 1.06698729810778
0 0

0101101
*
Ed
 1e-07 1 1 1
2  59 19 0 0 6.28318530717959
0

0101000
+7 0 -7 0 *
Ed
 1e-05 1 1 0
1  50 0 -0.866025403784437 0
3  60 61CN 19 0 -0.866025403784437 0
0

0101000
+7 0 -17 0 *
Wi

0101100
+6 0 +5 0 +15 0 +16 0 -5 0 *
Fa
0  1e-07 19 0

0111000
+4 0 *
Sh

0101100
-121 0 +114 0 -107 0 +100 0 -93 0 +86 0 -79 0 +72 0 -65 0 -55 0 
-48 0 +41 0 +34 0 -27 0 -23 0 +19 0 +11 0 -8 0 -3 0 *
So

0100000
+2 0 *

+1 4 