DBRep_DrawableShape

CASCADE Topology V3, (c) Open Cascade
Locations 1
1
-0.911315363376039 0.411709009465178 -1.45322367429304e-15 -10.1584183935154 
-0.411709009465178 -0.911315363376039 -1.18108186957254e-15 -57.6112535512141 
-1.81060710742402e-15 -4.78032773671817e-16               1        -138.275 
Curve2ds 25
1 3.1415926535897931 3.3941125496954285 -1 0 
1 6.2831853071795862 0 0 1 
1 0 0 0 1 
1 0 0 1 0 
1 9.4247779607693793 3.3941125496954285 -1 0 
1 0 -0.42468833278064022 1 0 
1 0 -8.3996999999999993 1 0 
1 0 0 1 0 
1 6.2831853071795862 0 0 1 
1 0 0 0 1 
1 0 1.5000000000000018 1 0 
1 9.4247779607693793 0 -1 0 
1 9.4247779607693793 -0.42426406871192762 -1 0 
1 9.4247779607693793 0 0 1 
1 3.1415926535897931 0 0 1 
1 0 1.8000000000000007 1 0 
1 0 6 1 0 
1 9.4247779607693793 0 -1 0 
1 6.2831853071795862 0 0 1 
1 0 0 0 1 
1 9.4247779607693793 -0.42426406871192912 -1 0 
1 9.4247779607693793 0 0 1 
1 3.1415926535897931 0 0 1 
1 6.2831853071795862 0 0 1 
1 0 0 0 1 
Curves 14
2 0 0 0 0 0 1 1 0 -0 -0 1 0 2.3999999999999999
7 0 0  1 2 2  0 0 2.3999999999999999  -2.4000000000000021 -5.8783046359073001e-16 8.8817841970012523e-16 
 0 2 3.3941125496954285 2
2 0 0 -1.3117993047615302e-16 0 0 1 1 0 -0 -0 1 0 3.1497000000000002
2 0 0 0.30029999999999996 0 0 1 1 0 -0 -0 1 0 3.4499999999999997
7 0 0  1 2 2  3.4499999999999997 0 0.30030000000000001  3.4499999999999997 0 10.200000000000001 
 -8.3996999999999993 2 1.5000000000000018 2
2 0 0 10.200000000000001 0 0 1 1 0 -0 -0 1 0 3.4499999999999997
2 0 0 10.5 0 0 1 1 0 -0 -0 1 0 3.1499999999999999
7 0 0  1 2 2  3.1500000000000004 3.8576374173141632e-16 10.5  3.4499999999999997 4.2250314570583683e-16 10.200000000000001 
 -0.42426406871192762 2 0 2
2 0 0 10.5 0 0 1 1 0 -0 -0 1 0 1.0600000000000001
2 0 0 14.699999999999999 0 0 1 1 0 -0 -0 1 0 1.0600000000000001
7 0 0  1 2 2  1.0600000000000001 -2.596251214192389e-16 10.5  1.0600000000000001 -2.596251214192389e-16 14.699999999999999 
 1.8000000000000007 2 6 2
2 0 0 15 0 0 1 1 0 -0 -0 1 0 0.76000000000000001
7 0 0  1 2 2  0.75999999999999934 9.3073156735198773e-17 15  1.0600000000000001 1.2981256070961945e-16 14.699999999999999 
 -0.42426406871192912 2 0 2
7 0 0  1 2 2  3.1497000000000002 0 0  3.4499999999999997 0 0.30029999999999996 
 -0.42468833278064022 2 0 2
Polygon3D 0
PolygonOnTriangulations 0
Surfaces 9
10 0 6.2831853071795862 0 3.3941125496954285
3 0 0 2.3999999999999999 0 0 -1 -1 0 0 0 1 0 0
0.78539816339744895
1 3.0151133903837399 0 -1.3117993047615302e-16 0 0 1 1 0 -0 -0 1 0 
10 0 6.2831853071795862 -0.42468833278064022 0
3 0 0 0.30029999999999996 0 0 1 1 0 -0 -0 1 0 3.4499999999999997
0.78539816339744795
10 0 6.2831853071795862 -8.3996999999999993 1.5000000000000018
2 0 0 8.6999999999999993 0 0 1 1 0 -0 -0 1 0 3.4499999999999997
10 3.1415926535897931 9.4247779607693793 -0.42426406871192762 0
3 0 0 10.200000000000001 0 0 -1 -1 0 0 0 1 0 3.4499999999999997
0.78539816339744795
1 1.60465707451546 0 10.5 0 0 -1 -1 0 0 0 1 0 
10 0 6.2831853071795862 1.8000000000000007 6
2 0 0 8.6999999999999993 0 0 1 1 0 -0 -0 1 0 1.0600000000000001
10 3.1415926535897931 9.4247779607693793 -0.42426406871192912 0
3 0 0 14.699999999999999 0 0 -1 -1 0 0 0 1 0 1.0600000000000001
0.78539816339744895
1 0.34516124248741603 0 15 0 0 -1 -1 0 0 0 1 0 
Triangulations 0

TShapes 48
Ve
1e-07
2.4 0 0
0 0

0101101
*
Ve
1e-05
-2.4 0 8.88178419700125e-16
0 0

0101101
*
Ed
 1e-07 1 1 0
1  1 0 0 3.14159265358979
2  1 1 0 0 3.14159265358979
4 C0 1 0 2 0
0

0101000
+48 0 -47 0 *
Ve
1e-05
0 0 2.4
0 0

0101101
*
Ed
 1e-05 1 1 0
1  2 0 0 3.39411254969543
3  2 3CN 1 0 0 3.39411254969543
0

0101000
-47 0 +45 0 *
Ed
 1e-07 1 1 1
2  4 1 0 0 6.28318530717959
0

0101000
+45 0 -45 0 *
Ed
 1e-07 1 1 0
1  1 0 3.14159265358979 6.28318530717959
2  5 1 0 3.14159265358979 6.28318530717959
4 C0 1 0 2 0
0

0101000
+47 0 -48 0 *
Wi

0101100
+46 0 -44 0 +43 0 +44 0 +42 0 *
Fa
0  1e-07 1 0

0111000
+41 0 *
Ve
1e-05
3.1497 0 -1.31179930476153e-16
0 0

0101101
*
Ed
 1e-07 1 1 0
1  3 0 0 6.28318530717959
2  6 3 0 0 6.28318530717959
4 C0 2 0 3 0
0

0101000
+39 0 -39 0 *
Wi

0101100
-38 0 *
Wi

0101100
+46 0 +42 0 *
Fa
0  1e-07 2 0

0101000
-37 0 -36 0 *
Ve
1e-05
3.45 0 0.3003
0 0

0101101
*
Ed
 1e-07 1 1 0
1  4 0 0 6.28318530717959
2  7 4 0 0 6.28318530717959
2  8 3 0 0 6.28318530717959
4 C0 4 0 3 0
0

0101000
-34 0 +34 0 *
Ve
1e-05
3.45 0 10.2
0 0

0101101
*
Ed
 1e-05 1 1 0
1  5 0 -8.3997 1.5
3  9 10CN 4 0 -8.3997 1.5
0

0101000
+34 0 -32 0 *
Ed
 1e-07 1 1 0
1  6 0 0 6.28318530717959
2  11 4 0 0 6.28318530717959
2  12 5 0 0 6.28318530717959
4 C0 4 0 5 0
0

0101000
+32 0 -32 0 *
Wi

0101100
+33 0 +31 0 -30 0 -31 0 *
Fa
0  1e-07 4 0

0101000
+29 0 *
Ve
1e-05
3.15 0 10.5
0 0

0101101
*
Ed
 1e-07 1 1 0
1  7 0 0 6.28318530717959
2  13 5 0 0 6.28318530717959
4 C0 5 0 6 0
0

0101000
-27 0 +27 0 *
Ed
 1e-05 1 1 0
1  8 0 -0.424264068711928 0
3  14 15CN 5 0 -0.424264068711928 0
0

0101000
+27 0 -32 0 *
Wi

0101100
-26 0 +25 0 +30 0 -25 0 *
Fa
0  1e-07 5 0

0111000
+24 0 *
Ve
1e-05
1.06 0 10.5
0 0

0101101
*
Ed
 1e-07 1 1 0
1  9 0 0 6.28318530717959
2  16 7 0 0 6.28318530717959
4 C0 6 0 7 0
0

0101000
+22 0 -22 0 *
Wi

0101100
-21 0 *
Wi

0101100
+26 0 *
Fa
0  1e-07 6 0

0101000
-20 0 -19 0 *
Ve
1e-05
1.06 0 14.7
0 0

0101101
*
Ed
 1e-07 1 1 0
1  10 0 0 6.28318530717959
2  17 7 0 0 6.28318530717959
2  18 8 0 0 6.28318530717959
4 C0 7 0 8 0
0

0101000
+17 0 -17 0 *
Ed
 1e-05 1 1 0
1  11 0 1.8 6
3  19 20CN 7 0 1.8 6
0

0101000
-17 0 +22 0 *
Wi

0101100
-16 0 -15 0 +21 0 +15 0 *
Fa
0  1e-07 7 0

0101000
+14 0 *
Ve
1e-05
0.76 0 15
0 0

0101101
*
Ed
 1e-07 1 1 0
1  12 0 0 6.28318530717959
2  21 8 0 0 6.28318530717959
4 C0 8 0 9 0
0

0101000
-12 0 +12 0 *
Ed
 1e-05 1 1 0
1  13 0 -0.424264068711929 0
3  22 23CN 8 0 -0.424264068711929 0
0

0101000
+12 0 -17 0 *
Wi

0101100
-11 0 +10 0 +16 0 -10 0 *
Fa
0  1e-07 8 0

0111000
+9 0 *
Wi

0101100
+11 0 *
Fa
0  1e-07 9 0

0111000
-7 0 *
Ed
 1e-05 1 1 0
1  14 0 -0.42468833278064 0
3  24 25CN 3 0 -0.42468833278064 0
0

0101000
+39 0 -34 0 *
Wi

0101100
+38 0 +5 0 -33 0 -5 0 *
Fa
0  1e-07 3 0

0111000
+4 0 *
Sh

0101100
-40 0 -35 0 +28 0 +23 0 -18 0 +13 0 +8 0 -6 0 +3 0 *
So

0100000
+2 0 *

+1 1 