DBRep_DrawableShape

CASCADE Topology V3, (c) Open Cascade
Locations 3
1
-0.572632652771193 -0.586671705437081 0.572632652771193 59.1182638991394 
0.414839541244837 -0.809824863806704 -0.414839541244836 -42.3767283634839 
0.707106781186547 5.55111512312578e-16 0.707106781186548 -143.609910837631 
1
              1               0               0               0 
              0               1               0               0 
              0               0               1               0 
2  1 1 2 1 0
Curve2ds 4
1 6.2831853071795862 0 0 1 
1 0 0 0 1 
1 0 -1.5707963267948966 1 0 
1 0 1.5707963267948966 1 0 
Curves 1
8 4.7123889803846897 7.8539816339744828
2 4.2491541732359803e-16 0 0 0 1 -0 -1 0 0 0 0 1 1.5
Polygon3D 0
PolygonOnTriangulations 0
Surfaces 1
4 4.2491541732359803e-16 0 0 0 0 1 -1 0 0 0 -1 0 1.5
Triangulations 0

TShapes 9
Ve
1e-07
3.33066907387547e-16 0 -1.5
0 0

0101101
*
Ve
1e-07
3.33066907387547e-16 0 1.5
0 0

0101101
*
Ed
 1e-07 1 1 0
1  1 0 -1.5707963267949 1.5707963267949
3  1 2CN 1 0 -1.5707963267949 1.5707963267949
0

0101000
+9 0 -8 0 *
Ed
 1e-07 1 1 1
2  3 1 0 0 6.28318530717959
0

0101000
+9 0 -9 0 *
Ed
 1e-07 1 1 1
2  4 1 0 0 6.28318530717959
0

0101000
+8 0 -8 0 *
Wi

0101100
-7 0 +6 0 +7 0 -5 0 *
Fa
0  1e-07 1 0

0111000
+4 0 *
Sh

0101100
+3 0 *
So

0100000
+2 0 *

+1 3 