DBRep_DrawableShape

CASCADE Topology V3, (c) Open Cascade
Locations 1
1
              1               0               0 47.5235506534222 
              0               1               0 12.733897019044 
              0               0               1              15 
Curve2ds 20
1 0 5.25 1 0 
1 0 0 1 0 
1 0 0.84852813742385702 1 0 
1 0 -4.6500000000000004 1 0 
1 6.2831853071795862 0 0 1 
1 0 0 0 1 
1 0 3.75 1 0 
1 6.2831853071795862 0 0 1 
1 0 0 0 1 
1 0 3.75 1 0 
1 0 4.6500000000000004 1 0 
1 1.4202280540182102 4.6500000000000004 0 1 
1 -6.2831853071795862 5.25 1 0 
1 6.2831853071795862 0 0 1 
1 0 0 0 1 
1 0 5.25 1 0 
1 4.8629572531613761 4.6500000000000004 0 1 
1 0 4.6500000000000004 1 0 
1 4.5618207076080033 4.6500000000000004 0 1 
1 1.7213645995715829 4.6500000000000004 0 1 
Curves 19
1 -0.45000000000000001 0 10.5 1.0966092127768699e-16 -1 0 
2 0 0 10.5 0 0 1 1 0 -0 -0 1 0 3
2 0 0 0 0 0 1 1 0 -0 -0 1 0 0.90000000000000002
2 0 0 0.59999999999999998 0 0 1 1 0 -0 -0 1 0 1.5
7 0 0  1 2 2  0.90000000000000002 -2.2043642384652358e-16 0  1.4999999999999998 -3.6739403974420589e-16 0.6000000000000002 
 0 2 0.84852813742385702 2
2 0 0 9 0 0 1 1 0 -0 -0 1 0 1.5
7 0 0  1 2 2  1.5 -3.6739403974420594e-16 0.59999999999999964  1.5 -3.6739403974420594e-16 9 
 -4.6500000000000004 2 3.75 2
2 0 0 9 0 0 1 1 0 -0 -0 1 0 3
2 0 0 9.9000000000000004 0 0 1 1 0 -0 -0 1 0 3
1 0.45000000000000001 2.9660579899927799 9.9000000000000004 0 0 1 
2 0 0 10.5 0 0 1 1 0 -0 -0 1 0 3
7 0 0  1 2 2  3 -7.3478807948841188e-16 9  3 -7.3478807948841188e-16 10.5 
 3.75 2 5.25 2
1 0.45000000000000001 -2.9660579899927799 9.9000000000000004 0 0 1 
2 0 0 9.9000000000000004 0 0 1 1 0 -0 -0 1 0 3
1 -0.45000000000000001 -2.9660579899927799 9.9000000000000004 0 0 1 
1 -0.45000000000000001 2.9660579899927799 9.9000000000000004 0 0 1 
1 0.45000000000000001 0 10.5 -1.0966092127768699e-16 -1 0 
1 -0.45000000000000001 0 9.9000000000000004 1.0966092127768699e-16 -1 0 
1 0.45000000000000001 0 9.9000000000000004 -1.0966092127768699e-16 -1 0 
Polygon3D 0
PolygonOnTriangulations 0
Surfaces 10
1 1.5 0 10.5 0 0 -1 -1 0 0 0 1 0 
1 -0.45000000000000001 0 9.9000000000000004 -1 -1.0966092127768699e-16 0 1.0966092127768699e-16 -1 0 0 0 1 
10 0 6.2831853071795862 3.75 5.25
2 0 0 5.25 0 0 1 1 0 -0 -0 1 0 3
1 0.45000000000000001 0 2.2361669807513499e-16 0 0 1 1 0 -0 -0 1 0 
10 0 6.2831853071795862 0 0.84852813742385702
3 0 0 0 0 0 1 1 0 -0 -0 1 0 0.90000000000000002
0.78539816339744795
10 0 6.2831853071795862 -4.6500000000000004 3.75
2 0 0 5.25 0 0 1 1 0 -0 -0 1 0 1.5
1 2.25 0 9 0 0 1 1 0 -0 -0 1 0 
1 0 0 9.9000000000000004 0 0 1 1 0 -0 -0 1 0 
1 0.45000000000000001 0 9.9000000000000004 -1 1.0966092127768699e-16 0 -1.0966092127768699e-16 -1 0 0 0 1 
1 1.5 0 10.5 0 0 -1 -1 0 0 0 1 0 
Triangulations 0

TShapes 56
Ve
1e-07
-0.45 2.96605798999278 10.5
0 0

0101101
*
Ve
1e-07
-0.45 -2.96605798999278 10.5
0 0

0101101
*
Ed
 1e-07 1 1 0
1  1 0 -2.96605798999278 2.96605798999278
4 C0 1 0 2 0
0

0101000
+56 0 -55 0 *
Ed
 1e-07 1 1 0
1  2 0 1.72136459957158 4.561820707608
2  1 3 0 1.72136459957158 4.561820707608
4 C0 1 0 3 0
0

0101000
-55 0 +56 0 *
Wi

0101100
-54 0 +53 0 *
Fa
0  1e-07 1 0

0101000
-52 0 *
Ve
1e-05
0.9 0 0
0 0

0101101
*
Ed
 1e-07 1 1 0
1  3 0 0 6.28318530717959
2  2 5 0 0 6.28318530717959
4 C0 4 0 5 0
0

0101000
+50 0 -50 0 *
Wi

0101100
-49 0 *
Fa
0  1e-07 4 0

0101000
-48 0 *
Ve
1e-05
1.5 0 0.6
0 0

0101101
*
Ed
 1e-07 1 1 0
1  4 0 0 6.28318530717959
2  3 5 0 0 6.28318530717959
2  4 6 0 0 6.28318530717959
4 C0 5 0 6 0
0

0101000
+46 0 -46 0 *
Ed
 1e-05 1 1 0
1  5 0 0 0.848528137423857
3  5 6CN 5 0 0 0.848528137423857
0

0101000
-46 0 +50 0 *
Wi

0101100
-45 0 -44 0 +49 0 +44 0 *
Fa
0  1e-07 5 0

0101000
+43 0 *
Ve
1e-05
1.5 0 9
0 0

0101101
*
Ed
 1e-07 1 1 0
1  6 0 0 6.28318530717959
2  7 6 0 0 6.28318530717959
4 C0 6 0 7 0
0

0101000
-41 0 +41 0 *
Ed
 1e-05 1 1 0
1  7 0 -4.65 3.75
3  8 9CN 6 0 -4.65 3.75
0

0101000
-41 0 +46 0 *
Wi

0101100
-40 0 -39 0 +45 0 +39 0 *
Fa
0  1e-07 6 0

0111000
+38 0 *
Ve
1e-05
3 0 9
0 0

0101101
*
Ed
 1e-07 1 1 0
1  8 0 0 6.28318530717959
2  10 3 0 0 6.28318530717959
4 C0 7 0 3 0
0

0101000
+36 0 -36 0 *
Wi

0101100
-35 0 *
Wi

0101100
+40 0 *
Fa
0  1e-07 7 0

0101000
-34 0 -33 0 *
Ve
1e-07
-0.45 2.96605798999278 9.9
0 0

0101101
*
Ve
1e-07
0.45 2.96605798999278 9.9
0 0

0101101
*
Ed
 1e-07 1 1 0
1  9 0 1.42022805401821 1.72136459957158
2  11 3 0 1.42022805401821 1.72136459957158
4 C0 3 0 8 0
0

0101000
-31 0 +30 0 *
Ve
1e-07
0.45 2.96605798999278 10.5
0 0

0101101
*
Ed
 1e-07 1 1 0
1  10 0 0 0.6
2  12 3 0 0 0.6
4 C0 3 0 9 0
0

0101000
+30 0 -28 0 *
Ve
1e-05
3 -7.34788079488412e-16 10.5
0 0

0101101
*
Ed
 1e-07 1 1 0
1  11 0 6.28318530717959 7.7034133611978
2  13 3 0 6.28318530717959 7.7034133611978
4 C0 3 0 10 0
0

0101000
-28 0 +26 0 *
Ed
 1e-05 1 1 0
1  12 0 3.75 5.25
3  14 15CN 3 0 3.75 5.25
0

0101000
-26 0 +36 0 *
Ve
1e-07
0.45 -2.96605798999278 10.5
0 0

0101101
*
Ed
 1e-07 1 1 0
1  11 0 4.86295725316138 6.28318530717959
2  16 3 0 4.86295725316138 6.28318530717959
4 C0 3 0 10 0
0

0101000
-26 0 +23 0 *
Ve
1e-07
0.45 -2.96605798999278 9.9
0 0

0101101
*
Ed
 1e-07 1 1 0
1  13 0 0 0.6
2  17 3 0 0 0.6
4 C0 3 0 9 0
0

0101000
-23 0 +21 0 *
Ve
1e-07
-0.45 -2.96605798999278 9.9
0 0

0101101
*
Ed
 1e-07 1 1 0
1  14 0 4.561820707608 4.86295725316138
2  18 3 0 4.561820707608 4.86295725316138
4 C0 3 0 8 0
0

0101000
-21 0 +19 0 *
Ed
 1e-07 1 1 0
1  15 0 0 0.6
2  19 3 0 0 0.6
4 C0 3 0 2 0
0

0101000
+19 0 -55 0 *
Ed
 1e-07 1 1 0
1  16 0 0 0.6
2  20 3 0 0 0.6
4 C0 3 0 2 0
0

0101000
-56 0 +31 0 *
Wi

0101100
-29 0 +27 0 -25 0 -24 0 +35 0 +24 0 -22 0 -20 0 -18 0 +17 0 
-53 0 -16 0 *
Fa
0  1e-07 3 0

0111000
+15 0 *
Ed
 1e-07 1 1 0
1  17 0 -2.96605798999278 2.96605798999278
4 C0 10 0 9 0
0

0101000
+28 0 -23 0 *
Wi

0101100
+22 0 +25 0 +13 0 *
Fa
0  1e-07 10 0

0111000
-12 0 *
Ed
 1e-07 1 1 0
1  18 0 -2.96605798999278 2.96605798999278
4 C0 2 0 8 0
0

0101000
+31 0 -19 0 *
Wi

0101100
+54 0 -17 0 -10 0 +16 0 *
Fa
0  1e-07 2 0

0111000
-9 0 *
Ed
 1e-07 1 1 0
1  19 0 -2.96605798999278 2.96605798999278
4 C0 9 0 8 0
0

0101000
+30 0 -21 0 *
Wi

0101100
-13 0 -27 0 +7 0 +20 0 *
Fa
0  1e-07 9 0

0111000
+6 0 *
Wi

0101100
+29 0 +10 0 +18 0 -7 0 *
Fa
0  1e-07 8 0

0111000
+4 0 *
Sh

0101100
-51 0 -47 0 +42 0 +37 0 -32 0 +14 0 -11 0 -8 0 +5 0 +3 0 
*
So

0100000
+2 0 *

+1 1 