DBRep_DrawableShape

CASCADE Topology V3, (c) Open Cascade
Locations 1
1
              1               0               0 -4.46239148583012e-14 
              0              -1               0 -1.39690507858084e-30 
              0               0              -1            57.6 
Curve2ds 16
1 0 7.5 1 0 
1 6.2831853071795862 0 0 1 
1 0 0 0 1 
1 0 4.2000000000000002 1 0 
1 0 7.5 1 0 
1 0 0 1 0 
1 6.2831853071795862 0 0 1 
1 0 0 0 1 
1 0 0 1 0 
1 0 -7.5 1 0 
1 6.2831853071795862 0 0 1 
1 0 0 0 1 
1 0 -7.5 1 0 
1 0 4.2000000000000002 1 0 
1 6.2831853071795862 0 0 1 
1 0 0 0 1 
Curves 12
2 0 0 0 0 0 -1 -1 0 0 0 1 0 12.066000000000001
7 0 0  1 2 2  -12.066000000000001 -2.9553176557023928e-15 3.2999999999999998  -12.066000000000001 -2.9553176557023928e-15 0 
 4.2000000000000002 2 7.5 2
2 0 0 3.2999999999999998 0 0 -1 -1 0 0 0 1 0 12.066000000000001
2 0 0 0 0 0 -1 -1 0 0 0 1 0 16.350000000000001
2 0 0 7.5 0 0 -1 -1 0 0 0 1 0 16.350000000000001
7 0 0  1 2 2  -16.350000000000001 0 7.5  -16.350000000000001 0 0 
 0 2 7.5 2
2 0 0 7.5 0 0 -1 -1 0 0 0 1 0 16.446999999999999
2 0 0 15 0 0 -1 -1 0 0 0 1 0 16.446999999999999
7 0 0  1 2 2  -16.446999999999999 0 15  -16.446999999999999 0 7.5 
 -7.5 2 0 2
2 0 0 15 0 0 -1 -1 0 0 0 1 0 15
2 0 0 3.2999999999999998 0 0 -1 -1 0 0 0 1 0 15
7 0 0  1 2 2  -15 -3.67394039744206e-15 15  -15 -3.67394039744206e-15 3.3000000000000007 
 -7.5 2 4.1999999999999993 2
Polygon3D 0
PolygonOnTriangulations 0
Surfaces 8
10 0 6.2831853071795862 4.2000000000000002 7.5
2 0 0 7.5 0 0 -1 -1 0 0 0 1 0 12.066000000000001
1 13.376809214416399 0 1.6263032587282601e-16 0 0 -1 -1 0 0 0 1 0 
1 12.8158865736281 0 3.2999999999999998 0 0 1 1 0 -0 -0 1 0 
10 0 6.2831853071795862 0 7.5
2 0 0 7.5 0 0 -1 -1 0 0 0 1 0 16.350000000000001
1 16.757943286814001 0 7.5 0 0 -1 -1 0 0 0 1 0 
10 0 6.2831853071795862 -7.5 0
2 0 0 7.5 0 0 -1 -1 0 0 0 1 0 16.446999999999999
1 14.600639074858499 0 15 0 0 1 1 0 -0 -0 1 0 
10 0 6.2831853071795862 -7.5 4.1999999999999993
2 0 0 7.5 0 0 -1 -1 0 0 0 1 0 15
Triangulations 0

TShapes 42
Ve
1e-05
-12.066 0 0
0 0

0101101
*
Ed
 1e-07 1 1 0
1  1 0 0 6.28318530717959
2  1 1 0 0 6.28318530717959
4 C0 1 0 2 0
0

0101000
-42 0 +42 0 *
Ve
1e-05
-12.066 0 3.3
0 0

0101101
*
Ed
 1e-05 1 1 0
1  2 0 4.2 7.5
3  2 3CN 1 0 4.2 7.5
0

0101000
-42 0 +40 0 *
Ed
 1e-07 1 1 0
1  3 0 0 6.28318530717959
2  4 1 0 0 6.28318530717959
4 C0 1 0 3 0
0

0101000
+40 0 -40 0 *
Wi

0101100
-41 0 -39 0 +38 0 +39 0 *
Fa
0  1e-07 1 0

0111000
+37 0 *
Ve
1e-05
-16.35 0 0
0 0

0101101
*
Ed
 1e-07 1 1 0
1  4 0 0 6.28318530717959
2  5 4 0 0 6.28318530717959
4 C0 2 0 4 0
0

0101000
-35 0 +35 0 *
Wi

0101100
+34 0 *
Wi

0101100
-41 0 *
Fa
0  1e-07 2 0

0101000
+33 0 +32 0 *
Ve
1e-05
-16.35 0 7.5
0 0

0101101
*
Ed
 1e-07 1 1 0
1  5 0 0 6.28318530717959
2  6 4 0 0 6.28318530717959
4 C0 4 0 5 0
0

0101000
+30 0 -30 0 *
Ed
 1e-05 1 1 0
1  6 0 0 7.5
3  7 8CN 4 0 0 7.5
0

0101000
+30 0 -35 0 *
Wi

0101100
+29 0 +28 0 -34 0 -28 0 *
Fa
0  1e-07 4 0

0111000
+27 0 *
Ve
1e-05
-16.447 0 7.5
0 0

0101101
*
Ed
 1e-07 1 1 0
1  7 0 0 6.28318530717959
2  9 6 0 0 6.28318530717959
4 C0 5 0 6 0
0

0101000
-25 0 +25 0 *
Wi

0101100
+24 0 *
Wi

0101100
-29 0 *
Fa
0  1e-07 5 0

0101000
+23 0 +22 0 *
Ve
1e-05
-16.447 0 15
0 0

0101101
*
Ed
 1e-07 1 1 0
1  8 0 0 6.28318530717959
2  10 6 0 0 6.28318530717959
4 C0 6 0 7 0
0

0101000
+20 0 -20 0 *
Ed
 1e-05 1 1 0
1  9 0 -7.5 0
3  11 12CN 6 0 -7.5 0
0

0101000
+20 0 -25 0 *
Wi

0101100
+19 0 +18 0 -24 0 -18 0 *
Fa
0  1e-07 6 0

0111000
+17 0 *
Ve
1e-05
-15 0 15
0 0

0101101
*
Ed
 1e-07 1 1 0
1  10 0 0 6.28318530717959
2  13 8 0 0 6.28318530717959
4 C0 7 0 8 0
0

0101000
+15 0 -15 0 *
Wi

0101100
+14 0 *
Wi

0101100
-19 0 *
Fa
0  1e-07 7 0

0101000
+13 0 +12 0 *
Ve
1e-05
-15 0 3.3
0 0

0101101
*
Ed
 1e-07 1 1 0
1  11 0 0 6.28318530717959
2  14 8 0 0 6.28318530717959
4 C0 8 0 3 0
0

0101000
-10 0 +10 0 *
Ed
 1e-05 1 1 0
1  12 0 -7.5 4.2
3  15 16CN 8 0 -7.5 4.2
0

0101000
-10 0 +15 0 *
Wi

0101100
-9 0 -8 0 +14 0 +8 0 *
Fa
0  1e-07 8 0

0111000
+7 0 *
Wi

0101100
+38 0 *
Wi

0101100
-9 0 *
Fa
0  1e-07 3 0

0111000
+5 0 +4 0 *
Sh

0101100
-36 0 +31 0 +26 0 +21 0 +16 0 +11 0 -6 0 +3 0 *
So

0100000
+2 0 *

+1 1 