DBRep_DrawableShape

CASCADE Topology V3, (c) Open Cascade
Locations 1
1
              1               0               0               0 
              0               1               0               0 
              0               0               1            22.2 
Curve2ds 156
1 2.7390940494970439 0 0 1 
1 4.2438371294129613 0 0 1 
1 3.1415926535897931 0 -1 0 
1 3.0204064409243028 0 0 1 
1 1.5305753397739152 0 0 1 
1 3.1415926535897931 1.8 -1 0 
1 9.4247779607693793 0 -1 0 
1 4.7526099674056708 0 0 1 
1 3.2627788662552839 0 0 1 
1 9.4247779607693793 1.8 -1 0 
1 9.4247779607693793 0 -1 0 
1 3.3698090028856797 0 0 1 
1 1.879490976162234 0 0 1 
1 9.4247779607693793 1.8 -1 0 
1 9.7738438111682449 0 -1 0 
1 5.102494677043163 0 0 1 
1 3.6121766503196966 0 0 1 
1 9.7738438111682449 1.8 -1 0 
1 9.4247779607693793 0 -1 0 
1 3.7191757819888784 0 0 1 
1 2.2274558153418322 0 0 1 
1 9.4247779607693793 1.8 -1 0 
1 10.12290966156711 0 -1 0 
1 5.4532493220219722 0 0 1 
1 3.9615293553748936 0 0 1 
1 10.12290966156711 1.8 -1 0 
1 9.4247779607693793 0 -1 0 
1 4.0684708256606825 0 0 1 
1 2.5746032635348683 0 0 1 
1 9.4247779607693793 1.8 -1 0 
1 10.471975511965978 0 -1 0 
1 5.8046694874846239 0 0 1 
1 4.3108019253588177 0 0 1 
1 10.471975511965978 1.8 -1 0 
1 9.4247779607693793 0 -1 0 
1 4.4176669642901176 0 0 1 
1 2.9211654707189036 0 0 1 
1 9.4247779607693793 1.8 -1 0 
1 10.821041362364843 0 -1 0 
1 6.156470485747727 0 0 1 
1 4.6599689921765197 0 0 1 
1 10.821041362364843 1.8 -1 0 
1 9.4247779607693793 0 -1 0 
1 4.7667488657953383 0 0 1 
1 3.2674449675313064 0 0 1 
1 9.4247779607693793 1.8 -1 0 
1 11.170107212763709 0 -1 0 
1 6.5083220373360113 0 0 1 
1 5.0090181390719772 0 0 1 
1 11.170107212763709 1.8 -1 0 
1 9.4247779607693793 0 -1 0 
1 5.1157147061264752 0 0 1 
1 3.6137779217278596 0 0 1 
1 9.4247779607693793 1.8 -1 0 
1 11.519173063162574 0 -1 0 
1 6.859888279756821 0 0 1 
1 5.3579514953581997 0 0 1 
1 11.519173063162574 1.8 -1 0 
1 9.4247779607693793 0 -1 0 
1 5.4645763376018586 0 0 1 
1 3.9604935592775381 0 0 1 
1 9.4247779607693793 1.8 -1 0 
1 11.868238913561441 0 -1 0 
1 7.2108682035704605 0 0 1 
1 5.7067854252461263 0 0 1 
1 11.868238913561441 1.8 -1 0 
1 9.4247779607693793 0 -1 0 
1 5.8133579582393127 0 0 1 
1 4.3078746484174353 0 0 1 
1 9.4247779607693793 1.8 -1 0 
1 12.217304763960307 0 -1 0 
1 7.5610316842646741 0 0 1 
1 6.0555483744428003 0 0 1 
1 12.217304763960307 1.8 -1 0 
1 9.4247779607693793 0 -1 0 
1 6.1620933958595225 0 0 1 
1 4.6561237167067606 0 0 1 
1 9.4247779607693793 1.8 -1 0 
1 12.566370614359172 0 -1 0 
1 7.9102468976524118 0 0 1 
1 0.12109191132006478 0 0 1 
1 12.566370614359172 1.8 -1 0 
1 3.1415926535897931 0 -1 0 
1 0.2276369327367864 0 0 1 
1 -1.2778463770850861 0 0 1 
1 3.1415926535897931 1.8 -1 0 
1 6.6322511575784517 0 -1 0 
1 1.975310658762151 0 0 1 
1 0.46982734894027373 0 0 1 
1 6.6322511575784517 1.8 -1 0 
1 3.1415926535897931 0 -1 0 
1 0.75156445449161391 0 0 1 
1 -0.75317862542431424 0 0 1 
1 3.1415926535897931 1.8 -1 0 
1 7.1558499331767518 0 -1 0 
1 2.4985078774186498 0 0 1 
1 0.99376479750271662 0 0 1 
1 7.1558499331767518 1.8 -1 0 
1 3.1415926535897931 0 -1 0 
1 1.1006303048904806 0 0 1 
1 -0.40411277502543008 0 0 1 
1 3.1415926535897931 1.8 -1 0 
1 7.5049157835756173 0 -1 0 
1 2.847573727817478 0 0 1 
1 1.342830647901581 0 0 1 
1 7.5049157835756173 1.8 -1 0 
1 3.1415926535897931 0 -1 0 
1 1.4496961552893464 0 0 1 
1 -0.055046924626569904 0 0 1 
1 3.1415926535897931 1.8 -1 0 
1 7.8539816339744828 0 -1 0 
1 3.196639578216363 0 0 1 
1 1.6918964983004463 0 0 1 
1 7.8539816339744828 1.8 -1 0 
1 3.1415926535897931 0 -1 0 
1 1.7987620056882119 0 0 1 
1 0.29401892577231403 0 0 1 
1 3.1415926535897931 1.8 -1 0 
1 8.2030474843733483 0 -1 0 
1 3.5457054286152228 0 0 1 
1 2.0409623486993125 0 0 1 
1 8.2030474843733483 1.8 -1 0 
1 3.1415926535897931 0 -1 0 
1 2.1478278560870767 0 0 1 
1 0.64308477617115989 0 0 1 
1 3.1415926535897931 1.8 -1 0 
1 8.5521133347722156 0 -1 0 
1 3.8947712790140923 0 0 1 
1 2.3900281990981793 0 0 1 
1 8.5521133347722156 1.8 -1 0 
1 3.1415926535897931 0 -1 0 
1 2.4968937064859444 0 0 1 
1 0.99215062657001396 0 0 1 
1 3.1415926535897931 1.8 -1 0 
1 8.9011791851710811 0 -1 0 
1 8.9011791851710811 1.8 -1 0 
1 9.4247779607693793 0 -1 0 
1 9.4247779607693793 0 0 1 
1 3.1415926535897931 0 0 1 
1 9.4247779607693793 1.8 -1 0 
1 9.4247779607693793 0 -1 0 
1 9.4247779607693793 0 0 1 
1 3.1415926535897931 0 0 1 
1 9.4247779607693793 1.8 -1 0 
1 9.4247779607693793 0 -1 0 
1 9.4247779607693793 0 0 1 
1 3.1415926535897931 0 0 1 
1 9.4247779607693793 1.8 -1 0 
1 9.4247779607693793 1.2000000000000002 -1 0 
1 0 0 1 0 
1 9.4247779607693793 0 0 1 
1 3.1415926535897931 0 0 1 
1 9.4247779607693793 0 -1 0 
1 0 -0.84852813742385802 1 0 
1 6.2831853071795862 0 0 1 
1 0 0 0 1 
Curves 116
1 37.263447264853198 15.864598889966 1.8 0 0 -1 
2 0 0 1.8 0 0 1 1 0 -0 -0 1 0 40.5
1 40.202970297029694 4.8960371011816699 1.8 0 0 -1 
2 0 0 0 0 0 1 1 0 -0 -0 1 0 40.5
2 40.399999999999999 -4.9598195365467806e-15 1.8 0 0 1 1 0 -0 -0 1 0 4.8999999999999995
1 40.202970297029694 -4.8960371011816797 1.8 0 0 -1 
2 40.399999999999999 -4.9598195365467806e-15 0 0 0 1 1 0 -0 -0 1 0 4.8999999999999995
2 0 0 1.8 0 0 1 1 0 -0 -0 1 0 40.5
1 39.449894868907499 -9.1627394829357893 1.8 0 0 -1 
2 0 0 0 0 0 1 1 0 -0 -0 1 0 40.5
2 37.961200155335703 -13.831121220731401 1.8 0 0 1 0.93969262078590865 -0.34202014332566821 0 0.34202014332566821 0.93969262078590865 -0 4.8999999999999995
1 36.097797908633801 -18.3629786839562 1.8 0 0 -1 
2 37.961200155335703 -13.831121220731401 0 0 0 1 0.93969262078590865 -0.34202014332566821 0 0.34202014332566821 0.93969262078590865 -0 4.8999999999999995
2 0 0 1.8 0 0 1 1 0 -0 -0 1 0 40.5
1 33.9302807191564 -22.113028972061901 1.8 0 0 -1 
2 0 0 0 0 0 1 1 0 -0 -0 1 0 40.5
2 30.938955875461499 -25.994005096633401 1.8 0 0 1 0.76604444311897824 -0.64278760968653914 0 0.64278760968653914 0.76604444311897824 -0 4.8999999999999995
1 27.6318331889421 -29.609657117543101 1.8 0 0 -1 
2 30.938955875461499 -25.994005096633401 0 0 0 1 0.76604444311897824 -0.64278760968653914 0 0.64278760968653914 0.76604444311897824 -0 4.8999999999999995
2 0 0 1.8 0 0 1 1 0 -0 -0 1 0 40.5
1 24.313510174546902 -32.389862966554801 1.8 0 0 -1 
2 0 0 0 0 0 1 1 0 -0 -0 1 0 40.5
2 20.180253457818299 -35.021628327223901 1.8 0 0 1 0.49999999999999989 -0.86602540378443882 0 0.86602540378443882 0.49999999999999989 -0 4.8999999999999995
1 15.830624842967801 -37.277893141662503 1.8 0 0 -1 
2 20.180253457818299 -35.021628327223901 0 0 0 1 0.49999999999999989 -0.86602540378443882 0 0.86602540378443882 0.49999999999999989 -0 4.8999999999999995
2 0 0 1.8 0 0 1 1 0 -0 -0 1 0 40.5
1 11.7641914635429 -38.7537585171955 1.8 0 0 -1 
2 0 0 0 0 0 1 1 0 -0 -0 1 0 40.5
2 6.9827511955106605 -39.825126317364699 1.8 0 0 1 0.17364817766693003 -0.98480775301220813 0 0.98480775301220813 0.17364817766693003 -0 4.8999999999999995
1 2.1220373688942002 -40.444368673586901 1.8 0 0 -1 
2 6.9827511955106605 -39.825126317364699 0 0 0 1 0.17364817766693003 -0.98480775301220813 0 0.98480775301220813 0.17364817766693003 -0 4.8999999999999995
2 0 0 1.8 0 0 1 1 0 -0 -0 1 0 40.5
1 -2.20049124450582 -40.440176041689703 1.8 0 0 -1 
2 0 0 0 0 0 1 1 0 -0 -0 1 0 40.5
2 -7.0617373642376498 -39.825126317364699 1.8 0 0 1 -0.17364817766693003 -0.98480775301220813 0 0.98480775301220813 -0.17364817766693003 0 4.8999999999999995
1 -11.838078967925201 -38.731252062761499 1.8 0 0 -1 
2 -7.0617373642376498 -39.825126317364699 0 0 0 1 -0.17364817766693003 -0.98480775301220813 0 0.98480775301220813 -0.17364817766693003 0 4.8999999999999995
2 0 0 1.8 0 0 1 1 0 -0 -0 1 0 40.5
1 -15.895414863676701 -37.250312566629702 1.8 0 0 -1 
2 0 0 0 0 0 1 1 0 -0 -0 1 0 40.5
2 -20.259239626545302 -35.021628327223901 1.8 0 0 1 -0.49999999999999989 -0.86602540378443882 0 0.86602540378443882 -0.49999999999999989 0 4.8999999999999995
1 -24.3667378828005 -32.349839025115699 1.8 0 0 -1 
2 -20.259239626545302 -35.021628327223901 0 0 0 1 -0.49999999999999989 -0.86602540378443882 0 0.86602540378443882 -0.49999999999999989 0 4.8999999999999995
2 0 0 1.8 0 0 1 1 0 -0 -0 1 0 40.5
1 -27.671122517095402 -29.572943354422801 1.8 0 0 -1 
2 0 0 0 0 0 1 1 0 -0 -0 1 0 40.5
2 -31.017942044188501 -25.994005096633401 1.8 0 0 1 -0.76604444311897779 -0.64278760968653981 0 0.64278760968653981 -0.76604444311897779 0 4.8999999999999995
1 -33.956422124007702 -22.072865616774799 1.8 0 0 -1 
2 -31.017942044188501 -25.994005096633401 0 0 0 1 -0.76604444311897779 -0.64278760968653981 0 0.64278760968653981 -0.76604444311897779 0 4.8999999999999995
2 0 0 1.8 0 0 1 1 0 -0 -0 1 0 40.5
1 -36.111681881259599 -18.3356601110162 1.8 0 0 -1 
2 0 0 0 0 0 1 1 0 -0 -0 1 0 40.5
2 -38.040186324062603 -13.831121220731401 1.8 0 0 1 -0.93969262078590832 -0.3420201433256691 0 0.3420201433256691 -0.93969262078590832 0 4.8999999999999995
1 -39.455197289464401 -9.1398800237992806 1.8 0 0 -1 
2 -38.040186324062603 -13.831121220731401 0 0 0 1 -0.93969262078590832 -0.3420201433256691 0 0.3420201433256691 -0.93969262078590832 0 4.8999999999999995
2 0 0 1.8 0 0 1 1 0 -0 -0 1 0 40.5
1 -40.203431821157501 -4.8922458852285304 1.8 0 0 -1 
2 0 0 0 0 0 1 1 0 -0 -0 1 0 40.5
2 -40.478986168726998 1.4555464445868601e-14 1.8 0 0 1 -1 -1.22464679914735e-16 0 1.22464679914735e-16 -1 0 4.8999999999999995
1 -40.203431821157501 4.8922458852285597 1.8 0 0 -1 
2 -40.478986168726998 1.4555464445868601e-14 0 0 0 1 -1 -1.22464679914735e-16 0 1.22464679914735e-16 -1 0 4.8999999999999995
2 0 0 1.8 0 0 1 1 0 -0 -0 1 0 40.5
1 -39.455197289464401 9.139880023799309 1.8 0 0 -1 
2 0 0 0 0 0 1 1 0 -0 -0 1 0 40.5
2 -38.040186324062603 13.831121220731401 1.8 0 0 1 -0.93969262078590832 0.3420201433256691 0 -0.3420201433256691 -0.93969262078590832 0 4.8999999999999995
1 -36.111681881259599 18.3356601110162 1.8 0 0 -1 
2 -38.040186324062603 13.831121220731401 0 0 0 1 -0.93969262078590832 0.3420201433256691 0 -0.3420201433256691 -0.93969262078590832 0 4.8999999999999995
2 0 0 1.8 0 0 1 1 0 -0 -0 1 0 40.5
1 -29.590174033676998 27.652696082962901 1.8 0 0 -1 
2 0 0 0 0 0 1 1 0 -0 -0 1 0 40.5
2 -26.015533374538201 31.004105362360498 1.8 0 0 1 -0.64278760968653914 0.76604444311897824 0 -0.76604444311897824 -0.64278760968653914 0 4.8999999999999995
1 -22.094309696396802 33.942473083729602 1.8 0 0 -1 
2 -26.015533374538201 31.004105362360498 0 0 0 1 -0.64278760968653914 0.76604444311897824 0 -0.76604444311897824 -0.64278760968653914 0 4.8999999999999995
2 0 0 1.8 0 0 1 1 0 -0 -0 1 0 40.5
1 -18.347889109580898 36.105470018025294 1.8 0 0 -1 
2 0 0 0 0 0 1 1 0 -0 -0 1 0 40.5
2 -13.842576178144402 38.0321654765321 1.8 0 0 1 -0.34202014332566794 0.93969262078590876 0 -0.93969262078590876 -0.34202014332566794 0 4.8999999999999995
1 -9.1528502741378404 39.452190457048395 1.8 0 0 -1 
2 -13.842576178144402 38.0321654765321 0 0 0 1 -0.34202014332566794 0.93969262078590876 0 -0.93969262078590876 -0.34202014332566794 0 4.8999999999999995
2 0 0 1.8 0 0 1 1 0 -0 -0 1 0 40.5
1 -4.8925779728656602 40.203391408927601 1.8 0 0 -1 
2 0 0 0 0 0 1 1 0 -0 -0 1 0 40.5
2 -8.3449685963493701e-15 40.4729851392513 1.8 0 0 1 1.6653345369377299e-16 1 -0 -1 1.6653345369377299e-16 0 4.8999999999999995
1 4.8925779728656398 40.203391408927601 1.8 0 0 -1 
2 -8.3449685963493701e-15 40.4729851392513 0 0 0 1 1.6653345369377299e-16 1 -0 -1 1.6653345369377299e-16 0 4.8999999999999995
2 0 0 1.8 0 0 1 1 0 -0 -0 1 0 40.5
1 9.1528502741378208 39.452190457048395 1.8 0 0 -1 
2 0 0 0 0 0 1 1 0 -0 -0 1 0 40.5
2 13.842576178144402 38.0321654765321 1.8 0 0 1 0.3420201433256691 0.93969262078590832 -0 -0.93969262078590832 0.3420201433256691 0 4.8999999999999995
1 18.347889109580898 36.105470018025294 1.8 0 0 -1 
2 13.842576178144402 38.0321654765321 0 0 0 1 0.3420201433256691 0.93969262078590832 -0 -0.93969262078590832 0.3420201433256691 0 4.8999999999999995
2 0 0 1.8 0 0 1 1 0 -0 -0 1 0 40.5
1 22.094309696396802 33.942473083729602 1.8 0 0 -1 
2 0 0 0 0 0 1 1 0 -0 -0 1 0 40.5
2 26.015533374538201 31.004105362360399 1.8 0 0 1 0.64278760968653981 0.76604444311897779 -0 -0.76604444311897779 0.64278760968653981 0 4.8999999999999995
1 29.590174033676998 27.652696082962901 1.8 0 0 -1 
2 26.015533374538201 31.004105362360399 0 0 0 1 0.64278760968653981 0.76604444311897779 -0 -0.76604444311897779 0.64278760968653981 0 4.8999999999999995
2 0 0 1.8 0 0 1 1 0 -0 -0 1 0 40.5
1 32.370869291987503 24.338792518961601 1.8 0 0 -1 
2 0 0 0 0 0 1 1 0 -0 -0 1 0 40.5
2 35.050633297581697 20.2364925696257 1.8 0 0 1 0.86602540378443882 0.49999999999999989 -0 -0.49999999999999989 0.86602540378443882 0 4.8999999999999995
2 35.050633297581697 20.2364925696257 0 0 0 1 0.86602540378443882 0.49999999999999989 -0 -0.49999999999999989 0.86602540378443882 0 4.8999999999999995
2 47.523550653422205 12.733897019044001 1.8 0 0 1 1 0 -0 -0 1 0 1.575
7 0 0  1 2 2  49.098550653422208 12.733897019044001 1.8  49.098550653422208 12.733897019044001 0 
 0 2 1.8 2
2 47.523550653422205 12.733897019044001 0 0 0 1 1 0 -0 -0 1 0 1.575
2 -40.302280579018401 28.219960668471501 1.8 0 0 1 1 0 -0 -0 1 0 1.575
7 0 0  1 2 2  -38.727280579018398 28.219960668471501 1.8  -38.727280579018398 28.219960668471501 0 
 0 2 1.8 2
2 -40.302280579018401 28.219960668471501 0 0 0 1 1 0 -0 -0 1 0 1.575
2 -16.8273910516229 -46.232876942666699 1.8 0 0 1 1 0 -0 -0 1 0 1.575
7 0 0  1 2 2  -15.252391051622901 -46.232876942666699 1.8  -15.252391051622901 -46.232876942666699 0 
 0 2 1.8 2
2 -16.8273910516229 -46.232876942666699 0 0 0 1 1 0 -0 -0 1 0 1.575
2 0 0 0.59999999999999998 0 0 1 1 0 -0 -0 1 0 52.4375
7 0 0  1 2 2  52.4375 1.92652249590868e-14 1.8  52.4375 1.92652249590868e-14 0.59999999999999987 
 0 2 1.2000000000000002 2
2 0 0 1.8 0 0 1 1 0 -0 -0 1 0 52.4375
2 0 0 0 0 0 1 1 0 -0 -0 1 0 51.837499999999999
7 0 0  1 2 2  51.837499999999999 0 -2.7755575615628914e-15  52.4375 0 0.59999999999999998 
 -0.84852813742385802 2 0 2
Polygon3D 0
PolygonOnTriangulations 0
Surfaces 41
2 0 0 1.8 0 0 -1 -1 0 0 0 1 0 40.5
2 35.050633297581697 20.2364925696257 1.8 0 0 -1 -1 0 0 0 1 0 4.8999999999999995
1 0 0 1.8 0 0 1 1 0 -0 -0 1 0 
2 40.399999999999999 -4.9598195365467806e-15 1.8 0 0 -1 -1 0 0 0 1 0 4.8999999999999995
1 0 0 0 0 0 1 1 0 -0 -0 1 0 
2 0 0 1.8 0 0 -1 -1 0 0 0 1 0 40.5
2 37.961200155335703 -13.831121220731401 1.8 0 0 -1 -1 0 0 0 1 0 4.8999999999999995
2 0 0 1.8 0 0 -1 -1 0 0 0 1 0 40.5
2 30.938955875461499 -25.994005096633401 1.8 0 0 -1 -1 0 0 0 1 0 4.8999999999999995
2 0 0 1.8 0 0 -1 -1 0 0 0 1 0 40.5
2 20.180253457818299 -35.021628327223901 1.8 0 0 -1 -1 0 0 0 1 0 4.8999999999999995
2 0 0 1.8 0 0 -1 -1 0 0 0 1 0 40.5
2 6.9827511955106605 -39.825126317364699 1.8 0 0 -1 -1 0 0 0 1 0 4.8999999999999995
2 0 0 1.8 0 0 -1 -1 0 0 0 1 0 40.5
2 -7.0617373642376498 -39.825126317364699 1.8 0 0 -1 -1 0 0 0 1 0 4.8999999999999995
2 0 0 1.8 0 0 -1 -1 0 0 0 1 0 40.5
2 -20.259239626545302 -35.021628327223901 1.8 0 0 -1 -1 0 0 0 1 0 4.8999999999999995
2 0 0 1.8 0 0 -1 -1 0 0 0 1 0 40.5
2 -31.017942044188501 -25.994005096633401 1.8 0 0 -1 -1 0 0 0 1 0 4.8999999999999995
2 0 0 1.8 0 0 -1 -1 0 0 0 1 0 40.5
2 -38.040186324062603 -13.831121220731401 1.8 0 0 -1 -1 0 0 0 1 0 4.8999999999999995
2 0 0 1.8 0 0 -1 -1 0 0 0 1 0 40.5
2 -40.478986168726998 1.4555464445868601e-14 1.8 0 0 -1 -1 0 0 0 1 0 4.8999999999999995
2 0 0 1.8 0 0 -1 -1 0 0 0 1 0 40.5
2 -38.040186324062603 13.831121220731401 1.8 0 0 -1 -1 0 0 0 1 0 4.8999999999999995
2 0 0 1.8 0 0 -1 -1 0 0 0 1 0 40.5
2 -26.015533374538201 31.004105362360498 1.8 0 0 -1 -1 0 0 0 1 0 4.8999999999999995
2 0 0 1.8 0 0 -1 -1 0 0 0 1 0 40.5
2 -13.842576178144402 38.0321654765321 1.8 0 0 -1 -1 0 0 0 1 0 4.8999999999999995
2 0 0 1.8 0 0 -1 -1 0 0 0 1 0 40.5
2 -8.3449685963493701e-15 40.4729851392513 1.8 0 0 -1 -1 0 0 0 1 0 4.8999999999999995
2 0 0 1.8 0 0 -1 -1 0 0 0 1 0 40.5
2 13.842576178144402 38.0321654765321 1.8 0 0 -1 -1 0 0 0 1 0 4.8999999999999995
2 0 0 1.8 0 0 -1 -1 0 0 0 1 0 40.5
2 26.015533374538201 31.004105362360399 1.8 0 0 -1 -1 0 0 0 1 0 4.8999999999999995
2 0 0 1.8 0 0 -1 -1 0 0 0 1 0 40.5
10 3.1415926535897931 9.4247779607693793 0 1.8
2 47.523550653422205 12.733897019044001 1.8 0 0 -1 -1 0 0 0 1 0 1.575
10 3.1415926535897931 9.4247779607693793 0 1.8
2 -40.302280579018401 28.219960668471501 1.8 0 0 -1 -1 0 0 0 1 0 1.575
10 3.1415926535897931 9.4247779607693793 0 1.8
2 -16.8273910516229 -46.232876942666699 1.8 0 0 -1 -1 0 0 0 1 0 1.575
10 3.1415926535897931 9.4247779607693793 0 1.2000000000000002
2 0 0 1.8 0 0 -1 -1 0 0 0 1 0 52.4375
10 0 6.2831853071795862 -0.84852813742385802 0
3 0 0 0.59999999999999998 0 0 1 1 0 -0 -0 1 0 52.4375
0.78539816339744495
Triangulations 0

TShapes 285
Ve
1e-07
37.2634472648532 15.864598889966 1.8
0 0

0101101
*
Ve
1e-07
37.2634472648532 15.864598889966 0
0 0

0101101
*
Ed
 1e-07 1 1 0
1  1 0 0 1.8
2  1 1 0 0 1.8
2  2 2 0 0 1.8
4 C0 1 0 2 0
0

0101000
+285 0 -284 0 *
Ve
1e-07
40.2029702970297 4.89603710118167 1.8
0 0

0101101
*
Ed
 1e-07 1 1 0
1  2 0 0.121186212665491 0.402498604092749
2  3 1 0 0.121186212665491 0.402498604092749
4 C0 1 0 3 0
0

0101000
+282 0 -285 0 *
Ve
1e-07
40.2029702970297 4.89603710118167 0
0 0

0101101
*
Ed
 1e-07 1 1 0
1  3 0 0 1.8
2  4 1 0 0 1.8
2  5 4 0 0 1.8
4 C0 1 0 4 0
0

0101000
+282 0 -280 0 *
Ed
 1e-07 1 1 0
1  4 0 0.121186212665491 0.402498604092749
2  6 1 0 0.121186212665491 0.402498604092749
4 C0 1 0 5 0
0

0101000
+280 0 -284 0 *
Wi

0101100
-283 0 -281 0 +279 0 +278 0 *
Fa
0  1e-07 1 0

0111000
+277 0 *
Ve
1e-07
40.2029702970297 -4.89603710118168 1.8
0 0

0101101
*
Ed
 1e-07 1 1 0
1  5 0 4.67216799336371 7.89420262099546
2  7 4 0 4.67216799336371 7.89420262099546
4 C0 4 0 3 0
0

0101000
+275 0 -282 0 *
Ve
1e-07
40.2029702970297 -4.89603710118168 0
0 0

0101101
*
Ed
 1e-07 1 1 0
1  6 0 0 1.8
2  8 4 0 0 1.8
2  9 6 0 0 1.8
4 C0 4 0 6 0
0

0101000
+275 0 -273 0 *
Ed
 1e-07 1 1 0
1  7 0 4.67216799336371 7.89420262099546
2  10 4 0 4.67216799336371 7.89420262099546
4 C0 4 0 5 0
0

0101000
+273 0 -280 0 *
Wi

0101100
-279 0 -274 0 +272 0 +271 0 *
Fa
0  1e-07 4 0

0111000
+270 0 *
Ve
1e-07
39.4498948689075 -9.16273948293579 1.8
0 0

0101101
*
Ed
 1e-07 1 1 0
1  8 0 6.0549689578837 6.1619990945141
2  11 6 0 6.0549689578837 6.1619990945141
4 C0 6 0 3 0
0

0101000
+268 0 -275 0 *
Ve
1e-07
39.4498948689075 -9.16273948293579 0
0 0

0101101
*
Ed
 1e-07 1 1 0
1  9 0 0 1.8
2  12 6 0 0 1.8
2  13 7 0 0 1.8
4 C0 6 0 7 0
0

0101000
+268 0 -266 0 *
Ed
 1e-07 1 1 0
1  10 0 6.0549689578837 6.1619990945141
2  14 6 0 6.0549689578837 6.1619990945141
4 C0 6 0 5 0
0

0101000
+266 0 -273 0 *
Wi

0101100
-272 0 -267 0 +265 0 +264 0 *
Fa
0  1e-07 6 0

0111000
+263 0 *
Ve
1e-07
36.0977979086338 -18.3629786839562 1.8
0 0

0101101
*
Ed
 1e-07 1 1 0
1  11 0 4.67134913412508 7.89435283500601
2  15 7 0 4.67134913412508 7.89435283500601
4 C0 7 0 3 0
0

0101000
+261 0 -268 0 *
Ve
1e-07
36.0977979086338 -18.3629786839562 0
0 0

0101101
*
Ed
 1e-07 1 1 0
1  12 0 0 1.8
2  16 7 0 0 1.8
2  17 8 0 0 1.8
4 C0 7 0 8 0
0

0101000
+261 0 -259 0 *
Ed
 1e-07 1 1 0
1  13 0 4.67134913412508 7.89435283500601
2  18 7 0 4.67134913412508 7.89435283500601
4 C0 7 0 5 0
0

0101000
+259 0 -266 0 *
Wi

0101100
-265 0 -260 0 +258 0 +257 0 *
Fa
0  1e-07 7 0

0111000
+256 0 *
Ve
1e-07
33.9302807191564 -22.1130289720619 1.8
0 0

0101101
*
Ed
 1e-07 1 1 0
1  14 0 5.7056021787805 5.81260131044968
2  19 8 0 5.7056021787805 5.81260131044968
4 C0 8 0 3 0
0

0101000
+254 0 -261 0 *
Ve
1e-07
33.9302807191564 -22.1130289720619 0
0 0

0101101
*
Ed
 1e-07 1 1 0
1  15 0 0 1.8
2  20 8 0 0 1.8
2  21 9 0 0 1.8
4 C0 8 0 9 0
0

0101000
+254 0 -252 0 *
Ed
 1e-07 1 1 0
1  16 0 5.7056021787805 5.81260131044968
2  22 8 0 5.7056021787805 5.81260131044968
4 C0 8 0 5 0
0

0101000
+252 0 -259 0 *
Wi

0101100
-258 0 -253 0 +251 0 +250 0 *
Fa
0  1e-07 8 0

0111000
+249 0 *
Ve
1e-07
27.6318331889421 -29.6096571175431 1.8
0 0

0101101
*
Ed
 1e-07 1 1 0
1  17 0 4.66966033954514 7.89545384622528
2  23 9 0 4.66966033954514 7.89545384622528
4 C0 9 0 3 0
0

0101000
+247 0 -254 0 *
Ve
1e-07
27.6318331889421 -29.6096571175431 0
0 0

0101101
*
Ed
 1e-07 1 1 0
1  18 0 0 1.8
2  24 9 0 0 1.8
2  25 10 0 0 1.8
4 C0 9 0 10 0
0

0101000
+247 0 -245 0 *
Ed
 1e-07 1 1 0
1  19 0 4.66966033954514 7.89545384622528
2  26 9 0 4.66966033954514 7.89545384622528
4 C0 9 0 5 0
0

0101000
+245 0 -252 0 *
Wi

0101100
-251 0 -246 0 +244 0 +243 0 *
Fa
0  1e-07 9 0

0111000
+242 0 *
Ve
1e-07
24.3135101745469 -32.3898629665548 1.8
0 0

0101101
*
Ed
 1e-07 1 1 0
1  20 0 5.3563071351087 5.46324860539449
2  27 10 0 5.3563071351087 5.46324860539449
4 C0 10 0 3 0
0

0101000
+240 0 -247 0 *
Ve
1e-07
24.3135101745469 -32.3898629665548 0
0 0

0101101
*
Ed
 1e-07 1 1 0
1  21 0 0 1.8
2  28 10 0 0 1.8
2  29 11 0 0 1.8
4 C0 10 0 11 0
0

0101000
+240 0 -238 0 *
Ed
 1e-07 1 1 0
1  22 0 5.3563071351087 5.46324860539449
2  30 10 0 5.3563071351087 5.46324860539449
4 C0 10 0 5 0
0

0101000
+238 0 -245 0 *
Wi

0101100
-244 0 -239 0 +237 0 +236 0 *
Fa
0  1e-07 10 0

0111000
+235 0 *
Ve
1e-07
15.8306248429678 -37.2778931416625 1.8
0 0

0101101
*
Ed
 1e-07 1 1 0
1  23 0 4.66730602448135 7.89737224843111
2  31 11 0 4.66730602448135 7.89737224843111
4 C0 11 0 3 0
0

0101000
+233 0 -240 0 *
Ve
1e-07
15.8306248429678 -37.2778931416625 0
0 0

0101101
*
Ed
 1e-07 1 1 0
1  24 0 0 1.8
2  32 11 0 0 1.8
2  33 12 0 0 1.8
4 C0 11 0 12 0
0

0101000
+233 0 -231 0 *
Ed
 1e-07 1 1 0
1  25 0 4.66730602448135 7.89737224843111
2  34 11 0 4.66730602448135 7.89737224843111
4 C0 11 0 5 0
0

0101000
+231 0 -238 0 *
Wi

0101100
-237 0 -232 0 +230 0 +229 0 *
Fa
0  1e-07 11 0

0111000
+228 0 *
Ve
1e-07
11.7641914635429 -38.7537585171955 1.8
0 0

0101101
*
Ed
 1e-07 1 1 0
1  26 0 5.00711099647926 5.11397603541056
2  35 12 0 5.00711099647926 5.11397603541056
4 C0 12 0 3 0
0

0101000
+226 0 -233 0 *
Ve
1e-07
11.7641914635429 -38.7537585171955 0
0 0

0101101
*
Ed
 1e-07 1 1 0
1  27 0 0 1.8
2  36 12 0 0 1.8
2  37 13 0 0 1.8
4 C0 12 0 13 0
0

0101000
+226 0 -224 0 *
Ed
 1e-07 1 1 0
1  28 0 5.00711099647926 5.11397603541056
2  38 12 0 5.00711099647926 5.11397603541056
4 C0 12 0 5 0
0

0101000
+224 0 -231 0 *
Wi

0101100
-230 0 -225 0 +223 0 +222 0 *
Fa
0  1e-07 12 0

0111000
+221 0 *
Ve
1e-07
2.1220373688942 -40.4443686735869 1.8
0 0

0101101
*
Ed
 1e-07 1 1 0
1  29 0 4.66457087661712 7.89987589164594
2  39 13 0 4.66457087661712 7.89987589164594
4 C0 13 0 3 0
0

0101000
+219 0 -226 0 *
Ve
1e-07
2.1220373688942 -40.4443686735869 0
0 0

0101101
*
Ed
 1e-07 1 1 0
1  30 0 0 1.8
2  40 13 0 0 1.8
2  41 14 0 0 1.8
4 C0 13 0 14 0
0

0101000
+219 0 -217 0 *
Ed
 1e-07 1 1 0
1  31 0 4.66457087661712 7.89987589164594
2  42 13 0 4.66457087661712 7.89987589164594
4 C0 13 0 5 0
0

0101000
+217 0 -224 0 *
Wi

0101100
-223 0 -218 0 +216 0 +215 0 *
Fa
0  1e-07 13 0

0111000
+214 0 *
Ve
1e-07
-2.20049124450582 -40.4401760416897 1.8
0 0

0101101
*
Ed
 1e-07 1 1 0
1  32 0 4.65802909497404 4.76480896859286
2  43 14 0 4.65802909497404 4.76480896859286
4 C0 14 0 3 0
0

0101000
+212 0 -219 0 *
Ve
1e-07
-2.20049124450582 -40.4401760416897 0
0 0

0101101
*
Ed
 1e-07 1 1 0
1  33 0 0 1.8
2  44 14 0 0 1.8
2  45 15 0 0 1.8
4 C0 14 0 15 0
0

0101000
+212 0 -210 0 *
Ed
 1e-07 1 1 0
1  34 0 4.65802909497404 4.76480896859286
2  46 14 0 4.65802909497404 4.76480896859286
4 C0 14 0 5 0
0

0101000
+210 0 -217 0 *
Wi

0101100
-216 0 -211 0 +209 0 +208 0 *
Fa
0  1e-07 14 0

0111000
+207 0 *
Ve
1e-07
-11.8380789679252 -38.7312520627615 1.8
0 0

0101101
*
Ed
 1e-07 1 1 0
1  35 0 4.6617851754277 7.9026622452324
2  47 15 0 4.6617851754277 7.9026622452324
4 C0 15 0 3 0
0

0101000
+205 0 -212 0 *
Ve
1e-07
-11.8380789679252 -38.7312520627615 0
0 0

0101101
*
Ed
 1e-07 1 1 0
1  36 0 0 1.8
2  48 15 0 0 1.8
2  49 16 0 0 1.8
4 C0 15 0 16 0
0

0101000
+205 0 -203 0 *
Ed
 1e-07 1 1 0
1  37 0 4.6617851754277 7.9026622452324
2  50 15 0 4.6617851754277 7.9026622452324
4 C0 15 0 5 0
0

0101000
+203 0 -210 0 *
Wi

0101100
-209 0 -204 0 +202 0 +201 0 *
Fa
0  1e-07 15 0

0111000
+200 0 *
Ve
1e-07
-15.8954148636767 -37.2503125666297 1.8
0 0

0101101
*
Ed
 1e-07 1 1 0
1  38 0 4.3090632546429 4.4157598216974
2  51 16 0 4.3090632546429 4.4157598216974
4 C0 16 0 3 0
0

0101000
+198 0 -205 0 *
Ve
1e-07
-15.8954148636767 -37.2503125666297 0
0 0

0101101
*
Ed
 1e-07 1 1 0
1  39 0 0 1.8
2  52 16 0 0 1.8
2  53 17 0 0 1.8
4 C0 16 0 17 0
0

0101000
+198 0 -196 0 *
Ed
 1e-07 1 1 0
1  40 0 4.3090632546429 4.4157598216974
2  54 16 0 4.3090632546429 4.4157598216974
4 C0 16 0 5 0
0

0101000
+196 0 -203 0 *
Wi

0101100
-202 0 -197 0 +195 0 +194 0 *
Fa
0  1e-07 16 0

0111000
+193 0 *
Ve
1e-07
-24.3667378828005 -32.3498390251157 1.8
0 0

0101101
*
Ed
 1e-07 1 1 0
1  41 0 4.65928478340575 7.90539514143472
2  55 17 0 4.65928478340575 7.90539514143472
4 C0 17 0 3 0
0

0101000
+191 0 -198 0 *
Ve
1e-07
-24.3667378828005 -32.3498390251157 0
0 0

0101101
*
Ed
 1e-07 1 1 0
1  42 0 0 1.8
2  56 17 0 0 1.8
2  57 18 0 0 1.8
4 C0 17 0 18 0
0

0101000
+191 0 -189 0 *
Ed
 1e-07 1 1 0
1  43 0 4.65928478340575 7.90539514143472
2  58 17 0 4.65928478340575 7.90539514143472
4 C0 17 0 5 0
0

0101000
+189 0 -196 0 *
Wi

0101100
-195 0 -190 0 +188 0 +187 0 *
Fa
0  1e-07 17 0

0111000
+186 0 *
Ve
1e-07
-27.6711225170954 -29.5729433544228 1.8
0 0

0101101
*
Ed
 1e-07 1 1 0
1  44 0 3.96020162316752 4.06682646541118
2  59 18 0 3.96020162316752 4.06682646541118
4 C0 18 0 3 0
0

0101000
+184 0 -191 0 *
Ve
1e-07
-27.6711225170954 -29.5729433544228 0
0 0

0101101
*
Ed
 1e-07 1 1 0
1  45 0 0 1.8
2  60 18 0 0 1.8
2  61 19 0 0 1.8
4 C0 18 0 19 0
0

0101000
+184 0 -182 0 *
Ed
 1e-07 1 1 0
1  46 0 3.96020162316752 4.06682646541118
2  62 18 0 3.96020162316752 4.06682646541118
4 C0 18 0 5 0
0

0101000
+182 0 -189 0 *
Wi

0101100
-188 0 -183 0 +181 0 +180 0 *
Fa
0  1e-07 18 0

0111000
+179 0 *
Ve
1e-07
-33.9564221240077 -22.0728656167748 1.8
0 0

0101101
*
Ed
 1e-07 1 1 0
1  47 0 4.65737070999098 7.9077453542839
2  63 19 0 4.65737070999098 7.9077453542839
4 C0 19 0 3 0
0

0101000
+177 0 -184 0 *
Ve
1e-07
-33.9564221240077 -22.0728656167748 0
0 0

0101101
*
Ed
 1e-07 1 1 0
1  48 0 0 1.8
2  64 19 0 0 1.8
2  65 20 0 0 1.8
4 C0 19 0 20 0
0

0101000
+177 0 -175 0 *
Ed
 1e-07 1 1 0
1  49 0 4.65737070999098 7.9077453542839
2  66 19 0 4.65737070999098 7.9077453542839
4 C0 19 0 5 0
0

0101000
+175 0 -182 0 *
Wi

0101100
-181 0 -176 0 +174 0 +173 0 *
Fa
0  1e-07 19 0

0111000
+172 0 *
Ve
1e-07
-36.1116818812596 -18.3356601110162 1.8
0 0

0101101
*
Ed
 1e-07 1 1 0
1  50 0 3.61142000253007 3.71799253552325
2  67 20 0 3.61142000253007 3.71799253552325
4 C0 20 0 3 0
0

0101000
+170 0 -177 0 *
Ve
1e-07
-36.1116818812596 -18.3356601110162 0
0 0

0101101
*
Ed
 1e-07 1 1 0
1  51 0 0 1.8
2  68 20 0 0 1.8
2  69 21 0 0 1.8
4 C0 20 0 21 0
0

0101000
+170 0 -168 0 *
Ed
 1e-07 1 1 0
1  52 0 3.61142000253007 3.71799253552325
2  70 20 0 3.61142000253007 3.71799253552325
4 C0 20 0 5 0
0

0101000
+168 0 -175 0 *
Wi

0101100
-174 0 -169 0 +167 0 +166 0 *
Fa
0  1e-07 20 0

0111000
+165 0 *
Ve
1e-07
-39.4551972894644 -9.13988002379928 1.8
0 0

0101101
*
Ed
 1e-07 1 1 0
1  53 0 4.65627307969563 7.90943011554287
2  71 21 0 4.65627307969563 7.90943011554287
4 C0 21 0 3 0
0

0101000
+163 0 -170 0 *
Ve
1e-07
-39.4551972894644 -9.13988002379928 0
0 0

0101101
*
Ed
 1e-07 1 1 0
1  54 0 0 1.8
2  72 21 0 0 1.8
2  73 22 0 0 1.8
4 C0 21 0 22 0
0

0101000
+163 0 -161 0 *
Ed
 1e-07 1 1 0
1  55 0 4.65627307969563 7.90943011554287
2  74 21 0 4.65627307969563 7.90943011554287
4 C0 21 0 5 0
0

0101000
+161 0 -168 0 *
Wi

0101100
-167 0 -162 0 +160 0 +159 0 *
Fa
0  1e-07 21 0

0111000
+158 0 *
Ve
1e-07
-40.2034318211575 -4.89224588522853 1.8
0 0

0101101
*
Ed
 1e-07 1 1 0
1  56 0 3.26268456490986 3.36922958632658
2  75 22 0 3.26268456490986 3.36922958632658
4 C0 22 0 3 0
0

0101000
+156 0 -163 0 *
Ve
1e-07
-40.2034318211575 -4.89224588522853 0
0 0

0101101
*
Ed
 1e-07 1 1 0
1  57 0 0 1.8
2  76 22 0 0 1.8
2  77 23 0 0 1.8
4 C0 22 0 23 0
0

0101000
+156 0 -154 0 *
Ed
 1e-07 1 1 0
1  58 0 3.26268456490986 3.36922958632658
2  78 22 0 3.26268456490986 3.36922958632658
4 C0 22 0 5 0
0

0101000
+154 0 -161 0 *
Wi

0101100
-160 0 -155 0 +153 0 +152 0 *
Fa
0  1e-07 22 0

0111000
+151 0 *
Ve
1e-07
-40.2034318211575 4.89224588522856 1.8
0 0

0101101
*
Ed
 1e-07 1 1 0
1  59 0 4.65612371670676 7.91024689765241
2  79 23 0 4.65612371670676 7.91024689765241
4 C0 23 0 3 0
0

0101000
+149 0 -156 0 *
Ve
1e-07
-40.2034318211575 4.89224588522856 0
0 0

0101101
*
Ed
 1e-07 1 1 0
1  60 0 0 1.8
2  80 23 0 0 1.8
2  81 24 0 0 1.8
4 C0 23 0 24 0
0

0101000
+149 0 -147 0 *
Ed
 1e-07 1 1 0
1  61 0 4.65612371670676 7.91024689765241
2  82 23 0 4.65612371670676 7.91024689765241
4 C0 23 0 5 0
0

0101000
+147 0 -154 0 *
Wi

0101100
-153 0 -148 0 +146 0 +145 0 *
Fa
0  1e-07 23 0

0111000
+144 0 *
Ve
1e-07
-39.4551972894644 9.13988002379931 1.8
0 0

0101101
*
Ed
 1e-07 1 1 0
1  62 0 2.91395572085301 3.02050074226973
2  83 24 0 2.91395572085301 3.02050074226973
4 C0 24 0 3 0
0

0101000
+142 0 -149 0 *
Ve
1e-07
-39.4551972894644 9.13988002379931 0
0 0

0101101
*
Ed
 1e-07 1 1 0
1  63 0 0 1.8
2  84 24 0 0 1.8
2  85 25 0 0 1.8
4 C0 24 0 25 0
0

0101000
+142 0 -140 0 *
Ed
 1e-07 1 1 0
1  64 0 2.91395572085301 3.02050074226973
2  86 24 0 2.91395572085301 3.02050074226973
4 C0 24 0 5 0
0

0101000
+140 0 -147 0 *
Wi

0101100
-146 0 -141 0 +139 0 +138 0 *
Fa
0  1e-07 24 0

0111000
+137 0 *
Ve
1e-07
-36.1116818812596 18.3356601110162 1.8
0 0

0101101
*
Ed
 1e-07 1 1 0
1  65 0 4.6569404988163 7.91009753466354
2  87 25 0 4.6569404988163 7.91009753466354
4 C0 25 0 3 0
0

0101000
+135 0 -142 0 *
Ve
1e-07
-36.1116818812596 18.3356601110162 0
0 0

0101101
*
Ed
 1e-07 1 1 0
1  66 0 0 1.8
2  88 25 0 0 1.8
2  89 26 0 0 1.8
4 C0 25 0 26 0
0

0101000
+135 0 -133 0 *
Ed
 1e-07 1 1 0
1  67 0 4.6569404988163 7.91009753466354
2  90 25 0 4.6569404988163 7.91009753466354
4 C0 25 0 5 0
0

0101000
+133 0 -140 0 *
Wi

0101100
-139 0 -134 0 +132 0 +131 0 *
Fa
0  1e-07 25 0

0111000
+130 0 *
Ve
1e-07
-29.590174033677 27.6526960829629 1.8
0 0

0101101
*
Ed
 1e-07 1 1 0
1  68 0 2.39002819909818 2.67176530464952
2  91 26 0 2.39002819909818 2.67176530464952
4 C0 26 0 3 0
0

0101000
+128 0 -135 0 *
Ve
1e-07
-29.590174033677 27.6526960829629 0
0 0

0101101
*
Ed
 1e-07 1 1 0
1  69 0 0 1.8
2  92 26 0 0 1.8
2  93 27 0 0 1.8
4 C0 26 0 27 0
0

0101000
+128 0 -126 0 *
Ed
 1e-07 1 1 0
1  70 0 2.39002819909818 2.67176530464952
2  94 26 0 2.39002819909818 2.67176530464952
4 C0 26 0 5 0
0

0101000
+126 0 -133 0 *
Wi

0101100
-132 0 -127 0 +125 0 +124 0 *
Fa
0  1e-07 26 0

0111000
+123 0 *
Ve
1e-07
-22.0943096963968 33.9424730837296 1.8
0 0

0101101
*
Ed
 1e-07 1 1 0
1  71 0 4.6573420557581 7.90902855860107
2  95 27 0 4.6573420557581 7.90902855860107
4 C0 27 0 3 0
0

0101000
+121 0 -128 0 *
Ve
1e-07
-22.0943096963968 33.9424730837296 0
0 0

0101101
*
Ed
 1e-07 1 1 0
1  72 0 0 1.8
2  96 27 0 0 1.8
2  97 28 0 0 1.8
4 C0 27 0 28 0
0

0101000
+121 0 -119 0 *
Ed
 1e-07 1 1 0
1  73 0 4.6573420557581 7.90902855860107
2  98 27 0 4.6573420557581 7.90902855860107
4 C0 27 0 5 0
0

0101000
+119 0 -126 0 *
Wi

0101100
-125 0 -120 0 +118 0 +117 0 *
Fa
0  1e-07 27 0

0111000
+116 0 *
Ve
1e-07
-18.3478891095809 36.1054700180253 1.8
0 0

0101101
*
Ed
 1e-07 1 1 0
1  74 0 2.04096234869931 2.14782785608708
2  99 28 0 2.04096234869931 2.14782785608708
4 C0 28 0 3 0
0

0101000
+114 0 -121 0 *
Ve
1e-07
-18.3478891095809 36.1054700180253 0
0 0

0101101
*
Ed
 1e-07 1 1 0
1  75 0 0 1.8
2  100 28 0 0 1.8
2  101 29 0 0 1.8
4 C0 28 0 29 0
0

0101000
+114 0 -112 0 *
Ed
 1e-07 1 1 0
1  76 0 2.04096234869931 2.14782785608708
2  102 28 0 2.04096234869931 2.14782785608708
4 C0 28 0 5 0
0

0101000
+112 0 -119 0 *
Wi

0101100
-118 0 -113 0 +111 0 +110 0 *
Fa
0  1e-07 28 0

0111000
+109 0 *
Ve
1e-07
-9.15285027413784 39.4521904570484 1.8
0 0

0101101
*
Ed
 1e-07 1 1 0
1  77 0 4.65734205575814 7.90902855860105
2  103 29 0 4.65734205575814 7.90902855860105
4 C0 29 0 3 0
0

0101000
+107 0 -114 0 *
Ve
1e-07
-9.15285027413784 39.4521904570484 0
0 0

0101101
*
Ed
 1e-07 1 1 0
1  78 0 0 1.8
2  104 29 0 0 1.8
2  105 30 0 0 1.8
4 C0 29 0 30 0
0

0101000
+107 0 -105 0 *
Ed
 1e-07 1 1 0
1  79 0 4.65734205575814 7.90902855860105
2  106 29 0 4.65734205575814 7.90902855860105
4 C0 29 0 5 0
0

0101000
+105 0 -112 0 *
Wi

0101100
-111 0 -106 0 +104 0 +103 0 *
Fa
0  1e-07 29 0

0111000
+102 0 *
Ve
1e-07
-4.89257797286566 40.2033914089276 1.8
0 0

0101101
*
Ed
 1e-07 1 1 0
1  80 0 1.69189649830045 1.79876200568821
2  107 30 0 1.69189649830045 1.79876200568821
4 C0 30 0 3 0
0

0101000
+100 0 -107 0 *
Ve
1e-07
-4.89257797286566 40.2033914089276 0
0 0

0101101
*
Ed
 1e-07 1 1 0
1  81 0 0 1.8
2  108 30 0 0 1.8
2  109 31 0 0 1.8
4 C0 30 0 31 0
0

0101000
+100 0 -98 0 *
Ed
 1e-07 1 1 0
1  82 0 1.69189649830045 1.79876200568821
2  110 30 0 1.69189649830045 1.79876200568821
4 C0 30 0 5 0
0

0101000
+98 0 -105 0 *
Wi

0101100
-104 0 -99 0 +97 0 +96 0 *
Fa
0  1e-07 30 0

0111000
+95 0 *
Ve
1e-07
4.89257797286564 40.2033914089276 1.8
0 0

0101101
*
Ed
 1e-07 1 1 0
1  83 0 4.65734205575812 7.90902855860105
2  111 31 0 4.65734205575812 7.90902855860105
4 C0 31 0 3 0
0

0101000
+93 0 -100 0 *
Ve
1e-07
4.89257797286564 40.2033914089276 0
0 0

0101101
*
Ed
 1e-07 1 1 0
1  84 0 0 1.8
2  112 31 0 0 1.8
2  113 32 0 0 1.8
4 C0 31 0 32 0
0

0101000
+93 0 -91 0 *
Ed
 1e-07 1 1 0
1  85 0 4.65734205575812 7.90902855860105
2  114 31 0 4.65734205575812 7.90902855860105
4 C0 31 0 5 0
0

0101000
+91 0 -98 0 *
Wi

0101100
-97 0 -92 0 +90 0 +89 0 *
Fa
0  1e-07 31 0

0111000
+88 0 *
Ve
1e-07
9.15285027413782 39.4521904570484 1.8
0 0

0101101
*
Ed
 1e-07 1 1 0
1  86 0 1.34283064790158 1.44969615528935
2  115 32 0 1.34283064790158 1.44969615528935
4 C0 32 0 3 0
0

0101000
+86 0 -93 0 *
Ve
1e-07
9.15285027413782 39.4521904570484 0
0 0

0101101
*
Ed
 1e-07 1 1 0
1  87 0 0 1.8
2  116 32 0 0 1.8
2  117 33 0 0 1.8
4 C0 32 0 33 0
0

0101000
+86 0 -84 0 *
Ed
 1e-07 1 1 0
1  88 0 1.34283064790158 1.44969615528935
2  118 32 0 1.34283064790158 1.44969615528935
4 C0 32 0 5 0
0

0101000
+84 0 -91 0 *
Wi

0101100
-90 0 -85 0 +83 0 +82 0 *
Fa
0  1e-07 32 0

0111000
+81 0 *
Ve
1e-07
18.3478891095809 36.1054700180253 1.8
0 0

0101101
*
Ed
 1e-07 1 1 0
1  89 0 4.65734205575813 7.90902855860103
2  119 33 0 4.65734205575813 7.90902855860103
4 C0 33 0 3 0
0

0101000
+79 0 -86 0 *
Ve
1e-07
18.3478891095809 36.1054700180253 0
0 0

0101101
*
Ed
 1e-07 1 1 0
1  90 0 0 1.8
2  120 33 0 0 1.8
2  121 34 0 0 1.8
4 C0 33 0 34 0
0

0101000
+79 0 -77 0 *
Ed
 1e-07 1 1 0
1  91 0 4.65734205575813 7.90902855860103
2  122 33 0 4.65734205575813 7.90902855860103
4 C0 33 0 5 0
0

0101000
+77 0 -84 0 *
Wi

0101100
-83 0 -78 0 +76 0 +75 0 *
Fa
0  1e-07 33 0

0111000
+74 0 *
Ve
1e-07
22.0943096963968 33.9424730837296 1.8
0 0

0101101
*
Ed
 1e-07 1 1 0
1  92 0 0.993764797502717 1.10063030489048
2  123 34 0 0.993764797502717 1.10063030489048
4 C0 34 0 3 0
0

0101000
+72 0 -79 0 *
Ve
1e-07
22.0943096963968 33.9424730837296 0
0 0

0101101
*
Ed
 1e-07 1 1 0
1  93 0 0 1.8
2  124 34 0 0 1.8
2  125 35 0 0 1.8
4 C0 34 0 35 0
0

0101000
+72 0 -70 0 *
Ed
 1e-07 1 1 0
1  94 0 0.993764797502717 1.10063030489048
2  126 34 0 0.993764797502717 1.10063030489048
4 C0 34 0 5 0
0

0101000
+70 0 -77 0 *
Wi

0101100
-76 0 -71 0 +69 0 +68 0 *
Fa
0  1e-07 34 0

0111000
+67 0 *
Ve
1e-07
29.590174033677 27.6526960829629 1.8
0 0

0101101
*
Ed
 1e-07 1 1 0
1  95 0 4.65734205575812 7.90902855860106
2  127 35 0 4.65734205575812 7.90902855860106
4 C0 35 0 3 0
0

0101000
+65 0 -72 0 *
Ve
1e-07
29.590174033677 27.6526960829629 0
0 0

0101101
*
Ed
 1e-07 1 1 0
1  96 0 0 1.8
2  128 35 0 0 1.8
2  129 36 0 0 1.8
4 C0 35 0 36 0
0

0101000
+65 0 -63 0 *
Ed
 1e-07 1 1 0
1  97 0 4.65734205575812 7.90902855860106
2  130 35 0 4.65734205575812 7.90902855860106
4 C0 35 0 5 0
0

0101000
+63 0 -70 0 *
Wi

0101100
-69 0 -64 0 +62 0 +61 0 *
Fa
0  1e-07 35 0

0111000
+60 0 *
Ve
1e-07
32.3708692919875 24.3387925189616 1.8
0 0

0101101
*
Ed
 1e-07 1 1 0
1  98 0 0.644698947103849 0.751564454491614
2  131 36 0 0.644698947103849 0.751564454491614
4 C0 36 0 3 0
0

0101000
+58 0 -65 0 *
Ve
1e-07
32.3708692919875 24.3387925189616 0
0 0

0101101
*
Ed
 1e-07 1 1 0
1  99 0 0 1.8
2  132 36 0 0 1.8
2  133 2 0 0 1.8
4 C0 36 0 2 0
0

0101000
+58 0 -56 0 *
Ed
 1e-07 1 1 0
1  100 0 0.644698947103849 0.751564454491614
2  134 36 0 0.644698947103849 0.751564454491614
4 C0 36 0 5 0
0

0101000
+56 0 -63 0 *
Wi

0101100
-62 0 -57 0 +55 0 +54 0 *
Fa
0  1e-07 36 0

0111000
+53 0 *
Ed
 1e-07 1 1 0
1  101 0 4.65734205575812 7.90902855860107
2  135 2 0 4.65734205575812 7.90902855860107
4 C0 2 0 3 0
0

0101000
+285 0 -58 0 *
Ed
 1e-07 1 1 0
1  102 0 4.65734205575812 7.90902855860107
2  136 2 0 4.65734205575812 7.90902855860107
4 C0 2 0 5 0
0

0101000
+284 0 -56 0 *
Wi

0101100
-55 0 -51 0 +283 0 +50 0 *
Fa
0  1e-07 2 0

0111000
+49 0 *
Ve
1e-05
49.0985506534222 12.733897019044 1.8
0 0

0101101
*
Ed
 1e-07 1 1 0
1  103 0 0 6.28318530717959
2  137 37 0 0 6.28318530717959
4 C0 37 0 3 0
0

0101000
-47 0 +47 0 *
Ve
1e-05
49.0985506534222 12.733897019044 0
0 0

0101101
*
Ed
 1e-05 1 1 0
1  104 0 0 1.8
3  138 139CN 37 0 0 1.8
0

0101000
+47 0 -45 0 *
Ed
 1e-07 1 1 0
1  105 0 0 6.28318530717959
2  140 37 0 0 6.28318530717959
4 C0 37 0 5 0
0

0101000
+45 0 -45 0 *
Wi

0101100
-46 0 +44 0 +43 0 -44 0 *
Fa
0  1e-07 37 0

0111000
+42 0 *
Ve
1e-05
-38.7272805790184 28.2199606684715 1.8
0 0

0101101
*
Ed
 1e-07 1 1 0
1  106 0 0 6.28318530717959
2  141 38 0 0 6.28318530717959
4 C0 38 0 3 0
0

0101000
-40 0 +40 0 *
Ve
1e-05
-38.7272805790184 28.2199606684715 0
0 0

0101101
*
Ed
 1e-05 1 1 0
1  107 0 0 1.8
3  142 143CN 38 0 0 1.8
0

0101000
+40 0 -38 0 *
Ed
 1e-07 1 1 0
1  108 0 0 6.28318530717959
2  144 38 0 0 6.28318530717959
4 C0 38 0 5 0
0

0101000
+38 0 -38 0 *
Wi

0101100
-39 0 +37 0 +36 0 -37 0 *
Fa
0  1e-07 38 0

0111000
+35 0 *
Ve
1e-05
-15.2523910516229 -46.2328769426667 1.8
0 0

0101101
*
Ed
 1e-07 1 1 0
1  109 0 0 6.28318530717959
2  145 39 0 0 6.28318530717959
4 C0 39 0 3 0
0

0101000
-33 0 +33 0 *
Ve
1e-05
-15.2523910516229 -46.2328769426667 0
0 0

0101101
*
Ed
 1e-05 1 1 0
1  110 0 0 1.8
3  146 147CN 39 0 0 1.8
0

0101000
+33 0 -31 0 *
Ed
 1e-07 1 1 0
1  111 0 0 6.28318530717959
2  148 39 0 0 6.28318530717959
4 C0 39 0 5 0
0

0101000
+31 0 -31 0 *
Wi

0101100
-32 0 +30 0 +29 0 -30 0 *
Fa
0  1e-07 39 0

0111000
+28 0 *
Ve
1e-05
52.4375 0 0.6
0 0

0101101
*
Ed
 1e-07 1 1 0
1  112 0 0 6.28318530717959
2  149 40 0 0 6.28318530717959
2  150 41 0 0 6.28318530717959
4 C0 40 0 41 0
0

0101000
-26 0 +26 0 *
Ve
1e-05
52.4375 0 1.8
0 0

0101101
*
Ed
 1e-05 1 1 0
1  113 0 0 1.2
3  151 152CN 40 0 0 1.2
0

0101000
-26 0 +24 0 *
Ed
 1e-07 1 1 0
1  114 0 0 6.28318530717959
2  153 40 0 0 6.28318530717959
4 C0 40 0 3 0
0

0101000
-24 0 +24 0 *
Wi

0101100
+25 0 -23 0 -22 0 +23 0 *
Fa
0  1e-07 40 0

0101000
+21 0 *
Wi

0101100
-32 0 *
Wi

0101100
-39 0 *
Wi

0101100
-46 0 *
Wi

0101100
-281 0 -274 0 -267 0 -260 0 -253 0 -246 0 -239 0 -232 0 -225 0 -218 0 
-211 0 -204 0 -197 0 -190 0 -183 0 -176 0 -169 0 -162 0 -155 0 -148 0 
-141 0 -134 0 -127 0 -120 0 -113 0 -106 0 -99 0 -92 0 -85 0 -78 0 
-71 0 -64 0 -57 0 -51 0 *
Wi

0101100
+22 0 *
Fa
0  1e-07 3 0

0111000
+19 0 +18 0 +17 0 +16 0 +15 0 *
Ve
1e-05
51.8375 0 0
0 0

0101101
*
Ed
 1e-07 1 1 0
1  115 0 0 6.28318530717959
2  154 41 0 0 6.28318530717959
4 C0 5 0 41 0
0

0101000
+13 0 -13 0 *
Wi

0101100
-12 0 *
Wi

0101100
+29 0 *
Wi

0101100
+36 0 *
Wi

0101100
+43 0 *
Wi

0101100
+278 0 +50 0 +54 0 +61 0 +68 0 +75 0 +82 0 +89 0 +96 0 +103 0 
+110 0 +117 0 +124 0 +131 0 +138 0 +145 0 +152 0 +159 0 +166 0 +173 0 
+180 0 +187 0 +194 0 +201 0 +208 0 +215 0 +222 0 +229 0 +236 0 +243 0 
+250 0 +257 0 +264 0 +271 0 *
Fa
0  1e-07 5 0

0101000
-11 0 -10 0 -9 0 -8 0 -7 0 *
Ed
 1e-05 1 1 0
1  116 0 -0.848528137423858 0
3  155 156CN 41 0 -0.848528137423858 0
0

0101000
+13 0 -26 0 *
Wi

0101100
+12 0 +5 0 -25 0 -5 0 *
Fa
0  1e-07 41 0

0111000
+4 0 *
Sh

0101100
-276 0 -269 0 -262 0 -255 0 -248 0 -241 0 -234 0 -227 0 -220 0 -213 0 
-206 0 -199 0 -192 0 -185 0 -178 0 -171 0 -164 0 -157 0 -150 0 -143 0 
-136 0 -129 0 -122 0 -115 0 -108 0 -101 0 -94 0 -87 0 -80 0 -73 0 
-66 0 -59 0 -52 0 -48 0 -41 0 -34 0 -27 0 +20 0 +14 0 -6 0 
+3 0 *
So

0100000
+2 0 *

+1 1 