DBRep_DrawableShape

CASCADE Topology V3, (c) Open Cascade
Locations 4
1
              1               0               0 -26.0328981923049 
              0               1               0 31.0247999463187 
              0               0               1          -49.35 
1
              1               0               0               0 
              0               1               0               0 
              0               0               1               0 
1
              1               0               0               0 
              0               1               0               0 
              0               0               1               0 
2  1 1 2 1 3 1 0
Curve2ds 36
1 4.6105231580428612 0 0 1 
1 4.6105231580428612 1.5 -1 0 
1 3.7969901659347043 0 0 1 
1 4.6105231580428612 0 -1 0 
1 3.353886096606943 0 0 1 
1 3.3538860966069444 1.5 -1 0 
1 2.5403531044987919 0 0 1 
1 3.3538860966069444 0 -1 0 
1 2.0972490351710289 0 0 1 
1 2.0972490351710276 1.5 -1 0 
1 1.2837160430628725 0 0 1 
1 2.0972490351710276 0 -1 0 
1 0.84061197373510921 0 0 1 
1 0.84061197373510887 1.5 -1 0 
1 0.027078981626957068 0 0 1 
1 0.84061197373510887 0 -1 0 
1 5.8671602194787775 0 0 1 
1 5.8671602194787784 1.5 -1 0 
1 5.0536272273706278 0 0 1 
1 5.8671602194787784 0 -1 0 
1 0.47188929121111844 0 0 1 
1 6.7550745983906841 0 0 1 
1 5.8112960159684661 0 -1 0 
1 5.8112960159684679 0 0 1 
1 -0.47188929121109791 0 0 1 
1 5.8112960159684661 1.5 -1 0 
1 0.78539816339744828 0 -1 0 
1 0.78539816339742607 0 0 1 
1 0.78539816339744828 1.5 -1 0 
1 3.9269908169872387 0 0 1 
1 3.926990816987241 1.5 -1 0 
1 2.3561944901923471 0 0 1 
1 3.926990816987241 0 -1 0 
1 5.4977871437821371 0 0 1 
1 6.7550745983907072 0 -1 0 
1 6.7550745983907072 1.5 -1 0 
Curves 63
1 4.2000000000000002 -2.5455844122715696 0 0 -1 0 
1 4.2000000000000002 0 1.5 0 0 -1 
1 4.2000000000000002 -2.5455844122715696 1.5 0 -1 0 
1 4.2000000000000002 -5.0911688245431392 1.5 0 0 -1 
2 3.8649999999999998 3.2772569298513599 0 0 0 1 0.10168974279680797 -0.99481616201684175 0 0.99481616201684175 0.10168974279680797 -0 3.2943342247347602
1 6.4767670075121506 1.2694444180042499 1.5 0 0 -1 
2 3.8649999999999998 3.2772569298513599 1.5 0 0 1 0.10168974279680797 -0.99481616201684175 0 0.99481616201684175 0.10168974279680797 -0 3.2943342247347602
1 6.3248673669389106 1.78872277234539 0 0.28075528749739703 -0.9597793853497032 0 
1 6.1398606625152699 2.4211796804238896 1.5 0 0 -1 
1 6.3248673669389106 1.78872277234539 1.5 0.28075528749739703 -0.9597793853497032 0 
1 3.71886601944502 3.20780852443177 0 0.95105651629515375 -0.30901699437494695 0 
1 1.29787137637478 3.9944373684396504 1.5 0 0 -1 
1 3.71886601944502 3.20780852443177 1.5 0.95105651629515375 -0.30901699437494695 0 
2 -1.9225058754494302 4.6885615217379097 0 0 0 1 0.9775502520796836 -0.21070240781478292 0 0.21070240781478292 0.9775502520796836 -0 3.29433422473477
1 0.79411768811077799 6.5520513655976194 1.5 0 0 -1 
2 -1.9225058754494302 4.6885615217379097 1.5 0 0 1 0.9775502520796836 -0.21070240781478292 0 0.21070240781478292 0.9775502520796836 -0 3.29433422473477
1 0.272804325794123 6.5674754310891998 0 0.99956259373991241 -0.029573995265079481 0 
1 -0.40535742437711703 6.5875401599157195 1.5 0 0 -1 
1 0.272804325794123 6.5674754310891998 1.5 0.99956259373991241 -0.029573995265079481 0 
1 -1.9016144003759399 4.5281191097720495 0 0.5877852522924728 0.80901699437494767 0 
1 -3.3978713763747703 2.4686980596283798 1.5 0 0 -1 
1 -1.9016144003759399 4.5281191097720495 1.5 0.5877852522924728 0.80901699437494767 0 
2 -5.05317397459911 -0.37956655107241699 0 0 0 1 0.50246953869946431 0.8645949124758644 -0 -0.8645949124758644 0.50246953869946431 0 3.29433422473477
1 -5.9859752851921995 2.7799460219702499 1.5 0 0 -1 
2 -5.05317397459911 -0.37956655107241699 1.5 0 0 1 0.50246953869946431 0.8645949124758644 -0 -0.8645949124758644 0.50246953869946431 0 3.29433422473477
1 -6.1976586528610103 2.1885653373509002 0 0.33700836931687095 0.94150165109275485 0 
1 -6.3903853283724503 1.65014404065894 1.5 0 0 -1 
1 -6.1976586528610103 2.1885653373509002 1.5 0.33700836931687095 0.94150165109275485 0 
1 -4.8941283523736097 -0.40927700948472501 0 -0.58778525229247403 0.8090169943749469 0 
1 -3.3978713763747801 -2.4686980596283901 1.5 0 0 -1 
1 -4.8941283523736097 -0.40927700948472501 1.5 -0.58778525229247403 0.8090169943749469 0 
2 -1.2005273919192301 -4.9231465512932298 0 0 0 1 -0.66700699885193493 0.74505145022510688 0 -0.74505145022510688 -0.66700699885193493 0 3.2943342247347602
1 -4.4936538701763995 -4.8339502371299394 1.5 0 0 -1 
2 -1.2005273919192301 -4.9231465512932298 1.5 0 0 1 -0.66700699885193493 0.74505145022510688 0 -0.74505145022510688 -0.66700699885193493 0 3.2943342247347602
1 -3.95963919828958 -5.2466049603605098 0 -0.79127996700890746 0.6114540161045493 0 
1 -3.5441179097657103 -5.5676950564554 1.5 0 0 -1 
1 -3.95963919828958 -5.2466049603605098 1.5 -0.79127996700890746 0.6114540161045493 0 
1 -1.12312326669547 -4.7810662124475201 0 -0.95105651629515342 -0.30901699437494784 0 
1 1.29787137637478 -3.9944373684396504 1.5 0 0 -1 
1 -1.12312326669547 -4.7810662124475201 1.5 -0.95105651629515342 -0.30901699437494784 0 
2 4.3112072419677698 -2.6631053492236298 0 0 0 1 -0.9147025347240213 -0.40412779286934813 0 0.40412779286934813 -0.9147025347240213 0 3.29433422473477
1 3.2087444597456698 -5.7674915684421597 1.5 0 0 -1 
2 4.3112072419677698 -2.6631053492236298 1.5 0 0 1 -0.9147025347240213 -0.40412779286934813 0 0.40412779286934813 -0.9147025347240213 0 3.29433422473477
1 -3.1442100539248701 1.6046317760775299 1.5 0 0 -1 
2 0 0 1.5 0 0 1 -0.89071106343480799 -0.45456990823726301 0 0.45456990823726301 -0.89071106343480799 0 3.5300000000000002
1 -3.1442100539248701 -1.6046317760775299 1.5 0 0 -1 
2 0 0 0 0 0 1 -0.89071106343480799 -0.45456990823726301 0 0.45456990823726301 -0.89071106343480799 0 3.5300000000000002
2 -2.8769967348944303 -1.46826080360636 1.5 0 0 1 -0.70710678118654757 0.70710678118654757 0 -0.70710678118654757 -0.70710678118654757 0 0.29999999999999999
1 -3.0891287692503999 -1.2561287692504 1.5 0 0 -1 
2 -2.8769967348944303 -1.46826080360636 0 0 0 1 -0.70710678118654757 0.70710678118654757 0 -0.70710678118654757 -0.70710678118654757 0 0.29999999999999999
1 -2.4651677937074501 -0.63216779370745102 0 -0.70710678118654746 -0.70710678118654746 0 
1 -2.2572640687119301 -0.42426406871192801 1.5 0 0 -1 
1 -2.4651677937074501 -0.63216779370745102 1.5 -0.70710678118654746 -0.70710678118654746 0 
2 -2.68152813742386 -1.6263032587282601e-16 0 0 0 1 0.70710678118654802 -0.70710678118654702 0 0.70710678118654702 0.70710678118654802 -0 0.59999999999999998
1 -2.2572640687119301 0.42426406871192801 1.5 0 0 -1 
2 -2.68152813742386 -1.6263032587282601e-16 1.5 0 0 1 0.70710678118654802 -0.70710678118654702 0 0.70710678118654702 0.70710678118654802 -0 0.59999999999999998
1 -2.4798864657489301 0.64688646574892894 0 -0.70710678118654746 0.70710678118654746 0 
1 -3.0891287692503999 1.25612876925039 1.5 0 0 -1 
1 -2.4798864657489301 0.64688646574892894 1.5 -0.70710678118654746 0.70710678118654746 0 
2 -2.8769967348944303 1.46826080360636 1.5 0 0 1 -0.89071106343480799 0.45456990823726301 0 -0.45456990823726301 -0.89071106343480799 0 0.29999999999999999
2 -2.8769967348944303 1.46826080360636 0 0 0 1 -0.89071106343480799 0.45456990823726301 0 -0.45456990823726301 -0.89071106343480799 0 0.29999999999999999
1 3.8015845835600399 -5.3630032776340304 0 -0.82604628354527232 -0.56360228658251865 0 
1 3.8015845835600399 -5.3630032776340304 1.5 -0.82604628354527232 -0.56360228658251865 0 
Polygon3D 0
PolygonOnTriangulations 0
Surfaces 23
1 4.2000000000000002 -2.5455844122715696 1.5 1 0 0 0 0 -1 -0 1 0 
1 0 0 0 0 0 1 1 0 -0 -0 1 0 
2 3.8649999999999998 3.2772569298513599 1.5 0 0 -1 -1 0 0 0 1 0 3.2943342247347602
1 0 0 1.5 0 0 1 1 0 -0 -0 1 0 
1 3.8015845835600399 -5.3630032776340304 1.5 0.56360228658251865 -0.82604628354527243 0 0.82604628354527243 0.56360228658251865 0 -0 0 1 
1 6.3248673669389106 1.78872277234539 1.5 0.9597793853497032 0.28075528749739703 0 -0.28075528749739703 0.9597793853497032 0 0 -0 1 
1 3.71886601944502 3.20780852443177 1.5 0.30901699437494695 0.95105651629515375 0 -0.95105651629515375 0.30901699437494695 0 0 -0 1 
2 -1.9225058754494302 4.6885615217379097 1.5 0 0 -1 -1 0 0 0 1 0 3.29433422473477
1 0.272804325794123 6.5674754310891998 1.5 0.029573995265079513 0.99956259373991241 0 -0.99956259373991241 0.029573995265079513 0 0 -0 1 
1 -1.9016144003759399 4.5281191097720495 1.5 -0.80901699437494767 0.5877852522924728 0 -0.5877852522924728 -0.80901699437494767 0 0 0 1 
2 -5.05317397459911 -0.37956655107241699 1.5 0 0 -1 -1 0 0 0 1 0 3.29433422473477
1 -6.1976586528610103 2.1885653373509002 1.5 -0.94150165109275497 0.337008369316871 0 -0.337008369316871 -0.94150165109275497 0 0 0 1 
1 -4.8941283523736097 -0.40927700948472501 1.5 -0.80901699437494679 -0.58778525229247391 0 0.58778525229247391 -0.80901699437494679 0 0 0 1 
2 -1.2005273919192301 -4.9231465512932298 1.5 0 0 -1 -1 0 0 0 1 0 3.2943342247347602
1 -3.95963919828958 -5.2466049603605098 1.5 -0.6114540161045493 -0.79127996700890746 0 0.79127996700890746 -0.6114540161045493 0 0 0 1 
1 -1.12312326669547 -4.7810662124475201 1.5 0.3090169943749479 -0.95105651629515353 0 0.95105651629515353 0.3090169943749479 0 -0 0 1 
2 4.3112072419677698 -2.6631053492236298 1.5 0 0 -1 -1 0 0 0 1 0 3.29433422473477
2 0 0 1.5 0 0 -1 -1 0 0 0 1 0 3.5300000000000002
2 -2.8769967348944303 1.46826080360636 1.5 0 0 -1 -1 0 0 0 1 0 0.29999999999999999
2 -2.8769967348944303 -1.46826080360636 1.5 0 0 -1 -1 0 0 0 1 0 0.29999999999999999
1 -2.4651677937074501 -0.63216779370745102 1.5 0.70710678118654757 -0.70710678118654757 0 0.70710678118654757 0.70710678118654757 0 -0 0 1 
2 -2.68152813742386 -1.6263032587282601e-16 1.5 0 0 -1 -1 0 0 0 1 0 0.59999999999999998
1 -2.4798864657489301 0.64688646574892894 1.5 -0.70710678118654757 -0.70710678118654757 0 0.70710678118654757 -0.70710678118654757 0 0 0 1 
Triangulations 0

TShapes 155
Ve
1e-07
4.2 0 0
0 0

0101101
*
Ve
1e-07
4.2 -5.09116882454314 0
0 0

0101101
*
Ed
 1e-07 1 1 0
1  1 0 -2.54558441227157 2.54558441227157
4 C0 1 0 2 0
0

0101000
+155 0 -154 0 *
Ve
1e-07
4.2 0 1.5
0 0

0101101
*
Ed
 1e-07 1 1 0
1  2 0 0 1.5
2  1 3 0 0 1.5
4 C0 1 0 3 0
0

0101000
+152 0 -155 0 *
Ve
1e-07
4.2 -5.09116882454314 1.5
0 0

0101101
*
Ed
 1e-07 1 1 0
1  3 0 -2.54558441227157 2.54558441227157
4 C0 1 0 4 0
0

0101000
+152 0 -150 0 *
Ed
 1e-07 1 1 0
1  4 0 0 1.5
4 C0 1 0 5 0
0

0101000
+150 0 -154 0 *
Wi

0101100
-153 0 -151 0 +149 0 +148 0 *
Fa
0  1e-07 1 0

0111000
+147 0 *
Ve
1e-07
6.47676700751215 1.26944441800425 0
0 0

0101101
*
Ed
 1e-07 1 1 0
1  5 0 0 0.813532992108157
2  2 3 0 0 0.813532992108157
4 C0 3 0 2 0
0

0101000
+155 0 -145 0 *
Ve
1e-07
6.47676700751215 1.26944441800425 1.5
0 0

0101101
*
Ed
 1e-07 1 1 0
1  6 0 0 1.5
2  3 3 0 0 1.5
4 C0 3 0 6 0
0

0101000
+143 0 -145 0 *
Ed
 1e-07 1 1 0
1  7 0 0 0.813532992108157
2  4 3 0 0 0.813532992108157
4 C0 3 0 4 0
0

0101000
+152 0 -143 0 *
Wi

0101100
+144 0 -142 0 -141 0 +151 0 *
Fa
0  1e-07 3 0

0111000
+140 0 *
Ve
1e-07
6.13986066251527 2.42117968042389 0
0 0

0101101
*
Ed
 1e-07 1 1 0
1  8 0 -0.658960712985161 0.541039287014836
4 C0 6 0 2 0
0

0101000
+138 0 -145 0 *
Ve
1e-07
6.13986066251527 2.42117968042389 1.5
0 0

0101101
*
Ed
 1e-07 1 1 0
1  9 0 0 1.5
4 C0 6 0 7 0
0

0101000
+136 0 -138 0 *
Ed
 1e-07 1 1 0
1  10 0 -0.658960712985161 0.541039287014836
4 C0 6 0 4 0
0

0101000
+136 0 -143 0 *
Wi

0101100
-137 0 -135 0 +134 0 +142 0 *
Fa
0  1e-07 6 0

0111000
+133 0 *
Ve
1e-07
1.29787137637478 3.99443736843965 0
0 0

0101101
*
Ed
 1e-07 1 1 0
1  11 0 -2.54558441227157 2.54558441227158
4 C0 7 0 2 0
0

0101000
+131 0 -138 0 *
Ve
1e-07
1.29787137637478 3.99443736843965 1.5
0 0

0101101
*
Ed
 1e-07 1 1 0
1  12 0 0 1.5
2  5 8 0 0 1.5
4 C0 7 0 8 0
0

0101000
+129 0 -131 0 *
Ed
 1e-07 1 1 0
1  13 0 -2.54558441227157 2.54558441227158
4 C0 7 0 4 0
0

0101000
+129 0 -136 0 *
Wi

0101100
-130 0 -128 0 +127 0 +135 0 *
Fa
0  1e-07 7 0

0111000
+126 0 *
Ve
1e-07
0.794117688110778 6.55205136559762 0
0 0

0101101
*
Ed
 1e-07 1 1 0
1  14 0 0 0.813532992108152
2  6 8 0 0 0.813532992108152
4 C0 8 0 2 0
0

0101000
+131 0 -124 0 *
Ve
1e-07
0.794117688110778 6.55205136559762 1.5
0 0

0101101
*
Ed
 1e-07 1 1 0
1  15 0 0 1.5
2  7 8 0 0 1.5
4 C0 8 0 9 0
0

0101000
+122 0 -124 0 *
Ed
 1e-07 1 1 0
1  16 0 0 0.813532992108152
2  8 8 0 0 0.813532992108152
4 C0 8 0 4 0
0

0101000
+129 0 -122 0 *
Wi

0101100
+123 0 -121 0 -120 0 +128 0 *
Fa
0  1e-07 8 0

0111000
+119 0 *
Ve
1e-07
-0.405357424377117 6.58754015991572 0
0 0

0101101
*
Ed
 1e-07 1 1 0
1  17 0 -0.678458512171674 0.521541487828327
4 C0 9 0 2 0
0

0101000
+117 0 -124 0 *
Ve
1e-07
-0.405357424377117 6.58754015991572 1.5
0 0

0101101
*
Ed
 1e-07 1 1 0
1  18 0 0 1.5
4 C0 9 0 10 0
0

0101000
+115 0 -117 0 *
Ed
 1e-07 1 1 0
1  19 0 -0.678458512171674 0.521541487828327
4 C0 9 0 4 0
0

0101000
+115 0 -122 0 *
Wi

0101100
-116 0 -114 0 +113 0 +121 0 *
Fa
0  1e-07 9 0

0111000
+112 0 *
Ve
1e-07
-3.39787137637477 2.46869805962838 0
0 0

0101101
*
Ed
 1e-07 1 1 0
1  20 0 -2.54558441227157 2.54558441227157
4 C0 10 0 2 0
0

0101000
+110 0 -117 0 *
Ve
1e-07
-3.39787137637477 2.46869805962838 1.5
0 0

0101101
*
Ed
 1e-07 1 1 0
1  21 0 0 1.5
2  9 11 0 0 1.5
4 C0 10 0 11 0
0

0101000
+108 0 -110 0 *
Ed
 1e-07 1 1 0
1  22 0 -2.54558441227157 2.54558441227157
4 C0 10 0 4 0
0

0101000
+108 0 -115 0 *
Wi

0101100
-109 0 -107 0 +106 0 +114 0 *
Fa
0  1e-07 10 0

0111000
+105 0 *
Ve
1e-07
-5.9859752851922 2.77994602197025 0
0 0

0101101
*
Ed
 1e-07 1 1 0
1  23 0 0 0.813532992108155
2  10 11 0 0 0.813532992108155
4 C0 11 0 2 0
0

0101000
+110 0 -103 0 *
Ve
1e-07
-5.9859752851922 2.77994602197025 1.5
0 0

0101101
*
Ed
 1e-07 1 1 0
1  24 0 0 1.5
2  11 11 0 0 1.5
4 C0 11 0 12 0
0

0101000
+101 0 -103 0 *
Ed
 1e-07 1 1 0
1  25 0 0 0.813532992108155
2  12 11 0 0 0.813532992108155
4 C0 11 0 4 0
0

0101000
+108 0 -101 0 *
Wi

0101100
+102 0 -100 0 -99 0 +107 0 *
Fa
0  1e-07 11 0

0111000
+98 0 *
Ve
1e-07
-6.39038532837245 1.65014404065894 0
0 0

0101101
*
Ed
 1e-07 1 1 0
1  26 0 -0.571875042456955 0.628124957543051
4 C0 12 0 2 0
0

0101000
+96 0 -103 0 *
Ve
1e-07
-6.39038532837245 1.65014404065894 1.5
0 0

0101101
*
Ed
 1e-07 1 1 0
1  27 0 0 1.5
4 C0 12 0 13 0
0

0101000
+94 0 -96 0 *
Ed
 1e-07 1 1 0
1  28 0 -0.571875042456955 0.628124957543051
4 C0 12 0 4 0
0

0101000
+94 0 -101 0 *
Wi

0101100
-95 0 -93 0 +92 0 +100 0 *
Fa
0  1e-07 12 0

0111000
+91 0 *
Ve
1e-07
-3.39787137637478 -2.46869805962839 0
0 0

0101101
*
Ed
 1e-07 1 1 0
1  29 0 -2.54558441227157 2.54558441227158
4 C0 13 0 2 0
0

0101000
+89 0 -96 0 *
Ve
1e-07
-3.39787137637478 -2.46869805962839 1.5
0 0

0101101
*
Ed
 1e-07 1 1 0
1  30 0 0 1.5
2  13 14 0 0 1.5
4 C0 13 0 14 0
0

0101000
+87 0 -89 0 *
Ed
 1e-07 1 1 0
1  31 0 -2.54558441227157 2.54558441227158
4 C0 13 0 4 0
0

0101000
+87 0 -94 0 *
Wi

0101100
-88 0 -86 0 +85 0 +93 0 *
Fa
0  1e-07 13 0

0111000
+84 0 *
Ve
1e-07
-4.4936538701764 -4.83395023712994 0
0 0

0101101
*
Ed
 1e-07 1 1 0
1  32 0 0 0.813532992108152
2  14 14 0 0 0.813532992108152
4 C0 14 0 2 0
0

0101000
+89 0 -82 0 *
Ve
1e-07
-4.4936538701764 -4.83395023712994 1.5
0 0

0101101
*
Ed
 1e-07 1 1 0
1  33 0 0 1.5
2  15 14 0 0 1.5
4 C0 14 0 15 0
0

0101000
+80 0 -82 0 *
Ed
 1e-07 1 1 0
1  34 0 0 0.813532992108152
2  16 14 0 0 0.813532992108152
4 C0 14 0 4 0
0

0101000
+87 0 -80 0 *
Wi

0101100
+81 0 -79 0 -78 0 +86 0 *
Fa
0  1e-07 14 0

0111000
+77 0 *
Ve
1e-07
-3.54411790976571 -5.5676950564554 0
0 0

0101101
*
Ed
 1e-07 1 1 0
1  35 0 -0.525125500263283 0.674874499736719
4 C0 15 0 2 0
0

0101000
+75 0 -82 0 *
Ve
1e-07
-3.54411790976571 -5.5676950564554 1.5
0 0

0101101
*
Ed
 1e-07 1 1 0
1  36 0 0 1.5
4 C0 15 0 16 0
0

0101000
+73 0 -75 0 *
Ed
 1e-07 1 1 0
1  37 0 -0.525125500263283 0.674874499736719
4 C0 15 0 4 0
0

0101000
+73 0 -80 0 *
Wi

0101100
-74 0 -72 0 +71 0 +79 0 *
Fa
0  1e-07 15 0

0111000
+70 0 *
Ve
1e-07
1.29787137637478 -3.99443736843965 0
0 0

0101101
*
Ed
 1e-07 1 1 0
1  38 0 -2.54558441227157 2.54558441227157
4 C0 16 0 2 0
0

0101000
+68 0 -75 0 *
Ve
1e-07
1.29787137637478 -3.99443736843965 1.5
0 0

0101101
*
Ed
 1e-07 1 1 0
1  39 0 0 1.5
2  17 17 0 0 1.5
4 C0 16 0 17 0
0

0101000
+66 0 -68 0 *
Ed
 1e-07 1 1 0
1  40 0 -2.54558441227157 2.54558441227157
4 C0 16 0 4 0
0

0101000
+66 0 -73 0 *
Wi

0101100
-67 0 -65 0 +64 0 +72 0 *
Fa
0  1e-07 16 0

0111000
+63 0 *
Ve
1e-07
3.20874445974567 -5.76749156844216 0
0 0

0101101
*
Ed
 1e-07 1 1 0
1  41 0 0 0.81353299210815
2  18 17 0 0 0.81353299210815
4 C0 17 0 2 0
0

0101000
+68 0 -61 0 *
Ve
1e-07
3.20874445974567 -5.76749156844216 1.5
0 0

0101101
*
Ed
 1e-07 1 1 0
1  42 0 0 1.5
2  19 17 0 0 1.5
4 C0 17 0 5 0
0

0101000
+59 0 -61 0 *
Ed
 1e-07 1 1 0
1  43 0 0 0.81353299210815
2  20 17 0 0 0.81353299210815
4 C0 17 0 4 0
0

0101000
+66 0 -59 0 *
Wi

0101100
+60 0 -58 0 -57 0 +65 0 *
Fa
0  1e-07 17 0

0111000
+56 0 *
Ve
1e-07
-3.14421005392487 1.60463177607753 1.5
0 0

0101101
*
Ve
1e-07
-3.14421005392487 1.60463177607753 0
0 0

0101101
*
Ed
 1e-07 1 1 0
1  44 0 0 1.5
2  21 18 0 0 1.5
2  22 19 0 0 1.5
4 G1 18 0 19 0
0

0101000
+54 0 -53 0 *
Ve
1e-07
-3.14421005392487 -1.60463177607753 1.5
0 0

0101101
*
Ed
 1e-07 1 1 0
1  45 0 0 5.33940672475735
2  23 18 0 0 5.33940672475735
4 C0 18 0 4 0
0

0101000
+51 0 -54 0 *
Ve
1e-07
-3.14421005392487 -1.60463177607753 0
0 0

0101101
*
Ed
 1e-07 1 1 0
1  46 0 0 1.5
2  24 18 0 0 1.5
2  25 20 0 0 1.5
4 G1 18 0 20 0
0

0101000
+51 0 -49 0 *
Ed
 1e-07 1 1 0
1  47 0 0 5.33940672475735
2  26 18 0 0 5.33940672475735
4 C0 18 0 2 0
0

0101000
+49 0 -53 0 *
Wi

0101100
-52 0 -50 0 +48 0 +47 0 *
Fa
0  1e-07 18 0

0111000
+46 0 *
Ve
1e-07
-3.0891287692504 -1.2561287692504 1.5
0 0

0101101
*
Ed
 1e-07 1 1 0
1  48 0 0 1.25728745460855
2  27 20 0 0 1.25728745460855
4 C0 20 0 4 0
0

0101000
+44 0 -51 0 *
Ve
1e-07
-3.0891287692504 -1.2561287692504 0
0 0

0101101
*
Ed
 1e-07 1 1 0
1  49 0 0 1.5
2  28 20 0 0 1.5
4 G1 20 0 21 0
0

0101000
+44 0 -42 0 *
Ed
 1e-07 1 1 0
1  50 0 0 1.25728745460855
2  29 20 0 0 1.25728745460855
4 C0 20 0 2 0
0

0101000
+42 0 -49 0 *
Wi

0101100
-48 0 -43 0 +41 0 +40 0 *
Fa
0  1e-07 20 0

0111000
+39 0 *
Ve
1e-07
-2.25726406871193 -0.424264068711928 0
0 0

0101101
*
Ed
 1e-07 1 1 0
1  51 0 -0.294020267556553 0.882414074004386
4 C0 21 0 2 0
0

0101000
+37 0 -42 0 *
Ve
1e-07
-2.25726406871193 -0.424264068711928 1.5
0 0

0101101
*
Ed
 1e-07 1 1 0
1  52 0 0 1.5
2  30 22 0 0 1.5
4 G1 21 0 22 0
0

0101000
+35 0 -37 0 *
Ed
 1e-07 1 1 0
1  53 0 -0.294020267556553 0.882414074004386
4 C0 21 0 4 0
0

0101000
+35 0 -44 0 *
Wi

0101100
-36 0 -34 0 +33 0 +41 0 *
Fa
0  1e-07 21 0

0111000
+32 0 *
Ve
1e-07
-2.25726406871193 0.424264068711928 0
0 0

0101101
*
Ed
 1e-07 1 1 0
1  54 0 0 1.57079632679489
2  31 22 0 0 1.57079632679489
4 C0 22 0 2 0
0

0101000
+37 0 -30 0 *
Ve
1e-07
-2.25726406871193 0.424264068711928 1.5
0 0

0101101
*
Ed
 1e-07 1 1 0
1  55 0 0 1.5
2  32 22 0 0 1.5
4 G1 22 0 23 0
0

0101000
+28 0 -30 0 *
Ed
 1e-07 1 1 0
1  56 0 0 1.57079632679489
2  33 22 0 0 1.57079632679489
4 C0 22 0 4 0
0

0101000
+35 0 -28 0 *
Wi

0101100
+29 0 -27 0 -26 0 +34 0 *
Fa
0  1e-07 22 0

0111000
+25 0 *
Ve
1e-07
-3.0891287692504 1.25612876925039 0
0 0

0101101
*
Ed
 1e-07 1 1 0
1  57 0 -0.314835613177734 0.861598728383198
4 C0 23 0 2 0
0

0101000
+30 0 -23 0 *
Ve
1e-07
-3.0891287692504 1.25612876925039 1.5
0 0

0101101
*
Ed
 1e-07 1 1 0
1  58 0 0 1.5
2  34 19 0 0 1.5
4 G1 23 0 19 0
0

0101000
+21 0 -23 0 *
Ed
 1e-07 1 1 0
1  59 0 -0.314835613177734 0.861598728383198
4 C0 23 0 4 0
0

0101000
+28 0 -21 0 *
Wi

0101100
+22 0 -20 0 -19 0 +27 0 *
Fa
0  1e-07 23 0

0111000
-18 0 *
Ed
 1e-07 1 1 0
1  60 0 0 1.25728745460857
2  35 19 0 0 1.25728745460857
4 C0 19 0 4 0
0

0101000
+54 0 -21 0 *
Ed
 1e-07 1 1 0
1  61 0 0 1.25728745460857
2  36 19 0 0 1.25728745460857
4 C0 19 0 2 0
0

0101000
+53 0 -23 0 *
Wi

0101100
-20 0 -16 0 +52 0 +15 0 *
Fa
0  1e-07 19 0

0111000
+14 0 *
Ed
 1e-07 1 1 0
1  62 0 -0.482316093391306 0.717683906608696
4 C0 5 0 2 0
0

0101000
+154 0 -61 0 *
Ed
 1e-07 1 1 0
1  63 0 -0.482316093391306 0.717683906608696
4 C0 5 0 4 0
0

0101000
+150 0 -59 0 *
Wi

0101100
-12 0 -148 0 +11 0 +58 0 *
Fa
0  1e-07 5 0

0111000
+10 0 *
Wi

0101100
-50 0 -43 0 -33 0 +26 0 +19 0 -16 0 *
Wi

0101100
-149 0 +141 0 -134 0 -127 0 +120 0 -113 0 -106 0 +99 0 -92 0 -85 0 
+78 0 -71 0 -64 0 +57 0 -11 0 *
Fa
0  1e-07 4 0

0111000
+8 0 +7 0 *
Wi

0101100
+47 0 +15 0 -22 0 -29 0 +36 0 +40 0 *
Wi

0101100
+153 0 +12 0 -60 0 +67 0 +74 0 -81 0 +88 0 +95 0 -102 0 +109 0 
+116 0 -123 0 +130 0 +137 0 -144 0 *
Fa
0  1e-07 2 0

0111000
-5 0 -4 0 *
Sh

0101100
+146 0 +139 0 +132 0 +125 0 +118 0 +111 0 +104 0 +97 0 +90 0 +83 0 
+76 0 +69 0 +62 0 +55 0 -45 0 -38 0 +31 0 +24 0 -17 0 -13 0 
+9 0 +6 0 -3 0 *
So

0100000
+2 0 *

+1 4 