DBRep_DrawableShape

CASCADE Topology V3, (c) Open Cascade
Locations 4
1
              1               0               0            40.5 
              0               1               0 4.10242886105856e-16 
              0               0               1 -63.4249997496568 
1
              1               0               0               0 
              0               1               0               0 
              0               0               1               0 
1
              1               0               0               0 
              0               1               0               0 
              0               0               1               0 
2  1 1 2 1 3 1 0
Curve2ds 8
1 9.4247779607693793 0 -1 0 
1 9.4247779607693793 0 0 1 
1 3.1415926535897931 0 0 1 
1 9.4247779607693793 4.5 -1 0 
1 9.4247779607693793 0 -1 0 
1 9.4247779607693793 0 0 1 
1 3.1415926535897931 0 0 1 
1 9.4247779607693793 4.5 -1 0 
Curves 6
2 0 0 4.5 0 0 1 1 0 -0 -0 1 0 3.5089999999999999
7 0 0  1 2 2  3.5089999999999999 4.2972856182080624e-16 4.5  3.5089999999999999 4.2972856182080624e-16 0 
 0 2 4.5 2
2 0 0 0 0 0 1 1 0 -0 -0 1 0 3.5089999999999999
2 0 0 4.5 0 0 1 1 0 -0 -0 1 0 3.9699999999999998
7 0 0  1 2 2  3.9699999999999998 4.8618477926149916e-16 4.5  3.9699999999999998 4.8618477926149916e-16 0 
 0 2 4.5 2
2 0 0 0 0 0 1 1 0 -0 -0 1 0 3.9699999999999998
Polygon3D 0
PolygonOnTriangulations 0
Surfaces 4
10 3.1415926535897931 9.4247779607693793 0 4.5
2 0 0 4.5 0 0 -1 -1 0 0 0 1 0 3.5089999999999999
1 0 0 4.5 0 0 1 1 0 -0 -0 1 0 
1 0 0 0 0 0 1 1 0 -0 -0 1 0 
10 3.1415926535897931 9.4247779607693793 0 4.5
2 0 0 4.5 0 0 -1 -1 0 0 0 1 0 3.9699999999999998
Triangulations 0

TShapes 22
Ve
1e-05
3.509 0 4.5
0 0

0101101
*
Ed
 1e-07 1 1 0
1  1 0 0 6.28318530717959
2  1 1 0 0 6.28318530717959
4 C0 1 0 2 0
0

0101000
-22 0 +22 0 *
Ve
1e-05
3.509 0 0
0 0

0101101
*
Ed
 1e-05 1 1 0
1  2 0 0 4.5
3  2 3CN 1 0 0 4.5
0

0101000
+22 0 -20 0 *
Ed
 1e-07 1 1 0
1  3 0 0 6.28318530717959
2  4 1 0 0 6.28318530717959
4 C0 1 0 3 0
0

0101000
+20 0 -20 0 *
Wi

0101100
-21 0 +19 0 +18 0 -19 0 *
Fa
0  1e-07 1 0

0111000
+17 0 *
Ve
1e-05
3.97 0 4.5
0 0

0101101
*
Ed
 1e-07 1 1 0
1  4 0 0 6.28318530717959
2  5 4 0 0 6.28318530717959
4 C0 4 0 2 0
0

0101000
-15 0 +15 0 *
Ve
1e-05
3.97 0 0
0 0

0101101
*
Ed
 1e-05 1 1 0
1  5 0 0 4.5
3  6 7CN 4 0 0 4.5
0

0101000
+15 0 -13 0 *
Ed
 1e-07 1 1 0
1  6 0 0 6.28318530717959
2  8 4 0 0 6.28318530717959
4 C0 4 0 3 0
0

0101000
+13 0 -13 0 *
Wi

0101100
-14 0 +12 0 +11 0 -12 0 *
Fa
0  1e-07 4 0

0111000
+10 0 *
Wi

0101100
-21 0 *
Wi

0101100
+14 0 *
Fa
0  1e-07 2 0

0111000
+8 0 +7 0 *
Wi

0101100
+18 0 *
Wi

0101100
-11 0 *
Fa
0  1e-07 3 0

0111000
-5 0 -4 0 *
Sh

0101100
-16 0 +9 0 +6 0 -3 0 *
So

0100000
+2 0 *

+1 4 