DBRep_DrawableShape

CASCADE Topology V3, (c) Open Cascade
Locations 3
1
0.999996676390991 0.000448279947917766 0.00253894703768976 -57.3471252567388 
0.000247111224229481 -0.996899418442158 0.0786860117538709 10.4723336356119 
0.00256634818657924 -0.0786851228300226 -0.996896215913276 -1.7755006395407 
1
              1               0               0               0 
              0               1               0               0 
              0               0               1               0 
2  1 1 2 1 0
Curve2ds 50
1 0 0 1 0 
1 4.7123889803846879 10.995574287564274 0 -1 
1 6.2831853071795862 0 0 1 
1 0 0 0 1 
7 0 0  3 25 23  4.7123889803847101 10.526246599057782  4.8075887577662186 10.526260179044447  4.9979883125292357 10.525521814249641  5.2835876446737595 10.522383945822897  5.5691869768182825 10.517422667551726  5.8547863089628045 10.511052586705496  6.1403856411073257 10.50378637335937  6.4259849732518468 10.49621360285782  6.7115843053963697 10.488947532208583  6.9971836375408891 10.482576880574824  7.2827829696854129 10.47761774275688  7.5683823018299368 10.474471883304721  7.8539816339744633 10.47339415976098  8.139580966118988 10.474471883304719  8.4251802982635144 10.477617742756882  8.710779630408048 10.482576880574822  8.9963789625525798 10.488947532208584  9.2819782946971117 10.49621360285782  9.5675776268416453 10.503786373359377  9.8531769589861806 10.511052586705496  10.138776291130711 10.517422667551726  10.424375623275242 10.522383945822902  10.709974955419767 10.525521814249638  10.900374510182786 10.526260179044446  10.995574287564295 10.526246599057782 
 0 4 0.28559933214452665 1 0.5711986642890533 1 0.8567979964335799 1 1.1423973285781066 1 1.4279966607226333 1 1.7135959928671598 1 1.9991953250116865 1 2.2847946571562132 1 2.5703939893007397 1 2.8559933214452666 1 3.1415926535897931 1 3.4271919857343196 1 3.7127913178788465 1 3.998390650023373 1 4.2839899821678999 1 4.5695893143124264 1 4.8551886464569529 1 5.1407879786014794 1 5.4263873107460068 1 5.7119866428905333 1 5.9975859750350597 1 6.2831853071795862 4
7 0 0  3 25 23  6.2831853071795862 0.57375340094221894  6.3069852515249574 0.57375334433997227  6.3545851402157059 0.57379804732457085  6.4259849732518388 0.57399846346497363  6.4973848062879727 0.57433141967246237  6.5687846393241021 0.57479516577489032  6.6401844723602332 0.57538735296466514  6.7115843053963671 0.57610495975023379  6.7829841384324983 0.57694433040119386  6.8543839714686303 0.57790118740131446  6.9257838045047615 0.57897065490055921  6.9971836375408953 0.580147283117881  7.0685834705770247 0.58142507623091833  7.1399833036131595 0.58279752289739639  7.2113831366492906 0.58425762944420734  7.2827829696854227 0.58579795550251368  7.3541828027215548 0.58741065192555142  7.4255826357576886 0.58908750077553673  7.4969824687938189 0.59081995723923075  7.5683823018299528 0.59259919302556496  7.6397821348660857 0.5944161418928573  7.7111819679022178 0.5962615438319947  7.7825818009383498 0.5981259997783468  7.8301816896291045 0.59937532754169032  7.8539816339744828 0.59999999999999609 
 0 4 0.071399833036131663 1 0.14279966607226333 1 0.21419949910839498 1 0.28559933214452665 1 0.35699916518065833 1 0.42839899821678995 1 0.49979883125292163 1 0.5711986642890533 1 0.64259849732518493 1 0.71399833036131666 1 0.78539816339744828 1 0.8567979964335799 1 0.92819782946971163 1 0.99959766250584325 1 1.070997495541975 1 1.1423973285781066 1 1.2137971616142382 1 1.2851969946503699 1 1.3565968276865017 1 1.4279966607226333 1 1.4993964937587649 1 1.5707963267948966 4
7 0 0  3 25 23  -1.5707963267948761 10.526246599057782  -1.4755965494133676 10.526260179044447  -1.2851969946503505 10.525521814249641  -0.99959766250582671 10.522383945822897  -0.71399833036130378 10.517422667551726  -0.42839899821678173 10.511052586705496  -0.14279966607226058 10.50378637335937  0.14279966607226058 10.49621360285782  0.42839899821678351 10.488947532208583  0.71399833036130289 10.482576880574824  0.99959766250582671 10.47761774275688  1.2851969946503505 10.474471883304721  1.570796326794877 10.47339415976098  1.8563956589394017 10.474471883304719  2.1419949910839282 10.477617742756882  2.4275943232284622 10.482576880574822  2.7131936553729936 10.488947532208584  2.998792987517525 10.49621360285782  3.2843923196620595 10.503786373359377  3.5699916518065939 10.511052586705496  3.8555909839511235 10.517422667551726  4.1411903160956554 10.522383945822902  4.4267896482401818 10.525521814249638  4.6171892030031989 10.526260179044446  4.7123889803847092 10.526246599057782 
 0 4 0.28559933214452665 1 0.5711986642890533 1 0.8567979964335799 1 1.1423973285781066 1 1.4279966607226333 1 1.7135959928671598 1 1.9991953250116865 1 2.2847946571562132 1 2.5703939893007397 1 2.8559933214452666 1 3.1415926535897931 1 3.4271919857343196 1 3.7127913178788465 1 3.998390650023373 1 4.2839899821678999 1 4.5695893143124264 1 4.8551886464569529 1 5.1407879786014794 1 5.4263873107460068 1 5.7119866428905333 1 5.9975859750350597 1 6.2831853071795862 4
7 0 0  3 25 23  1.5707963267948966 0.59999999999999609  1.6421961598310295 0.60187516702153965  1.7849958259032945 0.60562139171312124  1.9991953250116907 0.61098707404271935  2.2133948241200887 0.61584969984901494  2.4275943232284831 0.61998813038442357  2.6417938223368846 0.62321291501024212  2.8559933214452773 0.62537674081821693  3.0701928205536717 0.62638068598014418  3.2843923196620679 0.62617886965021863  3.4985918187704605 0.62478051456198491  3.7127913178788532 0.62224953471799915  3.9269908169872458 0.61870161165894977  4.1411903160956403 0.61429890770720419  4.3553898152040311 0.60924265413235157  4.5695893143124273 0.60376395300531815  4.7837888134208164 0.5981132168471357  4.9979883125292162 0.59254871397487141  5.2121878116376053 0.58732479848771568  5.4263873107460014 0.58268015605451084  5.6405868098543941 0.57882737455896238  5.8547863089627867 0.57594143583107194  6.0689858080711794 0.57415840448354372  6.2117854741434471 0.57374897093749944  6.2831853071795862 0.57375340094221894 
 1.5707963267948966 4 1.7849958259032914 1 1.9991953250116865 1 2.2133948241200816 1 2.4275943232284765 1 2.6417938223368713 1 2.8559933214452666 1 3.0701928205536615 1 3.2843923196620564 1 3.4985918187704512 1 3.7127913178788461 1 3.9269908169872414 1 4.1411903160956367 1 4.3553898152040311 1 4.5695893143124264 1 4.7837888134208217 1 4.9979883125292162 1 5.2121878116376106 1 5.4263873107460059 1 5.6405868098544012 1 5.8547863089627956 1 6.0689858080711909 1 6.2831853071795862 4
1 0 4.7123889803846879 1 0 
1 0 10.995574287564274 1 0 
1 3.1415926535897931 10.995574287564278 0 -1 
1 1.5707963267948966 5.1000000000000005 1 0 
1 7.8539816339744828 0 0 1 
1 1.5707963267948966 0 0 1 
1 1.5707963267948966 0 1 0 
1 7.8539816339744828 0 0 1 
1 1.5707963267948966 0 0 1 
1 1.570796326794909 7.6064436220116427 1 0 
7 0 0  3 25 23  0 0  0.023524710465306242 0  0.064911072963065308 0  0.11463824399930744 0  0.15747398348077946 0  0.19599474757698987 0  0.23224199936909362 0  0.26775513760844394 0  0.30401956753532899 0  0.34247161909241663 0  0.38556503059559866 0  0.43433022608412486 0  0.49999999999999001 0  0.56566977391591511 0  0.61443496940439957 0  0.65752838090758914 0  0.695980432464673 0  0.73224486239155784 0  0.76775800063090704 0  0.80400525242301057 0  0.8425260165192201 0  0.88536175600068634 0  0.93508892703694313 0  0.97647528953470064 0  1 0 
 0 4 0.28559933214452665 1 0.5711986642890533 1 0.8567979964335799 1 1.1423973285781066 1 1.4279966607226333 1 1.7135959928671598 1 1.9991953250116865 1 2.2847946571562132 1 2.5703939893007397 1 2.8559933214452666 1 3.1415926535897931 1 3.4271919857343196 1 3.7127913178788465 1 3.998390650023373 1 4.2839899821678999 1 4.5695893143124264 1 4.8551886464569529 1 5.1407879786014794 1 5.4263873107460068 1 5.7119866428905333 1 5.9975859750350597 1 6.2831853071795862 4
1 0 0 1 0 
1 4.7123889803846879 10.995574287564274 0 -1 
1 6.2831853071795862 0 0 1 
1 0 0 0 1 
7 0 0  3 25 23  4.7123889803846684 10.526246599057782  4.8075887577661778 10.526260179044446  4.9979883125291966 10.525521814249638  5.2835876446737249 10.5223839458229  5.5691869768182549 10.517422667551727  5.8547863089627867 10.511052586705494  6.1403856411073194 10.503786373359375  6.4259849732518521 10.49621360285782  6.7115843053963866 10.488947532208583  6.9971836375409149 10.482576880574824  7.2827829696854511 10.477617742756886  7.5683823018299776 10.474471883304719  7.8539816339745041 10.47339415976098  8.1395809661190306 10.474471883304719  8.4251802982635517 10.47761774275688  8.7107796304080747 10.482576880574824  8.9963789625525976 10.488947532208584  9.2819782946971188 10.496213602857821  9.5675776268416399 10.503786373359372  9.8531769589861629 10.511052586705498  10.13877629113068 10.517422667551722  10.424375623275205 10.522383945822902  10.70997495541973 10.52552181424964  10.900374510182747 10.526260179044449  10.995574287564255 10.526246599057782 
 0 4 0.28559933214452665 1 0.5711986642890533 1 0.8567979964335799 1 1.1423973285781066 1 1.4279966607226333 1 1.7135959928671598 1 1.9991953250116865 1 2.2847946571562132 1 2.5703939893007397 1 2.8559933214452666 1 3.1415926535897931 1 3.4271919857343196 1 3.7127913178788465 1 3.998390650023373 1 4.2839899821678999 1 4.5695893143124264 1 4.8551886464569529 1 5.1407879786014794 1 5.4263873107460068 1 5.7119866428905333 1 5.9975859750350597 1 6.2831853071795862 4
7 0 0  3 25 23  0 0.57375340094221894  0.023799944345382684 0.5737533443399726  0.071399833036141835 0.57379804732457107  0.14279966607227301 0.57399846346497263  0.21419949910840419 0.57433141967246626  0.28559933214453626 0.57479516577488621  0.35699916518066654 0.57538735296466648  0.42839899821680039 0.57610495975023268  0.49979883125292623 0.57694433040119608  0.57119866428906185 0.5779011874013168  0.64259849732519037 0.57897065490055821  0.7139983303613251 0.58014728311788233  0.78539816339745538 0.58142507623091444  0.85679799643358567 0.58279752289739972  0.92819782946971863 0.58425762944420845  0.99959766250584714 0.58579795550251701  1.070997495541981 0.58741065192554753  1.1423973285781095 0.58908750077553829  1.2137971616142424 0.59081995723922809  1.2851969946503718 0.59259919302556296  1.356596827686503 0.59441614189285763  1.4279966607226342 0.59626154383199526  1.4993964937587663 0.59812599977834424  1.5469963824495201 0.59937532754168854  1.5707963267948966 0.59999999999999609 
 0 4 0.071399833036131677 1 0.14279966607226335 1 0.21419949910839503 1 0.28559933214452671 1 0.35699916518065838 1 0.42839899821679006 1 0.49979883125292174 1 0.57119866428905341 1 0.64259849732518504 1 0.71399833036131677 1 0.7853981633974485 1 0.85679799643358012 1 0.92819782946971174 1 0.99959766250584348 1 1.0709974955419752 1 1.1423973285781068 1 1.2137971616142385 1 1.2851969946503701 1 1.3565968276865019 1 1.4279966607226335 1 1.4993964937587652 1 1.570796326794897 4
7 0 0  3 25 23  -1.5707963267949179 10.526246599057782  -1.4755965494134085 10.526260179044446  -1.2851969946503896 10.525521814249638  -0.99959766250586135 10.5223839458229  -0.71399833036133131 10.517422667551727  -0.4283989982167995 10.511052586705494  -0.1427996660722668 10.503786373359375  0.14279966607226591 10.49621360285782  0.42839899821680039 10.488947532208583  0.71399833036132865 10.482576880574824  0.9995976625058649 10.477617742756886  1.2851969946503914 10.474471883304719  1.5707963267949179 10.47339415976098  1.8563956589394435 10.474471883304719  2.1419949910839646 10.47761774275688  2.4275943232284884 10.482576880574824  2.7131936553730114 10.488947532208584  2.9987929875175325 10.496213602857821  3.2843923196620537 10.503786373359372  3.5699916518065762 10.511052586705498  3.8555909839510947 10.517422667551722  4.1411903160956189 10.522383945822902  4.4267896482401436 10.52552181424964  4.6171892030031607 10.526260179044449  4.7123889803846684 10.526246599057782 
 0 4 0.28559933214452665 1 0.5711986642890533 1 0.8567979964335799 1 1.1423973285781066 1 1.4279966607226333 1 1.7135959928671598 1 1.9991953250116865 1 2.2847946571562132 1 2.5703939893007397 1 2.8559933214452666 1 3.1415926535897931 1 3.4271919857343196 1 3.7127913178788465 1 3.998390650023373 1 4.2839899821678999 1 4.5695893143124264 1 4.8551886464569529 1 5.1407879786014794 1 5.4263873107460068 1 5.7119866428905333 1 5.9975859750350597 1 6.2831853071795862 4
7 0 0  3 25 23  1.5707963267948966 0.59999999999999609  1.6421961598310277 0.60187516702153876  1.7849958259032892 0.60562139171312079  1.9991953250116836 0.61098707404272234  2.2133948241200763 0.61584969984901416  2.4275943232284725 0.61998813038442302  2.6417938223368633 0.62321291501024445  2.8559933214452595 0.6253767408182187  3.0701928205536522 0.62638068598014562  3.2843923196620466 0.62617886965022174  3.4985918187704428 0.62478051456198214  3.7127913178788354 0.6222495347179966  3.9269908169872334 0.61870161165895265  4.1411903160956278 0.61429890770720608  4.3553898152040311 0.60924265413235146  4.5695893143124238 0.60376395300531749  4.7837888134208235 0.59811321684713836  4.9979883125292197 0.59254871397487241  5.2121878116376195 0.58732479848771924  5.4263873107460121 0.58268015605450696  5.6405868098544119 0.57882737455896327  5.8547863089628063 0.57594143583107249  6.0689858080712007 0.57415840448354105  6.2117854741434595 0.57374897093749777  6.2831853071795862 0.57375340094221894 
 1.570796326794897 4 1.7849958259032919 1 1.999195325011687 1 2.213394824120082 1 2.4275943232284769 1 2.6417938223368718 1 2.8559933214452666 1 3.0701928205536619 1 3.2843923196620568 1 3.4985918187704517 1 3.7127913178788465 1 3.9269908169872418 1 4.1411903160956367 1 4.3553898152040311 1 4.5695893143124273 1 4.7837888134208217 1 4.9979883125292162 1 5.2121878116376115 1 5.4263873107460068 1 5.6405868098544012 1 5.8547863089627956 1 6.0689858080711918 1 6.2831853071795862 4
1 0 4.7123889803846879 1 0 
1 0 10.995574287564274 1 0 
1 3.1415926535897931 10.995574287564278 0 -1 
1 1.5707963267948966 5.1000000000000005 1 0 
1 7.8539816339744828 0 0 1 
1 1.5707963267948966 0 0 1 
1 1.5707963267948966 0 1 0 
1 6.2831853071795862 0 0 1 
1 0 0 0 1 
7 0 0  1 2 2  10.995574290586157 7.6064436220116534  4.7123889834065711 7.6064436220116534 
 0.49999999951905272 2 1.4999999995190547 2
7 0 0  3 25 23  0.74999999998297429 1.0000004143003567  0.752840254293075 0.99995899945314315  0.75852328590753371 0.99987333225499708  0.7671059984955364 0.99973574867369408  0.77580029392677252 0.99958848088693952  0.78464971465134936 0.99943103649290954  0.79369241795319589 0.99926305946715244  0.80296077699512325 0.99908440285200151  0.81248214149022058 0.99889520385924579  0.82227926221821024 0.99869596972554808  0.83237089602709569 0.99848766554742019  0.84277255571421716 0.99827179616421613  0.85349749859837454 0.99805047061308705  0.86455798992590482 0.99782643682508987  0.87596686857341099 0.99760307528571568  0.88773942755894919 0.99738434412977972  0.89989561565292187 0.99717467412787275  0.91246259791801965 0.99697881833283641  0.92547768243861128 0.99680166792212144  0.93899192399089992 0.99664804400035611  0.95307389152098887 0.99652249276401661  0.96781661622387016 0.99642904467697269  0.98333821572469793 0.99637114122570647  0.99432231785200709 0.99635772935116929  1 0.99635775168693874 
 1.2500000000000016 4 1.2613636363417766 1 1.2727272726835519 1 1.284090909025327 1 1.295454545367102 1 1.3068181817088773 1 1.3181818180506524 1 1.3295454543924277 1 1.3409090907342027 1 1.3522727270759778 1 1.3636363634177531 1 1.3749999997595281 1 1.3863636361013032 1 1.3977272724430785 1 1.4090909087848535 1 1.4204545451266286 1 1.4318181814684039 1 1.443181817810179 1 1.4545454541519542 1 1.4659090904937293 1 1.4772727268355044 1 1.4886363631772797 1 1.4999999995190547 4
7 0 0  1 2 2  4.7123889834065711 7.6064436220116534  -1.5707963237730151 7.6064436220116534 
 0.49999999951905272 2 1.4999999995190547 2
7 0 0  3 25 23  0 0.99635775168693874  0.01685934655036736 0.99635385050121361  0.047859274134464336 0.99647966980750946  0.088099407644870564 0.99695169534456229  0.12451940036145948 0.99759545602406385  0.15765809499903494 0.99827836583920071  0.18788959880658418 0.99890572499268893  0.21561490190475241 0.9994508260259285  0.24155922091014159 0.99985942321172527  0.2669503320674661 1.0003368956267902  0.29338702293696683 1.0001856445814874  0.32188036970257405 1.0008838266988729  0.35306151226578331 1.0008459874484215  0.38719396915051041 1.0013885435155909  0.42498263135441616 1.0000480884198193  0.46623517172084794 1.0003824034567448  0.51775193884805892 1.0003855984048149  0.56177511373021172 1.0000385035756081  0.60063341806955395 1.0014236879443652  0.63590688120499994 1.0009179892444859  0.66804289893858804 1.0008575162410898  0.69738621890158048 1.0006182341989018  0.72439458623975095 1.0003355122336042  0.74151727181824201 1.0001138490900641  0.74999999998297462 1.00000041430036 
 0.49999999951905272 4 0.53409090863182307 1 0.56818181774459353 1 0.60227272685736388 1 0.63636363597013434 1 0.6704545450829047 1 0.70454545419567505 1 0.73863636330844551 1 0.77272727242121597 1 0.80681818153398632 1 0.84090909064675667 1 0.87499999975952714 1 0.90909090887229749 1 0.94318181798506795 1 0.9772727270978383 1 1.0113636362106089 1 1.0454545453233792 1 1.0795454544361496 1 1.1136363635489199 1 1.1477272726616903 1 1.1818181817744606 1 1.215909090887231 1 1.2500000000000016 4
1 1 0 0 1 
1 0 0 0 1 
7 0 0  3 25 23  0 0  0.023524710465309795 0  0.064911072963067529 0  0.11463824399929567 0  0.15747398348076636 0  0.19599474757697077 0  0.23224199936908163 0  0.26775513760842928 0  0.30401956753531811 0  0.34247161909240376 0  0.38556503059558533 0  0.43433022608410865 0  0.49999999999998312 0  0.56566977391590401 0  0.61443496940439912 0  0.65752838090759003 0  0.69598043246467522 0  0.73224486239156716 0  0.76775800063091393 0  0.80400525242302434 0  0.84252601651923609 0  0.88536175600070544 0  0.935088927036972 0  0.97647528953471618 0  1 0 
 0 4 0.28559933214452665 1 0.5711986642890533 1 0.8567979964335799 1 1.1423973285781066 1 1.4279966607226333 1 1.7135959928671598 1 1.9991953250116865 1 2.2847946571562132 1 2.5703939893007397 1 2.8559933214452666 1 3.1415926535897931 1 3.4271919857343196 1 3.7127913178788465 1 3.998390650023373 1 4.2839899821678999 1 4.5695893143124264 1 4.8551886464569529 1 5.1407879786014794 1 5.4263873107460068 1 5.7119866428905333 1 5.9975859750350597 1 6.2831853071795862 4
7 0 0  3 25 23  0 1  0.023524710465309684 1  0.064911072963067529 1.0000000000000002  0.11463824399929567 0.99999999999999978  0.15747398348076636 1  0.19599474757697088 1  0.23224199936908163 1  0.26775513760842928 1  0.304019567535318 1  0.34247161909240376 1  0.38556503059558545 1  0.43433022608410865 1  0.49999999999998301 1.0000000000000002  0.5656697739159039 1  0.61443496940439912 0.99999999999999989  0.65752838090758992 1  0.69598043246467522 1.0000000000000002  0.73224486239156727 0.99999999999999978  0.76775800063091393 1.0000000000000002  0.80400525242302423 1  0.8425260165192362 1.0000000000000002  0.88536175600070544 0.99999999999999978  0.93508892703697211 1.0000000000000002  0.97647528953471618 1  1 1 
 0 4 0.28559933214452665 1 0.5711986642890533 1 0.8567979964335799 1 1.1423973285781066 1 1.4279966607226333 1 1.7135959928671598 1 1.9991953250116865 1 2.2847946571562132 1 2.5703939893007397 1 2.8559933214452666 1 3.1415926535897931 1 3.4271919857343196 1 3.7127913178788465 1 3.998390650023373 1 4.2839899821678999 1 4.5695893143124264 1 4.8551886464569529 1 5.1407879786014794 1 5.4263873107460068 1 5.7119866428905333 1 5.9975859750350597 1 6.2831853071795862 4
1 1 0 0 1 
1 0 0 0 1 
7 0 0  3 25 23  0 0  0.023524710465309795 0  0.064911072963067529 0  0.1146382439992959 0  0.15747398348076436 0  0.195994747576971 0  0.23224199936908207 0  0.26775513760842973 0  0.30401956753531545 0  0.34247161909240464 0  0.38556503059558778 0  0.43433022608410354 0  0.49999999999998446 0  0.56566977391590356 0  0.61443496940439912 0  0.65752838090759003 0  0.69598043246467522 0  0.73224486239156739 0  0.76775800063091371 0  0.80400525242302567 0  0.84252601651923875 0  0.88536175600070832 0  0.93508892703696889 0  0.97647528953471374 0  1 0 
 0 4 0.28559933214452665 1 0.5711986642890533 1 0.8567979964335799 1 1.1423973285781066 1 1.4279966607226333 1 1.7135959928671598 1 1.9991953250116865 1 2.2847946571562132 1 2.5703939893007397 1 2.8559933214452666 1 3.1415926535897931 1 3.4271919857343196 1 3.7127913178788465 1 3.998390650023373 1 4.2839899821678999 1 4.5695893143124264 1 4.8551886464569529 1 5.1407879786014794 1 5.4263873107460068 1 5.7119866428905333 1 5.9975859750350597 1 6.2831853071795862 4
7 0 0  3 25 23  0 1  0.023524710465309684 1  0.064911072963067529 1.0000000000000002  0.11463824399929579 0.99999999999999978  0.15747398348076425 1  0.195994747576971 1  0.23224199936908207 1  0.26775513760842973 1  0.30401956753531556 1  0.34247161909240476 1  0.38556503059558778 1  0.43433022608410365 1  0.49999999999998446 1.0000000000000002  0.56566977391590367 1  0.61443496940440001 0.99999999999999989  0.65752838090758736 1  0.695980432464674 1.0000000000000002  0.73224486239156528 0.99999999999999978  0.76775800063091593 1.0000000000000002  0.80400525242302345 1  0.84252601651924064 1.0000000000000002  0.88536175600070688 0.99999999999999978  0.93508892703697111 1.0000000000000002  0.97647528953471519 1  1 1 
 0 4 0.28559933214452665 1 0.5711986642890533 1 0.8567979964335799 1 1.1423973285781066 1 1.4279966607226333 1 1.7135959928671598 1 1.9991953250116865 1 2.2847946571562132 1 2.5703939893007397 1 2.8559933214452666 1 3.1415926535897931 1 3.4271919857343196 1 3.7127913178788465 1 3.998390650023373 1 4.2839899821678999 1 4.5695893143124264 1 4.8551886464569529 1 5.1407879786014794 1 5.4263873107460068 1 5.7119866428905333 1 5.9975859750350597 1 6.2831853071795862 4
1 1 0 0 1 
1 0 0 0 1 
Curves 23
2 -3.2537987723281199 9.4536255946231712e-16 0.595740784934356 -0.0026179908874187194 0 0.99999657305598477 0.99999657305598477 0 0.0026179908874187194 0 1 -0 0.29999999999999999
7 0 0  1 2 2  -2.9537998004113244 1.8369701987210297e-17 0.59652618220058162  -2.981288704705872 1.8369701987210297e-17 11.096490190369899 
 0 2 10.499999991081447 2
3 -3.2812876766460102 1.8369701987210297e-17 11.095704802022199 -0.0026080286416990299 0.087155742747658096 0.99619128418828695 -0.00022817294029957899 -0.99619469809174555 0.087155444069807089 0.99999657305598477 -1.8973538018496328e-19 0.0026179908874187172 0.30114595126300503 0.29999999999999999
7 1 0  6 7 2  -2.9522290058788734 0.60000000000000009 -0.0034717616330076639  1.0313934717875106 -2.9522290058788734 0.43959793010825055 -0.0034717616330069978  1.0100254076614381 -2.9523625302480832 0.28337485645068056 0.047530673964116033  0.99792464272497006 -2.952618689351143 0.14884829207863293 0.14537602035085662  0.99395844413693046 -2.9529708786707847 0.05100261038021292 0.27990212370790546  0.99792464272497106 -2.9533798692540247 1.7763568394002505e-15 0.43612466199774413  1.0100254076614372 -2.9537998004113244 5.5511151231257827e-16 0.59652618220058151  1.0313934717875106
 3.1415926535897931 7 4.7123889803846879 7
2 -3.2522279777956697 0.59999999999999998 -0.0042571588992341798 4.3598306422066598e-19 -1 -1.6653288299295101e-16 0.99999657305598477 -1.9259299443872359e-34 0.0026179908874187194 -0.0026179908874187194 -1.6653345369377351e-16 0.99999657305598477 0.29999999999999999
7 0 0  1 2 2  -2.9522290058788743 5.7000000000000002 -0.0034717616330078162  -2.9522290058788743 0.59999999999999964 -0.0034717616330086653 
 0 2 5.1000000000000005 2
2 -3.2522279777956697 5.7000000000000002 -0.0042571588992333402 4.3598306422066598e-19 -1 -1.6653288299295101e-16 0.99999657305598477 -1.9259299443872359e-34 0.0026179908874187194 -0.0026179908874187194 -1.6653345369377351e-16 0.99999657305598477 0.29999999999999999
7 0 0  1 2 2  -2.9812887047292116 2.9143354396410359e-16 11.096490199288427  -2.9993528418524007 1.2166561668884068 17.996466553374727 
 0.59999999999999609 2 7.6064436220116427 2
2 -3.2993518137691997 1.2166561668884099 17.9956811561085 -0.0025782177232452695 0.17364817766692997 0.98480437813117283 0.99999657305598477 7.0473141211557769e-19 0.0026179908874187229 0.00045460934674888934 0.98480775301220824 -0.17364758258434676 0.29999999999999999
2 3.2537987723281199 9.4536255946231712e-16 0.595740784934356 0.0026179908874187194 0 0.99999657305598477 0.99999657305598477 0 -0.0026179908874187194 -0 1 0 0.29999999999999999
7 0 0  1 2 2  3.5537977442449153 1.8369701987210297e-17 0.59495538766813039  3.5812866485394634 1.8369701987210297e-17 11.094919395837451 
 0 2 10.499999991081449 2
3 3.2812876766460102 1.8369701987210297e-17 11.095704802022199 0.0026080286416990299 0.087155742747658096 0.99619128418828695 0.00022817294029957899 -0.99619469809174555 0.087155444069807089 0.99999657305598477 1.8973538018496328e-19 -0.0026179908874187172 0.30114595126300503 0.29999999999999999
7 1 0  6 7 2  3.5522269497124643 0.60000000000000009 -0.0050425561654589002  1.0313934717875106 3.5522269497124643 0.43959793010825055 -0.005042556165458234  1.0100254076614381 3.5523604740816741 0.28337485645068056 0.045959879431664796  0.99792464272497006 3.552616633184734 0.14884829207863293 0.14380522581840538  0.99395844413693046 3.5529688225043756 0.05100261038021292 0.27833132917545422  0.99792464272497106 3.5533778130876157 1.7763568394002505e-15 0.4345538674652929  1.0100254076614372 3.5537977442449153 5.5511151231257827e-16 0.59495538766813028  1.0313934717875106
 3.1415926535897931 7 4.7123889803846879 7
2 3.2522279777956697 0.59999999999999998 -0.0042571588992341798 -4.3598306422066598e-19 -1 -1.6653288299295101e-16 0.99999657305598477 1.9259299443872359e-34 -0.0026179908874187194 0.0026179908874187194 -1.6653345369377351e-16 0.99999657305598477 0.29999999999999999
7 0 0  1 2 2  3.5522269497124652 5.7000000000000002 -0.0050425561654590476  3.5522269497124652 0.59999999999999964 -0.0050425561654598968 
 0 2 5.1000000000000005 2
2 3.2522279777956697 5.7000000000000002 -0.0042571588992333402 -4.3598306422066598e-19 -1 -1.6653288299295101e-16 0.99999657305598477 1.9259299443872359e-34 -0.0026179908874187194 0.0026179908874187194 -1.6653345369377351e-16 0.99999657305598477 0.29999999999999999
7 0 0  1 2 2  3.2813563900031664 -0.29999999999999971 11.121951311134351  3.299488196573221 0.92121384098474657 18.047775430883817 
 0.57375340094221894 2 7.6064436220116534 2
7 0 1  3 4 5  3.2995563893350903 0.773492678032912 18.0738225682679  2.84935335589463 1.2166561655492099 17.996859252244001  3.29914723820331 1.6598196557439 17.917539743949099  3.7493502716437801 1.21665616822761 17.994503059973002 
 0.499999999519048 1 0.74999999951904806 1 0.99999999951904806 1 1.2499999995190501 1 1.4999999995190501 1
7 1 0  3 4 2  2.7001252790861696 1.2686164878704802 18.291148177101899  1 2.8750671303222339 1.2685381661806341 18.290703992726105  0.80544904734578526 2.9989014080626784 1.2470612497676632 18.168902347131752  0.80474044446667603 2.9993528418523998 1.2166561668884217 17.996466553374734  0.99787419136267219
 0 4 0.99635775168693874 4
2 2.6993518137691899 1.3208450734885699 18.5865658079158 0.99999667639099099 0.00044827994791754599 0.0025389470376901502 0.0025782177232451468 -0.17409528539361796 -0.98472543604655927 5.8604194191322378e-07 0.98472870916247945 -0.17409586253226567 0.29999999999999999
7 0 0  1 2 2  -2.6985783484522501 1.2686164878704802 18.291148177101899  2.7001252790861696 1.2686164878704802 18.291148177101899 
 0 2 1 2
2 -2.6993518137692201 1.3208450734885699 18.5865658079158 0.99999667639099099 0.00044827994791757402 0.0025389470376902699 0.0025782177232452695 -0.17409528539361796 -0.98472543604655927 5.8604194190644752e-07 0.98472870916247945 -0.17409586253226567 0.29999999999999999
7 1 0  3 4 2  -2.9993528418524003 1.2166561668884099 17.996466553374699  1 -2.9988997563597501 1.24717249568457 18.169533254077898  0.80473785412436505 -2.8743148819775097 1.2686951653406098 18.291594379207798  0.80473785412436505 -2.6985783484522501 1.2686164878704802 18.291148177101899  1
 0 4 1 4
Polygon3D 0
PolygonOnTriangulations 0
Surfaces 13
10 0 6.2831853071795862 0 10.526260179044447
2 -3.2537987723281199 1.8369701987210297e-17 0.595740784934356 -0.0026179908874187194 0 0.99999657305598477 0.99999657305598477 0 0.0026179908874187194 0 1 -0 0.29999999999999999
10 0.78539816339744739 7.0685834705770336 4.7123889803846879 10.995574287564274
5 -3.2537987723281199 0.59999999999999998 0.595740784934357 -0.99999657305598477 0 -0.0026179908874187194 -0.0026179908874187194 0 0.99999657305598477 0 1 0 0.59999999999999998 0.29999999999999999
10 1.5707963267948966 7.8539816339744828 0.57374897093749944 7.6064436220116427
2 -3.27974074601206 -0.10418890660015701 10.5048221751435 -0.0025782177232452695 0.17364817766692997 0.98480437813117283 -0.00045460934674888907 -0.98480775301220813 0.17364758258434676 0.99999657305598488 1.0299920638612292e-18 0.0026179908874187229 0.29999999999999999
10 1.5707963267948966 7.8539816339744828 0 5.1000000000000005
2 -3.2522279777956697 5.7000000000000002 -0.0042571588992333402 4.3598306422066598e-19 -1 -1.6653288299295101e-16 0.0026179908874187194 1.6653345369377351e-16 -0.99999657305598477 0.99999657305598477 -1.9259299443872359e-34 0.0026179908874187194 0.29999999999999999
1 -3.2522279777956697 5.7000000000000002 -0.0042571588992333497 4.3598306422066598e-19 -1 -1.6653288299295101e-16 0.99999657305598477 -1.9259299443872359e-34 0.0026179908874187194 -0.0026179908874187194 -1.6653345369377351e-16 0.99999657305598477 
10 0 1 0 1
9 1 1 1 0 3 3 6 4 3 2 -2.9993528418524003 1.2166561668884099 17.996466553374699  1 -2.9988997563597501 1.24717249568457 18.169533254077898  0.80473785412436505 -2.8743148819775097 1.26869516534061 18.291594379207798  0.80473785412436505 -2.6985783484522501 1.2686164878704802 18.291148177101899  1 
-2.9990800762443501 1.80754081869573 17.892278003824099  0.33333333333333398 -2.9986267847744501 1.83802940157038 18.065187349587003  0.26824595137478802 -2.8741547479584999 1.8595324266056699 18.187137064536401  0.26824595137478802 -2.6985779968270798 1.8594537133679701 18.186690659582503  0.33333333333333398 
-3.59907802007795 1.80754081869573 17.890707209291701  0.33333333333333398 -3.5995308995933599 1.89906164085315 18.4097475841095  0.26824595137478802 -3.2271723366941898 1.96383224290159 18.777079921952499  0.26824595137478802 -2.7001249274610197 1.96391088460414 18.777525921210401  0.33333333333333398 
-3.5993507856860001 1.2166561668884099 17.994895758842201  1 -3.59980387117866 1.3082047349673398 18.514093488600302  0.80473785412436505 -3.2273324707132098 1.3729949816365199 18.881537236623799  0.80473785412436505 -2.70012527908619 1.3730736591066499 18.881983438729801  1 
-3.5996235512940502 0.62577151508108197 18.0990843083929  0.33333333333333398 -3.60007684276396 0.71734782908152905 18.618439393091197  0.26824595137478802 -3.2274926047322197 0.78215772037146203 18.9859945512952  0.26824595137478802 -2.7001256307113604 0.78223643360916506 18.986440956249101  0.33333333333333398 
-2.9996256074604499 0.62577151508108197 18.100655102925302  0.33333333333333398 -2.99917272794506 0.65631558979876292 18.2738791585687  0.26824595137478802 -2.87447501599652 0.67785790407554602 18.396051693879102  0.26824595137478802 -2.6985787000774102 0.67777926237299491 18.395605694621199  0.33333333333333398 

0 3
0.5 3
1 3

0 4
1 4

10 0 6.2831853071795862 0 10.526260179044449
2 3.2537987723281199 1.8369701987210297e-17 0.595740784934356 0.0026179908874187194 0 0.99999657305598477 0.99999657305598477 0 -0.0026179908874187194 -0 1 0 0.29999999999999999
10 0.78539816339744739 7.0685834705770336 4.7123889803846879 10.995574287564274
5 3.2537987723281199 0.59999999999999998 0.595740784934357 -0.99999657305598477 0 0.0026179908874187194 0.0026179908874187194 0 0.99999657305598477 0 1 -0 0.59999999999999998 0.29999999999999999
10 0 6.2831853071795862 0.57374897093749777 7.6064436220116534
2 3.27974074601206 -0.10418890660015701 10.5048221751435 0.0025782177232452695 0.17364817766692997 0.98480437813117283 0.00045460934674888907 -0.98480775301220813 0.17364758258434676 0.99999657305598488 -1.0299920638612292e-18 -0.0026179908874187229 0.29999999999999999
10 1.5707963267948966 7.8539816339744828 0 5.1000000000000005
2 3.2522279777956697 5.7000000000000002 -0.0042571588992333402 -4.3598306422066598e-19 -1 -1.6653288299295101e-16 -0.0026179908874187194 1.6653345369377351e-16 -0.99999657305598477 0.99999657305598477 1.9259299443872359e-34 -0.0026179908874187194 0.29999999999999999
1 3.2522279777956697 5.7000000000000002 -0.0042571588992333497 -4.3598306422066598e-19 -1 -1.6653288299295101e-16 0.99999657305598477 1.9259299443872359e-34 -0.0026179908874187194 0.0026179908874187194 -1.6653345369377351e-16 0.99999657305598477 
10 0 1 0 1
9 1 1 1 0 3 3 6 4 3 2 2.7001252790861696 1.2686164878704802 18.291148177101899  1 2.8758618126114301 1.26853781040036 18.290701974995901  0.80473785412436505 2.9998059273450499 1.2469038739990199 18.168009824796197  0.80473785412436505 2.9993528418524003 1.2163875452028501 17.994943124092998  1 
2.7001256307113297 1.8594537133679701 18.186690659582503  0.33333333333333398 2.8757023818427503 1.85937500013027 18.186244254628601  0.26824595137478802 2.9995333677142502 1.8377606577666901 18.063663227738999  0.26824595137478802 2.9990800762443501 1.8072720748920301 17.890753881976099  0.33333333333333398 
2.6985787000773898 1.96391088460414 18.777525921210401  0.33333333333333398 3.22562610931055 1.9639895263066898 18.777971920468399  0.26824595137478802 3.5986251405625302 1.89933014042058 18.411270320824801  0.26824595137478802 3.5990780200779402 1.80780931826316 17.892229946006999  0.33333333333333398 
2.6985783484522199 1.3730736591066499 18.881983438729801  1 3.2257855400792401 1.3731523365767799 18.882429640835699  0.80473785412436505 3.59889770019333 1.3084733566529101 18.515616917882099  0.80473785412436505 3.5993507856860001 1.21692478857397 17.996419188123998  1 
2.69857799682705 0.78223643360916406 18.986440956249101  0.33333333333333398 3.2259449708479102 0.78231514684686798 18.986887361203099  0.26824595137478802 3.59917025982412 0.71761657288523295 18.6199635149393  0.26824595137478802 3.59962355129404 0.62604025888478798 18.100608430241  0.33333333333333398 
2.7001249274609997 0.67777926237299402 18.395605694621199  0.33333333333333398 2.87602124338011 0.67770062067044301 18.395159695363301  0.26824595137478802 3.0000784869758501 0.656047090231346 18.272356421853502  0.26824595137478802 2.9996256074604499 0.62550301551366405 18.09913236621  0.33333333333333398 

0 3
0.5 3
1 3

0 4
1 4

10 0 1 0 1
9 0 1 1 0 3 1 6 2 3 2 -2.6985783484522501 1.2686164878704802 18.291148177101899  1 2.7001252790861696 1.2686164878704802 18.291148177101899  1 
-2.6985779968270798 1.8594537133679701 18.186690659582503  0.33333333333333398 2.7001256307113297 1.8594537133679701 18.186690659582503  0.33333333333333398 
-2.7001249274610197 1.96391088460414 18.777525921210401  0.33333333333333398 2.6985787000773898 1.96391088460414 18.777525921210401  0.33333333333333398 
-2.70012527908619 1.3730736591066499 18.881983438729801  1 2.6985783484522199 1.3730736591066499 18.881983438729801  1 
-2.7001256307113604 0.78223643360916406 18.986440956249101  0.33333333333333398 2.69857799682705 0.78223643360916406 18.986440956249101  0.33333333333333398 
-2.6985787000774102 0.67777926237299402 18.395605694621199  0.33333333333333398 2.7001249274609997 0.67777926237299402 18.395605694621199  0.33333333333333398 

0 3
0.5 3
1 3

0 2
1 2

Triangulations 0

TShapes 69
Ve
1e-05
-2.95379980041132 9.45362559462317e-16 0.596526182200582
0 0

0101101
*
Ed
 1e-07 1 1 0
1  1 0 0 6.28318530717959
2  1 1 0 0 6.28318530717959
2  2 2 0 0 6.28318530717959
4 G1 1 0 2 0
0

0101000
-69 0 +69 0 *
Ve
1e-05
-2.98128870470587 3.08597110142433e-17 11.0964901903699
0 0

0101101
*
Ed
 1e-05 1 1 0
1  2 0 0 10.4999999910814
3  3 4CN 1 0 0 10.4999999910814
0

0101000
+69 0 -67 0 *
Ve
5.99772481730349e-06
-3.28135639000317 -0.3 11.1219513111344
0 0

0101101
*
Ed
 5.99772481730349e-06 1 1 0
1  3 0 0 1.5707963267949
2  5 1 0 0 1.5707963267949
2  6 3 0 0 1.5707963267949
4 C0 1 0 3 0
0

0101000
+65 0 -67 0 *
Ed
 3.18144374015285e-06 1 1 0
1  3 0 1.5707963267949 6.28318530717959
2  7 1 0 1.5707963267949 6.28318530717959
2  8 3 0 1.5707963267949 6.28318530717959
4 C0 1 0 3 0
0

0101000
+67 0 -65 0 *
Wi

0101100
+68 0 +66 0 -64 0 -63 0 -66 0 *
Fa
0  1e-07 1 0

0101000
+62 0 *
Ve
1e-05
-2.95222900587887 0.6 -0.00347176163300857
0 0

0101101
*
Ed
 1e-05 1 1 0
1  4 0 3.14159265358979 4.71238898038469
3  9 10CN 2 0 3.14159265358979 4.71238898038469
0

0101000
-69 0 +60 0 *
Ed
 1e-07 1 1 0
1  5 0 0 6.28318530717959
2  11 2 0 0 6.28318530717959
2  12 4 0 0 6.28318530717959
4 G1 2 0 4 0
0

0101000
-60 0 +60 0 *
Wi

0101100
-68 0 -59 0 +58 0 +59 0 *
Fa
0  1e-07 2 0

0101000
+57 0 *
Ve
1e-05
-2.95222900587887 5.7 -0.00347176163300772
0 0

0101101
*
Ed
 1e-05 1 1 0
1  6 0 0 5.1
3  13 14CN 4 0 0 5.1
0

0101000
-60 0 +55 0 *
Ed
 1e-07 1 1 0
1  7 0 0 6.28318530717959
2  15 4 0 0 6.28318530717959
4 C0 4 0 5 0
0

0101000
+55 0 -55 0 *
Wi

0101100
-58 0 -54 0 +53 0 +54 0 *
Fa
0  1e-07 4 0

0111000
+52 0 *
Ve
1e-05
-2.9993528418524 1.21665616688841 17.9964665533747
0 0

0101101
*
Ed
 1e-05 1 1 0
1  8 0 0.599999999999996 7.60644362201164
3  16 17CN 3 0 0.599999999999996 7.60644362201164
0

0101000
+67 0 -50 0 *
Ed
 1e-07 1 1 0
1  9 0 0 6.28318530717959
2  18 3 0 0 6.28318530717959
2  19 6 0 0 6.28318530717959
4 G1 3 0 6 0
0

0101000
+50 0 -50 0 *
Wi

0101100
+64 0 +49 0 -48 0 -49 0 +63 0 *
Fa
0  1e-07 3 0

0101000
+47 0 *
Wi

0101100
-53 0 *
Fa
0  1e-07 5 0

0111000
-45 0 *
Ve
1e-05
3.55379774424491 9.45362559462317e-16 0.59495538766813
0 0

0101101
*
Ed
 1e-07 1 1 0
1  10 0 0 6.28318530717959
2  20 7 0 0 6.28318530717959
2  21 8 0 0 6.28318530717959
4 G1 7 0 8 0
0

0101000
-43 0 +43 0 *
Ve
1e-05
3.58128664853946 2.6696374671899e-17 11.0949193958375
0 0

0101101
*
Ed
 1e-05 1 1 0
1  11 0 0 10.4999999910814
3  22 23CN 7 0 0 10.4999999910814
0

0101000
+43 0 -41 0 *
Ve
1e-05
3.28135639000317 -0.3 11.1219513111344
0 0

0101101
*
Ed
 5.99772481730232e-06 1 1 0
1  12 0 0 1.5707963267949
2  24 7 0 0 1.5707963267949
2  25 9 0 0 1.5707963267949
4 C0 7 0 9 0
0

0101000
+39 0 -41 0 *
Ed
 3.18144374370443e-06 1 1 0
1  12 0 1.5707963267949 6.28318530717959
2  26 7 0 1.5707963267949 6.28318530717959
2  27 9 0 1.5707963267949 6.28318530717959
4 C0 7 0 9 0
0

0101000
+41 0 -39 0 *
Wi

0101100
+42 0 +40 0 -38 0 -37 0 -40 0 *
Fa
0  1e-07 7 0

0101000
+36 0 *
Ve
1e-05
3.55222694971246 0.6 -0.0050425561654598
0 0

0101101
*
Ed
 1e-05 1 1 0
1  13 0 3.14159265358979 4.71238898038469
3  28 29CN 8 0 3.14159265358979 4.71238898038469
0

0101000
-43 0 +34 0 *
Ed
 1e-07 1 1 0
1  14 0 0 6.28318530717959
2  30 8 0 0 6.28318530717959
2  31 10 0 0 6.28318530717959
4 G1 8 0 10 0
0

0101000
-34 0 +34 0 *
Wi

0101100
-42 0 -33 0 +32 0 +33 0 *
Fa
0  1e-07 8 0

0101000
+31 0 *
Ve
1e-05
3.55222694971246 5.7 -0.00504255616545895
0 0

0101101
*
Ed
 1e-05 1 1 0
1  15 0 0 5.1
3  32 33CN 10 0 0 5.1
0

0101000
-34 0 +29 0 *
Ed
 1e-07 1 1 0
1  16 0 0 6.28318530717959
2  34 10 0 0 6.28318530717959
4 C0 10 0 11 0
0

0101000
+29 0 -29 0 *
Wi

0101100
-32 0 -28 0 +27 0 +28 0 *
Fa
0  1e-07 10 0

0111000
+26 0 *
Ve
0.00831853594507993
3.29948819657322 0.921213840984746 18.0477754308838
0 0

0101101
*
Ed
 1e-05 1 1 0
1  17 0 0.573753400942219 7.60644362201165
3  35 36CN 9 0 0.573753400942219 7.60644362201165
0

0101000
+39 0 -24 0 *
Ve
0.00831853594507993
2.9993528418524 1.21638754520285 17.994943124093
0 0

0101101
*
Ed
 0.00831853594507993 1 1 0
1  18 0 1.25 1.49999999951905
2  37 9 0 1.25 1.49999999951905
2  38 12 0 1.25 1.49999999951905
4 C0 9 0 12 0
0

0101000
-22 0 +24 0 *
Ed
 0.00831853594506867 1 1 0
1  18 0 0.499999999519053 1.25
2  39 9 0 0.499999999519053 1.25
2  40 12 0 0.499999999519053 1.25
4 C0 9 0 12 0
0

0101000
-24 0 +22 0 *
Wi

0101100
+38 0 +37 0 +23 0 +21 0 +20 0 -23 0 *
Fa
0  1e-07 9 0

0101000
+19 0 *
Wi

0101100
-27 0 *
Fa
0  1e-07 11 0

0111000
-17 0 *
Ve
1e-05
2.70012527908617 1.26861648787048 18.2911481771019
0 0

0101101
*
Ed
 1e-05 1 1 0
1  19 0 0 0.996357751686939
3  41 42C2 12 0 0 0.996357751686939
0

0101000
-22 0 +15 0 *
Ed
 1e-07 1 1 0
1  20 0 0 6.28318530717959
2  43 12 0 0 6.28318530717959
2  44 13 0 0 6.28318530717959
4 G1 12 0 13 0
0

0101000
-15 0 +15 0 *
Wi

0101100
-20 0 -14 0 +13 0 +14 0 -21 0 *
Fa
0  1e-07 12 0

0101000
+12 0 *
Ve
1e-05
-2.69857834845225 1.26861648787048 18.2911481771019
0 0

0101101
*
Ed
 1e-05 1 1 0
1  21 0 0 1
3  45 46C2 13 0 0 1
0

0101000
-15 0 +10 0 *
Ed
 1e-07 1 1 0
1  22 0 0 6.28318530717959
2  47 13 0 0 6.28318530717959
2  48 6 0 0 6.28318530717959
4 G1 13 0 6 0
0

0101000
-10 0 +10 0 *
Wi

0101100
-13 0 -9 0 +8 0 +9 0 *
Fa
0  1e-07 13 0

0101000
+7 0 *
Ed
 1e-05 1 1 0
1  23 0 0 1
3  49 50C2 6 0 0 1
0

0101000
-10 0 +50 0 *
Wi

0101100
-8 0 -5 0 +48 0 +5 0 *
Fa
0  1e-07 6 0

0111000
+4 0 *
Sh

0101100
+61 0 +56 0 +51 0 +46 0 -44 0 +35 0 +30 0 +25 0 +18 0 -16 0 
+11 0 +6 0 +3 0 *
So

0100000
+2 0 *

+1 3 