DBRep_DrawableShape

CASCADE Topology V3, (c) Open Cascade
Locations 1
1
0.939692620785908 -0.342020143325669               0 0.00911845851767068 
-0.342020143325669 -0.939692620785908               0 -57.0033188474828 
              0              -0              -1         -132.45 
Curve2ds 20
1 0 5.5499999999999998 1 0 
1 0 0 1 0 
1 0 0.84852813742385713 1 0 
1 0 -4.9500000000000002 1 0 
1 6.2831853071795862 0 0 1 
1 0 0 0 1 
1 0 3.4500000000000002 1 0 
1 6.2831853071795862 0 0 1 
1 0 0 0 1 
1 0 3.4500000000000002 1 0 
1 0 4.9500000000000002 1 0 
1 1.4033482475752077 4.9500000000000002 0 1 
1 -6.2831853071795862 5.5499999999999998 1 0 
1 6.2831853071795862 0 0 1 
1 0 0 0 1 
1 0 5.5499999999999998 1 0 
1 4.8798370596043785 4.9500000000000002 0 1 
1 0 4.9500000000000002 1 0 
1 4.5449409011650008 4.9500000000000002 0 1 
1 1.7382444060145854 4.9500000000000002 0 1 
Curves 19
1 -0.59999999999999998 0 11.1 1.1453975988275301e-16 -1 0 
2 0 0 11.1 0 0 1 1 0 -0 -0 1 0 3.6000000000000001
2 0 0 0 0 0 1 1 0 -0 -0 1 0 1.5
2 0 0 0.59999999999999998 0 0 1 1 0 -0 -0 1 0 2.1000000000000001
7 0 0  1 2 2  1.5 -3.6739403974420594e-16 0  2.0999999999999992 -5.143516556418881e-16 0.60000000000000087 
 0 2 0.84852813742385713 2
2 0 0 9 0 0 1 1 0 -0 -0 1 0 2.1000000000000001
7 0 0  1 2 2  2.1000000000000001 -5.1435165564188839e-16 0.59999999999999964  2.1000000000000001 -5.1435165564188839e-16 9 
 -4.9500000000000002 2 3.4500000000000002 2
2 0 0 9 0 0 1 1 0 -0 -0 1 0 3.6000000000000001
2 0 0 10.5 0 0 1 1 0 -0 -0 1 0 3.6000000000000001
1 0.59999999999999998 3.5496478698597702 10.5 0 0 1 
2 0 0 11.1 0 0 1 1 0 -0 -0 1 0 3.6000000000000001
7 0 0  1 2 2  3.6000000000000001 -8.8174569538609433e-16 9  3.6000000000000001 -8.8174569538609433e-16 11.1 
 3.4500000000000002 2 5.5499999999999998 2
1 0.59999999999999998 -3.5496478698597702 10.5 0 0 1 
2 0 0 10.5 0 0 1 1 0 -0 -0 1 0 3.6000000000000001
1 -0.59999999999999998 -3.5496478698597702 10.5 0 0 1 
1 -0.59999999999999998 3.5496478698597702 10.5 0 0 1 
1 0.59999999999999998 0 11.1 -1.1453975988275301e-16 -1 0 
1 -0.59999999999999998 0 10.5 1.1453975988275301e-16 -1 0 
1 0.59999999999999998 0 10.5 -1.1453975988275301e-16 -1 0 
Polygon3D 0
PolygonOnTriangulations 0
Surfaces 10
1 1.8 0 11.1 0 0 -1 -1 0 0 0 1 0 
1 -0.59999999999999998 0 10.5 -1 -1.1453975988275301e-16 0 1.1453975988275301e-16 -1 0 0 0 1 
10 0 6.2831853071795862 3.4500000000000002 5.5499999999999998
2 0 0 5.5499999999999998 0 0 1 1 0 -0 -0 1 0 3.6000000000000001
1 0.75 0 -8.1315162936412796e-17 0 0 1 1 0 -0 -0 1 0 
10 0 6.2831853071795862 0 0.84852813742385713
3 0 0 0 0 0 1 1 0 -0 -0 1 0 1.5
0.78539816339744695
10 0 6.2831853071795862 -4.9500000000000002 3.4500000000000002
2 0 0 5.5499999999999998 0 0 1 1 0 -0 -0 1 0 2.1000000000000001
1 2.8500000000000001 0 9 0 0 1 1 0 -0 -0 1 0 
1 0 0 10.5 0 0 1 1 0 -0 -0 1 0 
1 0.59999999999999998 0 10.5 -1 1.1453975988275301e-16 0 -1.1453975988275301e-16 -1 0 0 0 1 
1 1.8 0 11.1 0 0 -1 -1 0 0 0 1 0 
Triangulations 0

TShapes 56
Ve
1e-07
-0.6 3.54964786985977 11.1
0 0

0101101
*
Ve
1e-07
-0.6 -3.54964786985977 11.1
0 0

0101101
*
Ed
 1e-07 1 1 0
1  1 0 -3.54964786985977 3.54964786985977
4 C0 1 0 2 0
0

0101000
+56 0 -55 0 *
Ed
 1e-07 1 1 0
1  2 0 1.73824440601459 4.544940901165
2  1 3 0 1.73824440601459 4.544940901165
4 C0 1 0 3 0
0

0101000
-55 0 +56 0 *
Wi

0101100
-54 0 +53 0 *
Fa
0  1e-07 1 0

0101000
-52 0 *
Ve
1e-05
1.5 0 0
0 0

0101101
*
Ed
 1e-07 1 1 0
1  3 0 0 6.28318530717959
2  2 5 0 0 6.28318530717959
4 C0 4 0 5 0
0

0101000
+50 0 -50 0 *
Wi

0101100
-49 0 *
Fa
0  1e-07 4 0

0101000
-48 0 *
Ve
1e-05
2.1 0 0.6
0 0

0101101
*
Ed
 1e-07 1 1 0
1  4 0 0 6.28318530717959
2  3 5 0 0 6.28318530717959
2  4 6 0 0 6.28318530717959
4 C0 5 0 6 0
0

0101000
+46 0 -46 0 *
Ed
 1e-05 1 1 0
1  5 0 0 0.848528137423857
3  5 6CN 5 0 0 0.848528137423857
0

0101000
-46 0 +50 0 *
Wi

0101100
-45 0 -44 0 +49 0 +44 0 *
Fa
0  1e-07 5 0

0101000
+43 0 *
Ve
1e-05
2.1 0 9
0 0

0101101
*
Ed
 1e-07 1 1 0
1  6 0 0 6.28318530717959
2  7 6 0 0 6.28318530717959
4 C0 6 0 7 0
0

0101000
-41 0 +41 0 *
Ed
 1e-05 1 1 0
1  7 0 -4.95 3.45
3  8 9CN 6 0 -4.95 3.45
0

0101000
-41 0 +46 0 *
Wi

0101100
-40 0 -39 0 +45 0 +39 0 *
Fa
0  1e-07 6 0

0111000
+38 0 *
Ve
1e-05
3.6 0 9
0 0

0101101
*
Ed
 1e-07 1 1 0
1  8 0 0 6.28318530717959
2  10 3 0 0 6.28318530717959
4 C0 7 0 3 0
0

0101000
+36 0 -36 0 *
Wi

0101100
-35 0 *
Wi

0101100
+40 0 *
Fa
0  1e-07 7 0

0101000
-34 0 -33 0 *
Ve
1e-07
-0.6 3.54964786985977 10.5
0 0

0101101
*
Ve
1e-07
0.6 3.54964786985977 10.5
0 0

0101101
*
Ed
 1e-07 1 1 0
1  9 0 1.40334824757521 1.73824440601459
2  11 3 0 1.40334824757521 1.73824440601459
4 C0 3 0 8 0
0

0101000
-31 0 +30 0 *
Ve
1e-07
0.6 3.54964786985977 11.1
0 0

0101101
*
Ed
 1e-07 1 1 0
1  10 0 0 0.6
2  12 3 0 0 0.6
4 C0 3 0 9 0
0

0101000
+30 0 -28 0 *
Ve
1e-05
3.6 -8.81745695386094e-16 11.1
0 0

0101101
*
Ed
 1e-07 1 1 0
1  11 0 6.28318530717959 7.68653355475479
2  13 3 0 6.28318530717959 7.68653355475479
4 C0 3 0 10 0
0

0101000
-28 0 +26 0 *
Ed
 1e-05 1 1 0
1  12 0 3.45 5.55
3  14 15CN 3 0 3.45 5.55
0

0101000
-26 0 +36 0 *
Ve
1e-07
0.6 -3.54964786985977 11.1
0 0

0101101
*
Ed
 1e-07 1 1 0
1  11 0 4.87983705960438 6.28318530717959
2  16 3 0 4.87983705960438 6.28318530717959
4 C0 3 0 10 0
0

0101000
-26 0 +23 0 *
Ve
1e-07
0.6 -3.54964786985977 10.5
0 0

0101101
*
Ed
 1e-07 1 1 0
1  13 0 0 0.6
2  17 3 0 0 0.6
4 C0 3 0 9 0
0

0101000
-23 0 +21 0 *
Ve
1e-07
-0.6 -3.54964786985977 10.5
0 0

0101101
*
Ed
 1e-07 1 1 0
1  14 0 4.544940901165 4.87983705960438
2  18 3 0 4.544940901165 4.87983705960438
4 C0 3 0 8 0
0

0101000
-21 0 +19 0 *
Ed
 1e-07 1 1 0
1  15 0 0 0.6
2  19 3 0 0 0.6
4 C0 3 0 2 0
0

0101000
+19 0 -55 0 *
Ed
 1e-07 1 1 0
1  16 0 0 0.6
2  20 3 0 0 0.6
4 C0 3 0 2 0
0

0101000
-56 0 +31 0 *
Wi

0101100
-29 0 +27 0 -25 0 -24 0 +35 0 +24 0 -22 0 -20 0 -18 0 +17 0 
-53 0 -16 0 *
Fa
0  1e-07 3 0

0111000
+15 0 *
Ed
 1e-07 1 1 0
1  17 0 -3.54964786985977 3.54964786985977
4 C0 10 0 9 0
0

0101000
+28 0 -23 0 *
Wi

0101100
+22 0 +25 0 +13 0 *
Fa
0  1e-07 10 0

0111000
-12 0 *
Ed
 1e-07 1 1 0
1  18 0 -3.54964786985977 3.54964786985977
4 C0 2 0 8 0
0

0101000
+31 0 -19 0 *
Wi

0101100
+54 0 -17 0 -10 0 +16 0 *
Fa
0  1e-07 2 0

0111000
-9 0 *
Ed
 1e-07 1 1 0
1  19 0 -3.54964786985977 3.54964786985977
4 C0 9 0 8 0
0

0101000
+30 0 -21 0 *
Wi

0101100
-13 0 -27 0 +7 0 +20 0 *
Fa
0  1e-07 9 0

0111000
+6 0 *
Wi

0101100
+29 0 +10 0 +18 0 -7 0 *
Fa
0  1e-07 8 0

0111000
+4 0 *
Sh

0101100
-51 0 -47 0 +42 0 +37 0 -32 0 +14 0 -11 0 -8 0 +5 0 +3 0 
*
So

0100000
+2 0 *

+1 1 